<svg xmlns="http://www.w3.org/2000/svg" xmlns:xlink="http://www.w3.org/1999/xlink" width="219" zoomAndPan="magnify" viewBox="0 0 164.25 72" height="96" preserveAspectRatio="xMidYMid meet" version="1.0"><defs><g/><clipPath id="8a08015a56"><path d="M 0 10.085938 L 52.261719 10.085938 L 52.261719 42.9375 L 0 42.9375 Z M 0 10.085938 " clip-rule="nonzero"/></clipPath><clipPath id="7d2036bc07"><path d="M 0 0.0859375 L 52 0.0859375 L 52 32.691406 L 0 32.691406 Z M 0 0.0859375 " clip-rule="nonzero"/></clipPath><clipPath id="8b9e0c2334"><rect x="0" width="53" y="0" height="33"/></clipPath><clipPath id="cd3cfb41aa"><path d="M 8.117188 31.878906 L 29.769531 31.878906 L 29.769531 53.484375 L 8.117188 53.484375 Z M 8.117188 31.878906 " clip-rule="nonzero"/></clipPath><clipPath id="a5518b94ac"><path d="M 10.75 35.664062 L 27.171875 35.664062 L 27.171875 49.851562 L 10.75 49.851562 Z M 10.75 35.664062 " clip-rule="nonzero"/></clipPath><clipPath id="64cc3a6886"><path d="M 5 3 L 17.113281 3 L 17.113281 14.851562 L 5 14.851562 Z M 5 3 " clip-rule="nonzero"/></clipPath><clipPath id="4d2aa854fc"><path d="M 0.75 0.664062 L 13 0.664062 L 13 12 L 0.75 12 Z M 0.75 0.664062 " clip-rule="nonzero"/></clipPath><clipPath id="3ccb2abedb"><rect x="0" width="18" y="0" height="15"/></clipPath><clipPath id="080f13db80"><path d="M 36 17.261719 L 40 17.261719 L 40 21 L 36 21 Z M 36 17.261719 " clip-rule="nonzero"/></clipPath><clipPath id="fd9707ffb6"><path d="M 22.511719 17.261719 L 37 17.261719 L 37 32 L 22.511719 32 Z M 22.511719 17.261719 " clip-rule="nonzero"/></clipPath><clipPath id="dd50311de6"><path d="M 65 4 L 81.65625 4 L 81.65625 23 L 65 23 Z M 65 4 " clip-rule="nonzero"/></clipPath><clipPath id="c605996b3b"><rect x="0" width="82" y="0" height="35"/></clipPath></defs><g clip-path="url(#8a08015a56)"><g transform="matrix(1, 0, 0, 1, 0, 10)"><g clip-path="url(#8b9e0c2334)"><g clip-path="url(#7d2036bc07)"><path fill="#00aeef" d="M 9.640625 13.570312 L 10.410156 13.570312 C 11.175781 10.355469 14.074219 7.941406 17.542969 7.941406 C 18.386719 7.941406 19.238281 8.128906 19.945312 8.363281 C 21.644531 3.550781 26.238281 0.0898438 31.65625 0.0898438 C 38.515625 0.0898438 44.074219 5.621094 44.074219 12.449219 C 44.074219 12.878906 44.050781 13.300781 44.011719 13.722656 C 48.519531 14.496094 51.976562 18.421875 51.976562 23.121094 C 51.976562 28.371094 47.660156 32.667969 42.382812 32.667969 L 9.644531 32.667969 C 4.367188 32.667969 0.0507812 28.371094 0.0507812 23.121094 C 0.046875 17.871094 4.363281 13.570312 9.640625 13.570312 Z M 9.640625 13.570312 " fill-opacity="1" fill-rule="nonzero"/></g></g></g></g><g clip-path="url(#cd3cfb41aa)"><path fill="#e9f9ff" d="M 29.722656 42.683594 C 29.722656 48.648438 24.886719 53.484375 18.917969 53.484375 C 12.953125 53.484375 8.117188 48.648438 8.117188 42.683594 C 8.117188 36.714844 12.953125 31.878906 18.917969 31.878906 C 24.886719 31.878906 29.722656 36.714844 29.722656 42.683594 Z M 29.722656 42.683594 " fill-opacity="1" fill-rule="nonzero"/></g><g clip-path="url(#a5518b94ac)"><g transform="matrix(1, 0, 0, 1, 10, 35)"><g clip-path="url(#3ccb2abedb)"><g clip-path="url(#64cc3a6886)"><path fill="#00aeef" d="M 14.027344 3.652344 L 17.097656 7.066406 L 15.90625 6.972656 C 15.90625 6.972656 16.035156 8.953125 15.125 10.632812 C 14.21875 12.308594 13.347656 12.839844 12.890625 13.21875 C 12.433594 13.597656 10.9375 14.488281 8.71875 14.582031 C 6.496094 14.675781 5.210938 13.789062 5.210938 13.789062 L 5.953125 12.339844 C 5.953125 12.339844 7.667969 13.273438 9.460938 12.9375 C 11.253906 12.601562 11.710938 12.054688 12.261719 11.695312 C 12.816406 11.339844 14.234375 9.554688 14.324219 7.679688 L 13.753906 8.203125 Z M 14.027344 3.652344 " fill-opacity="1" fill-rule="nonzero"/></g><g clip-path="url(#4d2aa854fc)"><path fill="#00aeef" d="M 3.835938 11.695312 L 0.765625 8.28125 L 1.957031 8.375 C 1.957031 8.375 1.832031 6.394531 2.738281 4.714844 C 3.644531 3.035156 4.507812 2.5 4.964844 2.121094 C 5.425781 1.742188 6.917969 0.851562 9.140625 0.757812 C 11.359375 0.664062 12.652344 1.550781 12.652344 1.550781 L 11.910156 3.007812 C 11.910156 3.007812 10.195312 2.074219 8.402344 2.410156 C 6.609375 2.742188 6.152344 3.289062 5.601562 3.652344 C 5.046875 4.007812 3.628906 5.792969 3.539062 7.667969 L 4.109375 7.144531 Z M 3.835938 11.695312 " fill-opacity="1" fill-rule="nonzero"/></g></g></g></g><g clip-path="url(#080f13db80)"><path fill="#ffffff" d="M 36.683594 20.082031 C 36.300781 20.117188 35.953125 19.777344 36.15625 19.390625 C 36.257812 19.195312 36.511719 19.082031 36.6875 18.960938 L 38.558594 17.691406 C 38.757812 17.558594 38.960938 17.378906 39.1875 17.304688 C 39.542969 17.261719 39.886719 17.621094 39.726562 17.972656 C 39.617188 18.207031 39.296875 18.347656 39.089844 18.484375 L 37.339844 19.679688 C 37.132812 19.824219 36.921875 20.003906 36.683594 20.082031 Z M 36.683594 20.082031 " fill-opacity="1" fill-rule="nonzero"/></g><g clip-path="url(#fd9707ffb6)"><path fill="#ffffff" d="M 25.855469 27.699219 C 25.21875 27.804688 24.476562 28.226562 23.851562 27.898438 C 23.132812 27.523438 22.519531 25.570312 22.90625 24.851562 C 23.164062 24.367188 23.589844 24.28125 24.066406 24.105469 C 26.933594 23.050781 30.386719 20.382812 32.273438 18.007812 C 32.390625 17.859375 32.539062 17.570312 32.726562 17.511719 C 33.105469 17.503906 33.140625 18.027344 33.226562 18.300781 C 33.355469 18.726562 33.488281 19.152344 33.628906 19.574219 L 36 26.863281 C 36.074219 27.09375 36.339844 27.519531 36.015625 27.65625 C 35.78125 27.609375 35.5625 27.480469 35.339844 27.398438 C 33.386719 26.679688 30.511719 26.742188 28.5 27.039062 C 28.660156 27.429688 28.851562 27.8125 29.03125 28.199219 L 29.917969 30.101562 C 30.003906 30.296875 30.292969 30.839844 30.3125 31.007812 C 30.371094 31.609375 29.042969 31.886719 28.539062 31.921875 C 27.726562 31.925781 27.621094 31.261719 27.28125 30.59375 L 26.34375 28.699219 C 26.179688 28.367188 26.03125 28.023438 25.855469 27.699219 Z M 25.855469 27.699219 " fill-opacity="1" fill-rule="nonzero"/></g><path fill="#ffffff" d="M 37.484375 22.320312 C 37.085938 22.324219 36.824219 21.882812 37.09375 21.550781 C 37.253906 21.347656 37.589844 21.335938 37.828125 21.292969 L 38.621094 21.144531 C 39.214844 21.027344 39.851562 20.863281 40.445312 20.789062 C 40.828125 20.75 41.066406 21.261719 40.832031 21.554688 C 40.671875 21.753906 40.328125 21.773438 40.097656 21.820312 L 38.195312 22.195312 C 37.960938 22.238281 37.722656 22.296875 37.484375 22.320312 Z M 37.484375 22.320312 " fill-opacity="1" fill-rule="nonzero"/><path fill="#ffffff" d="M 40.476562 25.351562 C 40.191406 25.363281 39.90625 25.28125 39.628906 25.230469 L 38.515625 25.015625 C 38.269531 24.96875 37.507812 24.851562 37.3125 24.761719 C 36.886719 24.570312 37 24 37.429688 23.863281 C 37.753906 23.828125 38.210938 23.984375 38.539062 24.042969 L 39.742188 24.265625 C 40.023438 24.320312 40.386719 24.34375 40.640625 24.488281 C 41.023438 24.707031 40.875 25.257812 40.476562 25.351562 Z M 40.476562 25.351562 " fill-opacity="1" fill-rule="nonzero"/><g transform="matrix(1, 0, 0, 1, 55, 11)"><g clip-path="url(#c605996b3b)"><g fill="#ffffff" fill-opacity="1"><g transform="translate(1.123843, 22.029022)"><g><path d="M 6.65625 0.15625 C 6.019531 0.15625 5.25 0.0664062 4.34375 -0.109375 C 3.4375 -0.296875 2.628906 -0.554688 1.921875 -0.890625 C 1.796875 -0.953125 1.660156 -1.054688 1.515625 -1.203125 C 1.378906 -1.359375 1.3125 -1.523438 1.3125 -1.703125 C 1.3125 -1.828125 1.320312 -1.898438 1.34375 -1.921875 L 2.015625 -3.515625 C 2.140625 -3.835938 2.382812 -4 2.75 -4 C 2.894531 -4 2.984375 -3.988281 3.015625 -3.96875 C 3.671875 -3.726562 4.394531 -3.523438 5.1875 -3.359375 C 5.976562 -3.191406 6.585938 -3.109375 7.015625 -3.109375 C 7.222656 -3.109375 7.507812 -3.128906 7.875 -3.171875 C 8.238281 -3.210938 8.613281 -3.300781 9 -3.4375 C 9.394531 -3.582031 9.722656 -3.785156 9.984375 -4.046875 C 10.242188 -4.316406 10.375 -4.664062 10.375 -5.09375 C 10.375 -5.644531 10.144531 -6.078125 9.6875 -6.390625 C 9.226562 -6.710938 8.644531 -6.972656 7.9375 -7.171875 C 7.226562 -7.378906 6.460938 -7.585938 5.640625 -7.796875 C 4.828125 -8.015625 4.066406 -8.296875 3.359375 -8.640625 C 2.648438 -8.984375 2.066406 -9.445312 1.609375 -10.03125 C 1.148438 -10.613281 0.921875 -11.378906 0.921875 -12.328125 C 0.921875 -13.285156 1.101562 -14.148438 1.46875 -14.921875 C 1.832031 -15.703125 2.503906 -16.320312 3.484375 -16.78125 C 4.460938 -17.238281 5.863281 -17.46875 7.6875 -17.46875 C 8.039062 -17.46875 8.625 -17.394531 9.4375 -17.25 C 10.25 -17.101562 11.03125 -16.953125 11.78125 -16.796875 C 11.96875 -16.753906 12.140625 -16.671875 12.296875 -16.546875 C 12.460938 -16.421875 12.546875 -16.269531 12.546875 -16.09375 C 12.546875 -15.988281 12.535156 -15.8125 12.515625 -15.5625 C 12.492188 -15.320312 12.460938 -14.9375 12.421875 -14.40625 C 12.378906 -14.125 12.273438 -13.945312 12.109375 -13.875 C 11.953125 -13.800781 11.765625 -13.765625 11.546875 -13.765625 C 11.140625 -13.828125 10.679688 -13.890625 10.171875 -13.953125 C 9.660156 -14.015625 9.191406 -14.070312 8.765625 -14.125 C 8.335938 -14.175781 8.050781 -14.203125 7.90625 -14.203125 C 6.8125 -14.203125 5.984375 -14.128906 5.421875 -13.984375 C 4.859375 -13.835938 4.578125 -13.460938 4.578125 -12.859375 C 4.578125 -12.304688 4.804688 -11.894531 5.265625 -11.625 C 5.722656 -11.363281 6.3125 -11.148438 7.03125 -10.984375 C 7.757812 -10.828125 8.523438 -10.644531 9.328125 -10.4375 C 10.128906 -10.238281 10.890625 -9.941406 11.609375 -9.546875 C 12.335938 -9.160156 12.929688 -8.609375 13.390625 -7.890625 C 13.847656 -7.171875 14.078125 -6.203125 14.078125 -4.984375 C 14.078125 -3.191406 13.453125 -1.882812 12.203125 -1.0625 C 10.960938 -0.25 9.113281 0.15625 6.65625 0.15625 Z M 6.65625 0.15625 "/></g></g></g><g fill="#ffffff" fill-opacity="1"><g transform="translate(15.80913, 22.029022)"><g><path d="M 2.078125 0 C 1.867188 0 1.695312 -0.0625 1.5625 -0.1875 C 1.4375 -0.320312 1.375 -0.492188 1.375 -0.703125 L 1.375 -16.640625 C 1.375 -16.835938 1.4375 -17.003906 1.5625 -17.140625 C 1.695312 -17.273438 1.867188 -17.34375 2.078125 -17.34375 L 4.328125 -17.34375 C 4.535156 -17.34375 4.703125 -17.273438 4.828125 -17.140625 C 4.960938 -17.003906 5.03125 -16.835938 5.03125 -16.640625 L 5.03125 -0.703125 C 5.03125 -0.492188 4.960938 -0.320312 4.828125 -0.1875 C 4.703125 -0.0625 4.535156 0 4.328125 0 Z M 2.078125 0 "/></g></g></g><g fill="#ffffff" fill-opacity="1"><g transform="translate(22.220589, 22.029022)"><g><path d="M 2.078125 0 C 1.867188 0 1.695312 -0.0625 1.5625 -0.1875 C 1.4375 -0.320312 1.375 -0.492188 1.375 -0.703125 L 1.375 -16.640625 C 1.375 -16.835938 1.4375 -17.003906 1.5625 -17.140625 C 1.695312 -17.273438 1.867188 -17.34375 2.078125 -17.34375 L 4.578125 -17.34375 C 4.742188 -17.34375 4.910156 -17.296875 5.078125 -17.203125 C 5.253906 -17.109375 5.40625 -16.953125 5.53125 -16.734375 L 11.328125 -7.203125 L 11.328125 -16.640625 C 11.328125 -16.835938 11.390625 -17.003906 11.515625 -17.140625 C 11.648438 -17.273438 11.820312 -17.34375 12.03125 -17.34375 L 14.28125 -17.34375 C 14.488281 -17.34375 14.65625 -17.273438 14.78125 -17.140625 C 14.914062 -17.003906 14.984375 -16.835938 14.984375 -16.640625 L 14.984375 -0.703125 C 14.984375 -0.492188 14.914062 -0.320312 14.78125 -0.1875 C 14.65625 -0.0625 14.488281 0 14.28125 0 L 12.03125 0 C 11.644531 0 11.335938 -0.203125 11.109375 -0.609375 L 5.03125 -10.59375 L 5.03125 -0.703125 C 5.03125 -0.492188 4.960938 -0.320312 4.828125 -0.1875 C 4.703125 -0.0625 4.535156 0 4.328125 0 Z M 2.078125 0 "/></g></g></g><g fill="#ffffff" fill-opacity="1"><g transform="translate(38.585065, 22.029022)"><g><path d="M 8.703125 0.15625 C 7.679688 0.15625 6.703125 0.00390625 5.765625 -0.296875 C 4.828125 -0.609375 3.992188 -1.097656 3.265625 -1.765625 C 2.535156 -2.441406 1.960938 -3.332031 1.546875 -4.4375 C 1.128906 -5.550781 0.921875 -6.921875 0.921875 -8.546875 C 0.921875 -10.359375 1.128906 -11.84375 1.546875 -13 C 1.960938 -14.164062 2.535156 -15.066406 3.265625 -15.703125 C 3.992188 -16.347656 4.828125 -16.800781 5.765625 -17.0625 C 6.703125 -17.332031 7.679688 -17.46875 8.703125 -17.46875 C 9.367188 -17.46875 10.070312 -17.382812 10.8125 -17.21875 C 11.5625 -17.050781 12.269531 -16.71875 12.9375 -16.21875 C 13.082031 -16.113281 13.203125 -15.992188 13.296875 -15.859375 C 13.390625 -15.722656 13.4375 -15.585938 13.4375 -15.453125 C 13.4375 -15.429688 13.40625 -15.34375 13.34375 -15.1875 C 13.28125 -15.03125 13.078125 -14.597656 12.734375 -13.890625 C 12.648438 -13.628906 12.4375 -13.5 12.09375 -13.5 C 11.96875 -13.5 11.832031 -13.535156 11.6875 -13.609375 C 11.144531 -13.878906 10.644531 -14.046875 10.1875 -14.109375 C 9.726562 -14.171875 9.320312 -14.203125 8.96875 -14.203125 C 8.625 -14.203125 8.203125 -14.15625 7.703125 -14.0625 C 7.210938 -13.96875 6.726562 -13.75 6.25 -13.40625 C 5.769531 -13.0625 5.367188 -12.503906 5.046875 -11.734375 C 4.734375 -10.972656 4.578125 -9.910156 4.578125 -8.546875 C 4.578125 -7.429688 4.734375 -6.519531 5.046875 -5.8125 C 5.367188 -5.113281 5.769531 -4.566406 6.25 -4.171875 C 6.726562 -3.773438 7.210938 -3.5 7.703125 -3.34375 C 8.203125 -3.1875 8.625 -3.109375 8.96875 -3.109375 C 9.34375 -3.109375 9.742188 -3.132812 10.171875 -3.1875 C 10.597656 -3.238281 11.101562 -3.414062 11.6875 -3.71875 C 11.832031 -3.800781 11.96875 -3.84375 12.09375 -3.84375 C 12.4375 -3.84375 12.648438 -3.710938 12.734375 -3.453125 C 13.078125 -2.753906 13.28125 -2.328125 13.34375 -2.171875 C 13.40625 -2.023438 13.4375 -1.929688 13.4375 -1.890625 C 13.4375 -1.742188 13.390625 -1.601562 13.296875 -1.46875 C 13.203125 -1.34375 13.082031 -1.226562 12.9375 -1.125 C 12.269531 -0.59375 11.566406 -0.242188 10.828125 -0.078125 C 10.097656 0.078125 9.390625 0.15625 8.703125 0.15625 Z M 8.703125 0.15625 "/></g></g></g><g fill="#ffffff" fill-opacity="1"><g transform="translate(52.629206, 22.029022)"><g><path d="M 2.078125 0 C 1.867188 0 1.695312 -0.0625 1.5625 -0.1875 C 1.4375 -0.320312 1.375 -0.492188 1.375 -0.703125 L 1.375 -16.640625 C 1.375 -16.835938 1.4375 -17.003906 1.5625 -17.140625 C 1.695312 -17.273438 1.867188 -17.34375 2.078125 -17.34375 L 4.328125 -17.34375 C 4.535156 -17.34375 4.703125 -17.273438 4.828125 -17.140625 C 4.960938 -17.003906 5.03125 -16.835938 5.03125 -16.640625 L 5.03125 -3.296875 L 11.65625 -3.296875 C 11.863281 -3.296875 12.03125 -3.226562 12.15625 -3.09375 C 12.289062 -2.96875 12.359375 -2.800781 12.359375 -2.59375 L 12.359375 -0.703125 C 12.359375 -0.492188 12.289062 -0.320312 12.15625 -0.1875 C 12.03125 -0.0625 11.863281 0 11.65625 0 Z M 2.078125 0 "/></g></g></g><g clip-path="url(#dd50311de6)"><g fill="#ffffff" fill-opacity="1"><g transform="translate(65.452116, 22.029022)"><g><path d="M 13.859375 0.15625 C 13.191406 0.15625 12.6875 -0.0195312 12.34375 -0.375 C 12.007812 -0.738281 11.769531 -1.148438 11.625 -1.609375 C 11.488281 -2.066406 11.347656 -2.457031 11.203125 -2.78125 L 10.71875 -3.90625 L 5.28125 -3.90625 L 4.21875 -0.734375 C 4.09375 -0.242188 3.828125 0 3.421875 0 L 1 0 C 0.800781 0 0.632812 -0.0625 0.5 -0.1875 C 0.375 -0.320312 0.3125 -0.492188 0.3125 -0.703125 L 5.765625 -16.640625 C 5.929688 -17.109375 6.21875 -17.34375 6.625 -17.34375 L 9.375 -17.34375 C 9.78125 -17.34375 10.066406 -17.109375 10.234375 -16.640625 L 14.75 -3.71875 C 14.96875 -3.09375 15.191406 -2.707031 15.421875 -2.5625 C 15.660156 -2.414062 15.78125 -2.203125 15.78125 -1.921875 L 15.78125 -0.859375 C 15.78125 -0.472656 15.5625 -0.207031 15.125 -0.0625 C 14.6875 0.0820312 14.265625 0.15625 13.859375 0.15625 Z M 6.375 -7.203125 L 9.640625 -7.203125 L 8 -12.21875 Z M 6.375 -7.203125 "/></g></g></g></g></g></g><g fill="#2bd903" fill-opacity="1"><g transform="translate(72.20174, 49.812325)"><g><path d="M 1.890625 0 C 1.703125 0 1.546875 -0.0546875 1.421875 -0.171875 C 1.304688 -0.296875 1.25 -0.453125 1.25 -0.640625 L 1.25 -15.171875 C 1.25 -15.347656 1.304688 -15.5 1.421875 -15.625 C 1.546875 -15.75 1.703125 -15.8125 1.890625 -15.8125 L 3.953125 -15.8125 C 4.140625 -15.8125 4.289062 -15.75 4.40625 -15.625 C 4.53125 -15.5 4.59375 -15.347656 4.59375 -15.171875 L 4.59375 -0.640625 C 4.59375 -0.453125 4.53125 -0.296875 4.40625 -0.171875 C 4.289062 -0.0546875 4.140625 0 3.953125 0 Z M 1.890625 0 "/></g></g></g><g fill="#2bd903" fill-opacity="1"><g transform="translate(78.044381, 49.812325)"><g><path d="M 1.890625 0 C 1.703125 0 1.546875 -0.0546875 1.421875 -0.171875 C 1.304688 -0.296875 1.25 -0.453125 1.25 -0.640625 L 1.25 -10.125 C 1.25 -10.476562 1.398438 -10.710938 1.703125 -10.828125 C 2.347656 -11.023438 3.0625 -11.175781 3.84375 -11.28125 C 4.632812 -11.382812 5.347656 -11.4375 5.984375 -11.4375 C 7.859375 -11.4375 9.179688 -11.003906 9.953125 -10.140625 C 10.734375 -9.273438 11.125 -7.914062 11.125 -6.0625 L 11.125 -0.640625 C 11.125 -0.453125 11.0625 -0.296875 10.9375 -0.171875 C 10.820312 -0.0546875 10.671875 0 10.484375 0 L 8.4375 0 C 8.25 0 8.09375 -0.0546875 7.96875 -0.171875 C 7.851562 -0.296875 7.796875 -0.453125 7.796875 -0.640625 L 7.796875 -6.0625 C 7.796875 -6.726562 7.757812 -7.234375 7.6875 -7.578125 C 7.625 -7.921875 7.472656 -8.148438 7.234375 -8.265625 C 6.992188 -8.390625 6.601562 -8.453125 6.0625 -8.453125 C 5.9375 -8.453125 5.707031 -8.4375 5.375 -8.40625 C 5.039062 -8.382812 4.78125 -8.3125 4.59375 -8.1875 L 4.59375 -0.640625 C 4.59375 -0.453125 4.53125 -0.296875 4.40625 -0.171875 C 4.289062 -0.0546875 4.140625 0 3.953125 0 Z M 1.890625 0 "/></g></g></g><g fill="#2bd903" fill-opacity="1"><g transform="translate(90.147, 49.812325)"><g><path d="M 6.84375 0.140625 C 5.625 0.140625 4.675781 -0.109375 4 -0.609375 C 3.332031 -1.109375 2.875 -1.804688 2.625 -2.703125 C 2.375 -3.609375 2.25 -4.675781 2.25 -5.90625 L 2.25 -8.296875 L 0.921875 -8.296875 C 0.734375 -8.296875 0.578125 -8.351562 0.453125 -8.46875 C 0.335938 -8.59375 0.28125 -8.75 0.28125 -8.9375 L 0.28125 -10.625 C 0.28125 -10.8125 0.335938 -10.960938 0.453125 -11.078125 C 0.578125 -11.203125 0.734375 -11.265625 0.921875 -11.265625 L 2.25 -11.265625 L 2.75 -15.171875 C 2.789062 -15.347656 2.859375 -15.5 2.953125 -15.625 C 3.054688 -15.75 3.203125 -15.8125 3.390625 -15.8125 L 4.953125 -15.8125 C 5.140625 -15.8125 5.289062 -15.75 5.40625 -15.625 C 5.53125 -15.5 5.59375 -15.347656 5.59375 -15.171875 L 5.59375 -11.265625 L 8.234375 -11.265625 C 8.421875 -11.265625 8.570312 -11.203125 8.6875 -11.078125 C 8.8125 -10.960938 8.875 -10.8125 8.875 -10.625 L 8.875 -8.9375 C 8.875 -8.75 8.8125 -8.59375 8.6875 -8.46875 C 8.570312 -8.351562 8.421875 -8.296875 8.234375 -8.296875 L 5.59375 -8.296875 L 5.59375 -5.375 C 5.59375 -5.09375 5.613281 -4.765625 5.65625 -4.390625 C 5.707031 -4.023438 5.851562 -3.695312 6.09375 -3.40625 C 6.332031 -3.125 6.722656 -2.984375 7.265625 -2.984375 C 7.460938 -2.984375 7.65625 -3.007812 7.84375 -3.0625 C 8.03125 -3.113281 8.226562 -3.140625 8.4375 -3.140625 C 8.75 -3.140625 8.953125 -2.984375 9.046875 -2.671875 L 9.484375 -1.03125 C 9.484375 -0.84375 9.457031 -0.679688 9.40625 -0.546875 C 9.363281 -0.421875 9.242188 -0.3125 9.046875 -0.21875 C 8.671875 -0.0703125 8.285156 0.0195312 7.890625 0.0625 C 7.503906 0.113281 7.15625 0.140625 6.84375 0.140625 Z M 6.84375 0.140625 "/></g></g></g><g fill="#2bd903" fill-opacity="1"><g transform="translate(99.912558, 49.812325)"><g><path d="M 1.890625 0 C 1.703125 0 1.546875 -0.0546875 1.421875 -0.171875 C 1.304688 -0.296875 1.25 -0.453125 1.25 -0.640625 L 1.25 -9.625 C 1.25 -9.769531 1.296875 -9.898438 1.390625 -10.015625 C 1.484375 -10.128906 1.585938 -10.234375 1.703125 -10.328125 C 2.296875 -10.804688 2.988281 -11.109375 3.78125 -11.234375 C 4.582031 -11.367188 5.316406 -11.4375 5.984375 -11.4375 C 6.484375 -11.4375 7 -11.378906 7.53125 -11.265625 C 8.070312 -11.160156 8.554688 -10.929688 8.984375 -10.578125 C 9.222656 -10.390625 9.34375 -10.164062 9.34375 -9.90625 C 9.34375 -9.882812 9.335938 -9.847656 9.328125 -9.796875 C 9.328125 -9.753906 9.316406 -9.707031 9.296875 -9.65625 L 8.734375 -8.296875 C 8.609375 -8.015625 8.40625 -7.875 8.125 -7.875 C 8.101562 -7.875 8.066406 -7.878906 8.015625 -7.890625 C 7.972656 -7.898438 7.925781 -7.914062 7.875 -7.9375 C 7.5625 -8.101562 7.242188 -8.226562 6.921875 -8.3125 C 6.609375 -8.394531 6.332031 -8.4375 6.09375 -8.4375 C 5.96875 -8.4375 5.785156 -8.410156 5.546875 -8.359375 C 5.316406 -8.316406 5.109375 -8.238281 4.921875 -8.125 C 4.734375 -8.007812 4.625 -7.863281 4.59375 -7.6875 L 4.59375 -0.640625 C 4.59375 -0.453125 4.53125 -0.296875 4.40625 -0.171875 C 4.289062 -0.0546875 4.140625 0 3.953125 0 Z M 1.890625 0 "/></g></g></g><g fill="#2bd903" fill-opacity="1"><g transform="translate(108.98246, 49.812325)"><g><path d="M 4.53125 0.140625 C 3.53125 0.140625 2.742188 -0.113281 2.171875 -0.625 C 1.597656 -1.132812 1.1875 -1.800781 0.9375 -2.625 C 0.6875 -3.457031 0.5625 -4.351562 0.5625 -5.3125 C 0.5625 -6.519531 0.785156 -7.582031 1.234375 -8.5 C 1.691406 -9.414062 2.351562 -10.132812 3.21875 -10.65625 C 4.09375 -11.175781 5.144531 -11.4375 6.375 -11.4375 C 6.96875 -11.4375 7.566406 -11.382812 8.171875 -11.28125 C 8.773438 -11.175781 9.425781 -11.003906 10.125 -10.765625 C 10.425781 -10.660156 10.578125 -10.429688 10.578125 -10.078125 L 10.578125 -0.640625 C 10.578125 -0.453125 10.515625 -0.296875 10.390625 -0.171875 C 10.273438 -0.0546875 10.125 0 9.9375 0 L 8.484375 0 C 8.171875 0 7.90625 -0.140625 7.6875 -0.421875 L 7.234375 -0.921875 C 6.609375 -0.398438 6.0625 -0.09375 5.59375 0 C 5.125 0.09375 4.769531 0.140625 4.53125 0.140625 Z M 5.78125 -2.84375 C 5.988281 -2.84375 6.1875 -2.878906 6.375 -2.953125 C 6.5625 -3.023438 6.71875 -3.109375 6.84375 -3.203125 C 6.976562 -3.273438 7.109375 -3.394531 7.234375 -3.5625 L 7.234375 -8.4375 C 6.378906 -8.4375 5.726562 -8.289062 5.28125 -8 C 4.84375 -7.707031 4.539062 -7.320312 4.375 -6.84375 C 4.207031 -6.363281 4.125 -5.84375 4.125 -5.28125 C 4.125 -4.257812 4.28125 -3.597656 4.59375 -3.296875 C 4.90625 -2.992188 5.300781 -2.84375 5.78125 -2.84375 Z M 5.78125 -2.84375 "/></g></g></g><g fill="#2bd903" fill-opacity="1"><g transform="translate(120.806862, 49.812325)"><g><path d="M 1.890625 0 C 1.703125 0 1.546875 -0.0546875 1.421875 -0.171875 C 1.304688 -0.296875 1.25 -0.453125 1.25 -0.640625 L 1.25 -10.125 C 1.25 -10.476562 1.398438 -10.710938 1.703125 -10.828125 C 2.347656 -11.023438 3.0625 -11.175781 3.84375 -11.28125 C 4.632812 -11.382812 5.347656 -11.4375 5.984375 -11.4375 C 7.859375 -11.4375 9.179688 -11.003906 9.953125 -10.140625 C 10.734375 -9.273438 11.125 -7.914062 11.125 -6.0625 L 11.125 -0.640625 C 11.125 -0.453125 11.0625 -0.296875 10.9375 -0.171875 C 10.820312 -0.0546875 10.671875 0 10.484375 0 L 8.4375 0 C 8.25 0 8.09375 -0.0546875 7.96875 -0.171875 C 7.851562 -0.296875 7.796875 -0.453125 7.796875 -0.640625 L 7.796875 -6.0625 C 7.796875 -6.726562 7.757812 -7.234375 7.6875 -7.578125 C 7.625 -7.921875 7.472656 -8.148438 7.234375 -8.265625 C 6.992188 -8.390625 6.601562 -8.453125 6.0625 -8.453125 C 5.9375 -8.453125 5.707031 -8.4375 5.375 -8.40625 C 5.039062 -8.382812 4.78125 -8.3125 4.59375 -8.1875 L 4.59375 -0.640625 C 4.59375 -0.453125 4.53125 -0.296875 4.40625 -0.171875 C 4.289062 -0.0546875 4.140625 0 3.953125 0 Z M 1.890625 0 "/></g></g></g><g fill="#2bd903" fill-opacity="1"><g transform="translate(132.909481, 49.812325)"><g><path d="M 6.15625 0.140625 C 4.28125 0.140625 2.921875 -0.378906 2.078125 -1.421875 C 1.242188 -2.472656 0.828125 -3.921875 0.828125 -5.765625 C 0.828125 -7.472656 1.25 -8.84375 2.09375 -9.875 C 2.945312 -10.914062 4.300781 -11.4375 6.15625 -11.4375 C 7.65625 -11.4375 8.8125 -11.101562 9.625 -10.4375 C 10.445312 -9.769531 10.859375 -8.925781 10.859375 -7.90625 C 10.859375 -6.601562 10.476562 -5.625 9.71875 -4.96875 C 8.96875 -4.320312 7.960938 -4 6.703125 -4 C 5.867188 -4 5.050781 -4.125 4.25 -4.375 C 4.25 -3.976562 4.398438 -3.625 4.703125 -3.3125 C 5.015625 -3 5.5 -2.84375 6.15625 -2.84375 C 6.488281 -2.84375 6.953125 -2.863281 7.546875 -2.90625 C 8.140625 -2.957031 8.695312 -3.113281 9.21875 -3.375 C 9.320312 -3.425781 9.441406 -3.453125 9.578125 -3.453125 C 9.890625 -3.453125 10.082031 -3.332031 10.15625 -3.09375 L 10.734375 -1.890625 L 10.796875 -1.671875 C 10.796875 -1.535156 10.753906 -1.40625 10.671875 -1.28125 C 10.585938 -1.164062 10.484375 -1.0625 10.359375 -0.96875 C 9.722656 -0.414062 9.019531 -0.09375 8.25 0 C 7.476562 0.09375 6.78125 0.140625 6.15625 0.140625 Z M 5.90625 -6.59375 C 6.976562 -6.59375 7.515625 -6.878906 7.515625 -7.453125 C 7.515625 -7.859375 7.378906 -8.125 7.109375 -8.25 C 6.835938 -8.375 6.519531 -8.4375 6.15625 -8.4375 C 5.664062 -8.4375 5.25 -8.332031 4.90625 -8.125 C 4.5625 -7.914062 4.335938 -7.5625 4.234375 -7.0625 C 4.429688 -6.882812 4.703125 -6.757812 5.046875 -6.6875 C 5.390625 -6.625 5.675781 -6.59375 5.90625 -6.59375 Z M 5.90625 -6.59375 "/></g></g></g><g fill="#2bd903" fill-opacity="1"><g transform="translate(144.650413, 49.812325)"><g><path d="M 6.84375 0.140625 C 5.625 0.140625 4.675781 -0.109375 4 -0.609375 C 3.332031 -1.109375 2.875 -1.804688 2.625 -2.703125 C 2.375 -3.609375 2.25 -4.675781 2.25 -5.90625 L 2.25 -8.296875 L 0.921875 -8.296875 C 0.734375 -8.296875 0.578125 -8.351562 0.453125 -8.46875 C 0.335938 -8.59375 0.28125 -8.75 0.28125 -8.9375 L 0.28125 -10.625 C 0.28125 -10.8125 0.335938 -10.960938 0.453125 -11.078125 C 0.578125 -11.203125 0.734375 -11.265625 0.921875 -11.265625 L 2.25 -11.265625 L 2.75 -15.171875 C 2.789062 -15.347656 2.859375 -15.5 2.953125 -15.625 C 3.054688 -15.75 3.203125 -15.8125 3.390625 -15.8125 L 4.953125 -15.8125 C 5.140625 -15.8125 5.289062 -15.75 5.40625 -15.625 C 5.53125 -15.5 5.59375 -15.347656 5.59375 -15.171875 L 5.59375 -11.265625 L 8.234375 -11.265625 C 8.421875 -11.265625 8.570312 -11.203125 8.6875 -11.078125 C 8.8125 -10.960938 8.875 -10.8125 8.875 -10.625 L 8.875 -8.9375 C 8.875 -8.75 8.8125 -8.59375 8.6875 -8.46875 C 8.570312 -8.351562 8.421875 -8.296875 8.234375 -8.296875 L 5.59375 -8.296875 L 5.59375 -5.375 C 5.59375 -5.09375 5.613281 -4.765625 5.65625 -4.390625 C 5.707031 -4.023438 5.851562 -3.695312 6.09375 -3.40625 C 6.332031 -3.125 6.722656 -2.984375 7.265625 -2.984375 C 7.460938 -2.984375 7.65625 -3.007812 7.84375 -3.0625 C 8.03125 -3.113281 8.226562 -3.140625 8.4375 -3.140625 C 8.75 -3.140625 8.953125 -2.984375 9.046875 -2.671875 L 9.484375 -1.03125 C 9.484375 -0.84375 9.457031 -0.679688 9.40625 -0.546875 C 9.363281 -0.421875 9.242188 -0.3125 9.046875 -0.21875 C 8.671875 -0.0703125 8.285156 0.0195312 7.890625 0.0625 C 7.503906 0.113281 7.15625 0.140625 6.84375 0.140625 Z M 6.84375 0.140625 "/></g></g></g></svg>