<svg xmlns="http://www.w3.org/2000/svg" xmlns:xlink="http://www.w3.org/1999/xlink" width="205" zoomAndPan="magnify" viewBox="0 0 153.75 68.999997" height="92" preserveAspectRatio="xMidYMid meet" version="1.0"><defs><g/><clipPath id="d831a6dbe6"><path d="M 0 10.007812 L 52.414062 10.007812 L 52.414062 42.957031 L 0 42.957031 Z M 0 10.007812 " clip-rule="nonzero"/></clipPath><clipPath id="2539596d7f"><path d="M 0 0.0078125 L 52.179688 0.0078125 L 52.179688 32.707031 L 0 32.707031 Z M 0 0.0078125 " clip-rule="nonzero"/></clipPath><clipPath id="a4a46f8fb0"><rect x="0" width="53" y="0" height="33"/></clipPath><clipPath id="f0aec2555f"><path d="M 8.140625 31.863281 L 29.855469 31.863281 L 29.855469 53.535156 L 8.140625 53.535156 Z M 8.140625 31.863281 " clip-rule="nonzero"/></clipPath><clipPath id="1187628ea8"><path d="M 10.78125 35.660156 L 27.253906 35.660156 L 27.253906 49.886719 L 10.78125 49.886719 Z M 10.78125 35.660156 " clip-rule="nonzero"/></clipPath><clipPath id="2792962358"><path d="M 5 3 L 17.195312 3 L 17.195312 14.886719 L 5 14.886719 Z M 5 3 " clip-rule="nonzero"/></clipPath><clipPath id="d24771f3ac"><path d="M 0.78125 0.660156 L 13 0.660156 L 13 12 L 0.78125 12 Z M 0.78125 0.660156 " clip-rule="nonzero"/></clipPath><clipPath id="9ef6bc674a"><rect x="0" width="18" y="0" height="15"/></clipPath><clipPath id="481446422e"><path d="M 26.503906 16 L 39.234375 16 L 39.234375 31.703125 L 26.503906 31.703125 Z M 26.503906 16 " clip-rule="nonzero"/></clipPath><clipPath id="52747d56d0"><path d="M 65 4 L 81.890625 4 L 81.890625 23 L 65 23 Z M 65 4 " clip-rule="nonzero"/></clipPath><clipPath id="a7be98b4ce"><rect x="0" width="82" y="0" height="35"/></clipPath><clipPath id="125b2f3641"><rect x="0" width="57" y="0" height="30"/></clipPath></defs><g clip-path="url(#d831a6dbe6)"><g transform="matrix(1, 0, 0, 1, 0, 10)"><g clip-path="url(#a4a46f8fb0)"><g clip-path="url(#2539596d7f)"><path fill="#00aeef" d="M 9.667969 13.53125 L 10.441406 13.53125 C 11.207031 10.304688 14.117188 7.886719 17.59375 7.886719 C 18.441406 7.886719 19.296875 8.074219 20.003906 8.308594 C 21.707031 3.480469 26.3125 0.0117188 31.75 0.0117188 C 38.628906 0.0117188 44.203125 5.5625 44.203125 12.40625 C 44.203125 12.835938 44.179688 13.261719 44.140625 13.683594 C 48.660156 14.460938 52.128906 18.398438 52.128906 23.109375 C 52.128906 28.375 47.800781 32.6875 42.507812 32.6875 L 9.671875 32.6875 C 4.378906 32.6875 0.0507812 28.378906 0.0507812 23.109375 C 0.046875 17.84375 4.375 13.53125 9.667969 13.53125 Z M 9.667969 13.53125 " fill-opacity="1" fill-rule="nonzero"/></g></g></g></g><g clip-path="url(#f0aec2555f)"><path fill="#e9f9ff" d="M 29.808594 42.699219 C 29.808594 48.683594 24.957031 53.535156 18.976562 53.535156 C 12.992188 53.535156 8.140625 48.683594 8.140625 42.699219 C 8.140625 36.714844 12.992188 31.863281 18.976562 31.863281 C 24.957031 31.863281 29.808594 36.714844 29.808594 42.699219 Z M 29.808594 42.699219 " fill-opacity="1" fill-rule="nonzero"/></g><g clip-path="url(#1187628ea8)"><g transform="matrix(1, 0, 0, 1, 10, 35)"><g clip-path="url(#9ef6bc674a)"><g clip-path="url(#2792962358)"><path fill="#00aeef" d="M 14.097656 3.65625 L 17.175781 7.082031 L 15.980469 6.988281 C 15.980469 6.988281 16.109375 8.972656 15.199219 10.65625 C 14.289062 12.339844 13.414062 12.871094 12.957031 13.25 C 12.5 13.632812 11 14.527344 8.773438 14.621094 C 6.542969 14.714844 5.253906 13.824219 5.253906 13.824219 L 6 12.371094 C 6 12.371094 7.71875 13.308594 9.519531 12.972656 C 11.316406 12.636719 11.773438 12.082031 12.328125 11.726562 C 12.886719 11.367188 14.304688 9.574219 14.398438 7.699219 L 13.824219 8.222656 Z M 14.097656 3.65625 " fill-opacity="1" fill-rule="nonzero"/></g><g clip-path="url(#d24771f3ac)"><path fill="#00aeef" d="M 3.878906 11.726562 L 0.796875 8.300781 L 1.992188 8.394531 C 1.992188 8.394531 1.863281 6.410156 2.773438 4.722656 C 3.683594 3.039062 4.550781 2.503906 5.011719 2.125 C 5.46875 1.742188 6.964844 0.847656 9.195312 0.753906 C 11.421875 0.660156 12.71875 1.550781 12.71875 1.550781 L 11.976562 3.011719 C 11.976562 3.011719 10.253906 2.074219 8.457031 2.410156 C 6.660156 2.746094 6.199219 3.292969 5.648438 3.65625 C 5.089844 4.015625 3.671875 5.804688 3.578125 7.683594 L 4.152344 7.160156 Z M 3.878906 11.726562 " fill-opacity="1" fill-rule="nonzero"/></g></g></g></g><g clip-path="url(#481446422e)"><path fill="#e9f9ff" d="M 39.476562 20.726562 L 39.476562 21.449219 C 39.476562 21.554688 39.394531 21.636719 39.289062 21.636719 L 26.699219 21.636719 C 26.597656 21.636719 26.511719 21.554688 26.511719 21.449219 L 26.511719 20.726562 C 26.515625 20.621094 26.597656 20.539062 26.699219 20.539062 L 39.289062 20.539062 C 39.394531 20.539062 39.476562 20.621094 39.476562 20.726562 Z M 32.007812 20.039062 C 31.960938 19.929688 31.941406 19.816406 31.941406 19.703125 C 31.941406 19.5625 32.050781 19.453125 32.1875 19.453125 C 32.328125 19.453125 32.4375 19.5625 32.4375 19.703125 C 32.441406 19.835938 32.507812 19.960938 32.613281 20.039062 L 33.375 20.039062 C 33.484375 19.960938 33.546875 19.835938 33.550781 19.703125 C 33.550781 19.390625 33.394531 19.328125 32.945312 19.234375 C 32.542969 19.148438 31.941406 19.023438 31.941406 18.277344 C 31.941406 17.824219 32.285156 17.445312 32.746094 17.34375 L 32.746094 17.128906 C 32.746094 16.988281 32.859375 16.878906 32.996094 16.878906 C 33.132812 16.878906 33.246094 16.988281 33.246094 17.128906 L 33.246094 17.34375 C 33.707031 17.445312 34.050781 17.824219 34.050781 18.277344 C 34.050781 18.414062 33.941406 18.527344 33.800781 18.527344 C 33.664062 18.527344 33.550781 18.414062 33.550781 18.277344 C 33.550781 18.023438 33.300781 17.816406 32.996094 17.816406 C 32.6875 17.816406 32.4375 18.023438 32.4375 18.277344 C 32.4375 18.589844 32.597656 18.652344 33.046875 18.746094 C 33.449219 18.828125 34.050781 18.957031 34.050781 19.703125 C 34.050781 19.816406 34.027344 19.929688 33.984375 20.039062 L 35.425781 20.039062 C 36.007812 18.695312 35.386719 17.136719 34.042969 16.558594 C 32.699219 15.980469 31.144531 16.597656 30.5625 17.941406 C 30.277344 18.613281 30.277344 19.371094 30.5625 20.039062 Z M 31.589844 26.855469 L 33.398438 26.855469 C 33.535156 26.855469 33.648438 26.964844 33.648438 27.105469 C 33.648438 27.242188 33.535156 27.355469 33.398438 27.355469 L 31.730469 27.355469 L 31.730469 30.375 C 31.730469 30.394531 31.738281 30.414062 31.757812 30.421875 L 34.179688 31.820312 C 34.195312 31.832031 34.21875 31.832031 34.234375 31.820312 C 34.25 31.8125 34.261719 31.792969 34.261719 31.773438 L 34.261719 27.105469 C 34.261719 27.042969 34.285156 26.980469 34.324219 26.933594 L 38.722656 22.136719 L 27.269531 22.136719 Z M 31.589844 26.855469 " fill-opacity="1" fill-rule="evenodd"/></g><g transform="matrix(1, 0, 0, 1, 59, 11)"><g clip-path="url(#a7be98b4ce)"><g fill="#ffffff" fill-opacity="1"><g transform="translate(1.032502, 22.017861)"><g><path d="M 6.671875 0.15625 C 6.046875 0.15625 5.273438 0.0664062 4.359375 -0.109375 C 3.453125 -0.296875 2.640625 -0.554688 1.921875 -0.890625 C 1.804688 -0.953125 1.675781 -1.054688 1.53125 -1.203125 C 1.382812 -1.359375 1.3125 -1.53125 1.3125 -1.71875 C 1.3125 -1.84375 1.320312 -1.910156 1.34375 -1.921875 L 2.015625 -3.515625 C 2.140625 -3.847656 2.382812 -4.015625 2.75 -4.015625 C 2.894531 -4.015625 2.988281 -4.003906 3.03125 -3.984375 C 3.6875 -3.734375 4.410156 -3.523438 5.203125 -3.359375 C 6.003906 -3.203125 6.617188 -3.125 7.046875 -3.125 C 7.242188 -3.125 7.523438 -3.144531 7.890625 -3.1875 C 8.265625 -3.226562 8.644531 -3.316406 9.03125 -3.453125 C 9.414062 -3.597656 9.738281 -3.800781 10 -4.0625 C 10.269531 -4.332031 10.40625 -4.679688 10.40625 -5.109375 C 10.40625 -5.660156 10.175781 -6.09375 9.71875 -6.40625 C 9.257812 -6.726562 8.671875 -6.988281 7.953125 -7.1875 C 7.242188 -7.394531 6.476562 -7.601562 5.65625 -7.8125 C 4.84375 -8.03125 4.078125 -8.3125 3.359375 -8.65625 C 2.648438 -9.007812 2.066406 -9.476562 1.609375 -10.0625 C 1.148438 -10.644531 0.921875 -11.414062 0.921875 -12.375 C 0.921875 -13.332031 1.101562 -14.195312 1.46875 -14.96875 C 1.832031 -15.75 2.503906 -16.367188 3.484375 -16.828125 C 4.472656 -17.285156 5.882812 -17.515625 7.71875 -17.515625 C 8.0625 -17.515625 8.640625 -17.441406 9.453125 -17.296875 C 10.273438 -17.160156 11.066406 -17.007812 11.828125 -16.84375 C 12.003906 -16.800781 12.175781 -16.71875 12.34375 -16.59375 C 12.507812 -16.476562 12.59375 -16.328125 12.59375 -16.140625 C 12.59375 -16.035156 12.582031 -15.859375 12.5625 -15.609375 C 12.539062 -15.367188 12.507812 -14.984375 12.46875 -14.453125 C 12.425781 -14.171875 12.320312 -13.992188 12.15625 -13.921875 C 11.988281 -13.847656 11.796875 -13.8125 11.578125 -13.8125 C 11.171875 -13.875 10.710938 -13.9375 10.203125 -14 C 9.691406 -14.0625 9.21875 -14.113281 8.78125 -14.15625 C 8.351562 -14.207031 8.070312 -14.234375 7.9375 -14.234375 C 6.832031 -14.234375 6 -14.160156 5.4375 -14.015625 C 4.875 -13.878906 4.59375 -13.503906 4.59375 -12.890625 C 4.59375 -12.335938 4.820312 -11.925781 5.28125 -11.65625 C 5.738281 -11.394531 6.328125 -11.179688 7.046875 -11.015625 C 7.773438 -10.859375 8.539062 -10.675781 9.34375 -10.46875 C 10.15625 -10.269531 10.921875 -9.972656 11.640625 -9.578125 C 12.367188 -9.191406 12.960938 -8.632812 13.421875 -7.90625 C 13.890625 -7.1875 14.125 -6.210938 14.125 -4.984375 C 14.125 -3.191406 13.5 -1.882812 12.25 -1.0625 C 11 -0.25 9.140625 0.15625 6.671875 0.15625 Z M 6.671875 0.15625 "/></g></g></g><g fill="#ffffff" fill-opacity="1"><g transform="translate(15.760897, 22.017861)"><g><path d="M 2.078125 0 C 1.878906 0 1.710938 -0.0625 1.578125 -0.1875 C 1.441406 -0.320312 1.375 -0.492188 1.375 -0.703125 L 1.375 -16.6875 C 1.375 -16.894531 1.441406 -17.0625 1.578125 -17.1875 C 1.710938 -17.320312 1.878906 -17.390625 2.078125 -17.390625 L 4.34375 -17.390625 C 4.550781 -17.390625 4.71875 -17.320312 4.84375 -17.1875 C 4.976562 -17.0625 5.046875 -16.894531 5.046875 -16.6875 L 5.046875 -0.703125 C 5.046875 -0.492188 4.976562 -0.320312 4.84375 -0.1875 C 4.71875 -0.0625 4.550781 0 4.34375 0 Z M 2.078125 0 "/></g></g></g><g fill="#ffffff" fill-opacity="1"><g transform="translate(22.191176, 22.017861)"><g><path d="M 2.078125 0 C 1.878906 0 1.710938 -0.0625 1.578125 -0.1875 C 1.441406 -0.320312 1.375 -0.492188 1.375 -0.703125 L 1.375 -16.6875 C 1.375 -16.894531 1.441406 -17.0625 1.578125 -17.1875 C 1.710938 -17.320312 1.878906 -17.390625 2.078125 -17.390625 L 4.59375 -17.390625 C 4.757812 -17.390625 4.925781 -17.34375 5.09375 -17.25 C 5.269531 -17.164062 5.421875 -17.007812 5.546875 -16.78125 L 11.359375 -7.234375 L 11.359375 -16.6875 C 11.359375 -16.894531 11.425781 -17.0625 11.5625 -17.1875 C 11.695312 -17.320312 11.863281 -17.390625 12.0625 -17.390625 L 14.328125 -17.390625 C 14.535156 -17.390625 14.703125 -17.320312 14.828125 -17.1875 C 14.960938 -17.0625 15.03125 -16.894531 15.03125 -16.6875 L 15.03125 -0.703125 C 15.03125 -0.492188 14.960938 -0.320312 14.828125 -0.1875 C 14.703125 -0.0625 14.535156 0 14.328125 0 L 12.0625 0 C 11.675781 0 11.367188 -0.203125 11.140625 -0.609375 L 5.046875 -10.625 L 5.046875 -0.703125 C 5.046875 -0.492188 4.976562 -0.320312 4.84375 -0.1875 C 4.71875 -0.0625 4.550781 0 4.34375 0 Z M 2.078125 0 "/></g></g></g><g fill="#ffffff" fill-opacity="1"><g transform="translate(38.603689, 22.017861)"><g><path d="M 8.734375 0.15625 C 7.710938 0.15625 6.726562 0.00390625 5.78125 -0.296875 C 4.84375 -0.609375 4.003906 -1.097656 3.265625 -1.765625 C 2.535156 -2.441406 1.960938 -3.335938 1.546875 -4.453125 C 1.128906 -5.566406 0.921875 -6.941406 0.921875 -8.578125 C 0.921875 -10.390625 1.128906 -11.878906 1.546875 -13.046875 C 1.960938 -14.210938 2.535156 -15.113281 3.265625 -15.75 C 4.003906 -16.394531 4.84375 -16.847656 5.78125 -17.109375 C 6.726562 -17.378906 7.710938 -17.515625 8.734375 -17.515625 C 9.398438 -17.515625 10.101562 -17.429688 10.84375 -17.265625 C 11.59375 -17.109375 12.304688 -16.773438 12.984375 -16.265625 C 13.128906 -16.160156 13.242188 -16.039062 13.328125 -15.90625 C 13.421875 -15.769531 13.46875 -15.632812 13.46875 -15.5 C 13.46875 -15.476562 13.4375 -15.390625 13.375 -15.234375 C 13.320312 -15.078125 13.117188 -14.644531 12.765625 -13.9375 C 12.679688 -13.664062 12.46875 -13.53125 12.125 -13.53125 C 12 -13.53125 11.867188 -13.570312 11.734375 -13.65625 C 11.179688 -13.925781 10.675781 -14.085938 10.21875 -14.140625 C 9.757812 -14.203125 9.351562 -14.234375 9 -14.234375 C 8.65625 -14.234375 8.234375 -14.1875 7.734375 -14.09375 C 7.234375 -14.007812 6.742188 -13.789062 6.265625 -13.4375 C 5.785156 -13.09375 5.382812 -12.535156 5.0625 -11.765625 C 4.75 -11.003906 4.59375 -9.941406 4.59375 -8.578125 C 4.59375 -7.453125 4.75 -6.535156 5.0625 -5.828125 C 5.382812 -5.128906 5.785156 -4.578125 6.265625 -4.171875 C 6.742188 -3.773438 7.234375 -3.5 7.734375 -3.34375 C 8.234375 -3.195312 8.65625 -3.125 9 -3.125 C 9.375 -3.125 9.773438 -3.148438 10.203125 -3.203125 C 10.628906 -3.253906 11.140625 -3.429688 11.734375 -3.734375 C 11.867188 -3.816406 12 -3.859375 12.125 -3.859375 C 12.46875 -3.859375 12.679688 -3.722656 12.765625 -3.453125 C 13.117188 -2.765625 13.320312 -2.34375 13.375 -2.1875 C 13.4375 -2.03125 13.46875 -1.9375 13.46875 -1.90625 C 13.46875 -1.757812 13.421875 -1.617188 13.328125 -1.484375 C 13.242188 -1.347656 13.128906 -1.234375 12.984375 -1.140625 C 12.304688 -0.609375 11.597656 -0.257812 10.859375 -0.09375 C 10.128906 0.0703125 9.421875 0.15625 8.734375 0.15625 Z M 8.734375 0.15625 "/></g></g></g><g fill="#ffffff" fill-opacity="1"><g transform="translate(52.689055, 22.017861)"><g><path d="M 2.078125 0 C 1.878906 0 1.710938 -0.0625 1.578125 -0.1875 C 1.441406 -0.320312 1.375 -0.492188 1.375 -0.703125 L 1.375 -16.6875 C 1.375 -16.894531 1.441406 -17.0625 1.578125 -17.1875 C 1.710938 -17.320312 1.878906 -17.390625 2.078125 -17.390625 L 4.34375 -17.390625 C 4.550781 -17.390625 4.71875 -17.320312 4.84375 -17.1875 C 4.976562 -17.0625 5.046875 -16.894531 5.046875 -16.6875 L 5.046875 -3.3125 L 11.703125 -3.3125 C 11.898438 -3.3125 12.066406 -3.242188 12.203125 -3.109375 C 12.335938 -2.972656 12.40625 -2.804688 12.40625 -2.609375 L 12.40625 -0.703125 C 12.40625 -0.492188 12.335938 -0.320312 12.203125 -0.1875 C 12.066406 -0.0625 11.898438 0 11.703125 0 Z M 2.078125 0 "/></g></g></g><g clip-path="url(#52747d56d0)"><g fill="#ffffff" fill-opacity="1"><g transform="translate(65.549606, 22.017861)"><g><path d="M 13.90625 0.15625 C 13.226562 0.15625 12.71875 -0.0195312 12.375 -0.375 C 12.039062 -0.738281 11.800781 -1.148438 11.65625 -1.609375 C 11.519531 -2.066406 11.378906 -2.457031 11.234375 -2.78125 L 10.75 -3.921875 L 5.296875 -3.921875 L 4.21875 -0.734375 C 4.101562 -0.242188 3.84375 0 3.4375 0 L 1.015625 0 C 0.804688 0 0.632812 -0.0625 0.5 -0.1875 C 0.375 -0.320312 0.3125 -0.492188 0.3125 -0.703125 L 5.78125 -16.6875 C 5.945312 -17.15625 6.234375 -17.390625 6.640625 -17.390625 L 9.40625 -17.390625 C 9.8125 -17.390625 10.097656 -17.15625 10.265625 -16.6875 L 14.796875 -3.734375 C 15.015625 -3.097656 15.238281 -2.710938 15.46875 -2.578125 C 15.707031 -2.429688 15.828125 -2.210938 15.828125 -1.921875 L 15.828125 -0.859375 C 15.828125 -0.472656 15.609375 -0.207031 15.171875 -0.0625 C 14.734375 0.0820312 14.3125 0.15625 13.90625 0.15625 Z M 6.40625 -7.234375 L 9.671875 -7.234375 L 8.03125 -12.25 Z M 6.40625 -7.234375 "/></g></g></g></g></g></g><g transform="matrix(1, 0, 0, 1, 89, 29)"><g clip-path="url(#125b2f3641)"><g fill="#2bd903" fill-opacity="1"><g transform="translate(0.410019, 19.239802)"><g><path d="M 1.796875 0 C 1.617188 0 1.472656 -0.0546875 1.359375 -0.171875 C 1.242188 -0.285156 1.1875 -0.429688 1.1875 -0.609375 L 1.1875 -14.359375 C 1.1875 -14.535156 1.242188 -14.679688 1.359375 -14.796875 C 1.472656 -14.910156 1.617188 -14.96875 1.796875 -14.96875 L 3.75 -14.96875 C 3.914062 -14.96875 4.054688 -14.910156 4.171875 -14.796875 C 4.285156 -14.679688 4.34375 -14.535156 4.34375 -14.359375 L 4.34375 -2.84375 L 10.0625 -2.84375 C 10.238281 -2.84375 10.382812 -2.785156 10.5 -2.671875 C 10.613281 -2.554688 10.671875 -2.410156 10.671875 -2.234375 L 10.671875 -0.609375 C 10.671875 -0.429688 10.613281 -0.285156 10.5 -0.171875 C 10.382812 -0.0546875 10.238281 0 10.0625 0 Z M 1.796875 0 "/></g></g></g><g fill="#2bd903" fill-opacity="1"><g transform="translate(11.480293, 19.239802)"><g><path d="M 5.828125 0.125 C 4.046875 0.125 2.757812 -0.367188 1.96875 -1.359375 C 1.1875 -2.347656 0.796875 -3.710938 0.796875 -5.453125 C 0.796875 -7.066406 1.191406 -8.363281 1.984375 -9.34375 C 2.785156 -10.332031 4.066406 -10.828125 5.828125 -10.828125 C 7.242188 -10.828125 8.335938 -10.507812 9.109375 -9.875 C 9.890625 -9.25 10.28125 -8.453125 10.28125 -7.484375 C 10.28125 -6.253906 9.921875 -5.332031 9.203125 -4.71875 C 8.492188 -4.101562 7.546875 -3.796875 6.359375 -3.796875 C 5.566406 -3.796875 4.789062 -3.910156 4.03125 -4.140625 C 4.03125 -3.765625 4.175781 -3.425781 4.46875 -3.125 C 4.757812 -2.832031 5.210938 -2.6875 5.828125 -2.6875 C 6.140625 -2.6875 6.578125 -2.707031 7.140625 -2.75 C 7.703125 -2.800781 8.226562 -2.945312 8.71875 -3.1875 C 8.832031 -3.238281 8.945312 -3.265625 9.0625 -3.265625 C 9.363281 -3.265625 9.550781 -3.148438 9.625 -2.921875 L 10.171875 -1.796875 L 10.234375 -1.578125 C 10.234375 -1.453125 10.191406 -1.332031 10.109375 -1.21875 C 10.023438 -1.101562 9.925781 -1.003906 9.8125 -0.921875 C 9.207031 -0.390625 8.539062 -0.0820312 7.8125 0 C 7.082031 0.0820312 6.421875 0.125 5.828125 0.125 Z M 5.59375 -6.25 C 6.601562 -6.25 7.109375 -6.519531 7.109375 -7.0625 C 7.109375 -7.445312 6.984375 -7.695312 6.734375 -7.8125 C 6.484375 -7.925781 6.179688 -7.984375 5.828125 -7.984375 C 5.367188 -7.984375 4.976562 -7.882812 4.65625 -7.6875 C 4.332031 -7.5 4.113281 -7.164062 4 -6.6875 C 4.195312 -6.519531 4.457031 -6.40625 4.78125 -6.34375 C 5.101562 -6.28125 5.375 -6.25 5.59375 -6.25 Z M 5.59375 -6.25 "/></g></g></g><g fill="#2bd903" fill-opacity="1"><g transform="translate(22.471483, 19.239802)"><g><path d="M 4.296875 0.125 C 3.347656 0.125 2.597656 -0.113281 2.046875 -0.59375 C 1.503906 -1.070312 1.113281 -1.703125 0.875 -2.484375 C 0.644531 -3.265625 0.53125 -4.113281 0.53125 -5.03125 C 0.53125 -6.175781 0.742188 -7.179688 1.171875 -8.046875 C 1.597656 -8.921875 2.222656 -9.601562 3.046875 -10.09375 C 3.878906 -10.582031 4.875 -10.828125 6.03125 -10.828125 C 6.59375 -10.828125 7.160156 -10.78125 7.734375 -10.6875 C 8.304688 -10.59375 8.925781 -10.429688 9.59375 -10.203125 C 9.875 -10.097656 10.015625 -9.878906 10.015625 -9.546875 L 10.015625 -0.609375 C 10.015625 -0.429688 9.957031 -0.285156 9.84375 -0.171875 C 9.726562 -0.0546875 9.582031 0 9.40625 0 L 8.046875 0 C 7.742188 0 7.488281 -0.128906 7.28125 -0.390625 L 6.859375 -0.875 C 6.253906 -0.375 5.734375 -0.0820312 5.296875 0 C 4.859375 0.0820312 4.523438 0.125 4.296875 0.125 Z M 5.484375 -2.6875 C 5.671875 -2.6875 5.851562 -2.722656 6.03125 -2.796875 C 6.207031 -2.867188 6.359375 -2.945312 6.484375 -3.03125 C 6.609375 -3.101562 6.734375 -3.21875 6.859375 -3.375 L 6.859375 -7.984375 C 6.046875 -7.984375 5.425781 -7.847656 5 -7.578125 C 4.582031 -7.304688 4.296875 -6.941406 4.140625 -6.484375 C 3.984375 -6.023438 3.90625 -5.535156 3.90625 -5.015625 C 3.90625 -4.046875 4.050781 -3.414062 4.34375 -3.125 C 4.644531 -2.832031 5.023438 -2.6875 5.484375 -2.6875 Z M 5.484375 -2.6875 "/></g></g></g><g fill="#2bd903" fill-opacity="1"><g transform="translate(33.673548, 19.239802)"><g><path d="M 6.171875 0.125 C 4.390625 0.125 3.046875 -0.378906 2.140625 -1.390625 C 1.242188 -2.398438 0.796875 -3.78125 0.796875 -5.53125 C 0.796875 -6.695312 1.003906 -7.671875 1.421875 -8.453125 C 1.847656 -9.242188 2.421875 -9.835938 3.140625 -10.234375 C 3.859375 -10.628906 4.65625 -10.828125 5.53125 -10.828125 C 5.6875 -10.828125 5.972656 -10.804688 6.390625 -10.765625 C 6.804688 -10.722656 7.171875 -10.613281 7.484375 -10.4375 L 7.484375 -14.359375 C 7.484375 -14.535156 7.539062 -14.679688 7.65625 -14.796875 C 7.769531 -14.910156 7.914062 -14.96875 8.09375 -14.96875 L 10.046875 -14.96875 C 10.222656 -14.96875 10.367188 -14.910156 10.484375 -14.796875 C 10.597656 -14.679688 10.65625 -14.535156 10.65625 -14.359375 L 10.65625 -1.109375 C 10.65625 -0.773438 10.515625 -0.554688 10.234375 -0.453125 C 9.617188 -0.253906 8.9375 -0.109375 8.1875 -0.015625 C 7.4375 0.078125 6.765625 0.125 6.171875 0.125 Z M 6.09375 -2.6875 C 6.21875 -2.6875 6.4375 -2.695312 6.75 -2.71875 C 7.0625 -2.75 7.304688 -2.828125 7.484375 -2.953125 L 7.484375 -7.625 C 7.296875 -7.757812 7.0625 -7.851562 6.78125 -7.90625 C 6.507812 -7.957031 6.3125 -7.984375 6.1875 -7.984375 C 5.570312 -7.984375 5.078125 -7.804688 4.703125 -7.453125 C 4.328125 -7.109375 4.140625 -6.46875 4.140625 -5.53125 C 4.140625 -4.582031 4.273438 -3.867188 4.546875 -3.390625 C 4.816406 -2.921875 5.332031 -2.6875 6.09375 -2.6875 Z M 6.09375 -2.6875 "/></g></g></g><g fill="#2bd903" fill-opacity="1"><g transform="translate(45.5082, 19.239802)"><g><path d="M 4.875 0.125 C 4.46875 0.125 3.929688 0.0703125 3.265625 -0.03125 C 2.597656 -0.132812 2.007812 -0.28125 1.5 -0.46875 C 1.363281 -0.539062 1.238281 -0.625 1.125 -0.71875 C 1.019531 -0.820312 0.96875 -0.941406 0.96875 -1.078125 C 1.007812 -1.222656 1.050781 -1.394531 1.09375 -1.59375 C 1.132812 -1.789062 1.226562 -2.113281 1.375 -2.5625 C 1.476562 -2.84375 1.6875 -2.984375 2 -2.984375 C 2.125 -2.984375 2.203125 -2.972656 2.234375 -2.953125 C 2.660156 -2.804688 3.140625 -2.703125 3.671875 -2.640625 C 4.210938 -2.585938 4.597656 -2.5625 4.828125 -2.5625 C 4.984375 -2.5625 5.191406 -2.570312 5.453125 -2.59375 C 5.722656 -2.625 5.960938 -2.6875 6.171875 -2.78125 C 6.378906 -2.875 6.484375 -3.03125 6.484375 -3.25 C 6.484375 -3.488281 6.347656 -3.660156 6.078125 -3.765625 C 5.804688 -3.867188 5.445312 -3.957031 5 -4.03125 C 4.5625 -4.101562 4.097656 -4.191406 3.609375 -4.296875 C 3.117188 -4.398438 2.65625 -4.566406 2.21875 -4.796875 C 1.78125 -5.023438 1.421875 -5.351562 1.140625 -5.78125 C 0.867188 -6.21875 0.734375 -6.796875 0.734375 -7.515625 C 0.734375 -8.109375 0.878906 -8.65625 1.171875 -9.15625 C 1.460938 -9.65625 1.941406 -10.054688 2.609375 -10.359375 C 3.273438 -10.671875 4.179688 -10.828125 5.328125 -10.828125 C 5.515625 -10.828125 5.894531 -10.796875 6.46875 -10.734375 C 7.039062 -10.679688 7.570312 -10.597656 8.0625 -10.484375 C 8.21875 -10.453125 8.363281 -10.382812 8.5 -10.28125 C 8.644531 -10.175781 8.71875 -10.046875 8.71875 -9.890625 C 8.71875 -9.796875 8.707031 -9.644531 8.6875 -9.4375 C 8.675781 -9.226562 8.65625 -8.894531 8.625 -8.4375 C 8.582031 -8.1875 8.488281 -8.03125 8.34375 -7.96875 C 8.207031 -7.90625 8.046875 -7.875 7.859375 -7.875 C 7.535156 -7.914062 7.191406 -7.953125 6.828125 -7.984375 C 6.460938 -8.023438 6.222656 -8.046875 6.109375 -8.046875 C 5.429688 -8.046875 4.894531 -8.015625 4.5 -7.953125 C 4.113281 -7.890625 3.921875 -7.75 3.921875 -7.53125 C 3.921875 -7.289062 4.054688 -7.117188 4.328125 -7.015625 C 4.609375 -6.910156 4.96875 -6.820312 5.40625 -6.75 C 5.84375 -6.675781 6.304688 -6.585938 6.796875 -6.484375 C 7.285156 -6.378906 7.75 -6.21875 8.1875 -6 C 8.632812 -5.78125 8.992188 -5.457031 9.265625 -5.03125 C 9.535156 -4.613281 9.671875 -4.046875 9.671875 -3.328125 C 9.671875 -2.210938 9.253906 -1.359375 8.421875 -0.765625 C 7.585938 -0.171875 6.40625 0.125 4.875 0.125 Z M 4.875 0.125 "/></g></g></g></g></g></svg>