<svg xmlns="http://www.w3.org/2000/svg" xmlns:xlink="http://www.w3.org/1999/xlink" width="228" zoomAndPan="magnify" viewBox="0 0 171 52.499999" height="70" preserveAspectRatio="xMidYMid meet" version="1.0"><defs><g/><clipPath id="b98fa1899c"><path d="M 0.804688 4.0625 L 52.8125 4.0625 L 52.8125 36.753906 L 0.804688 36.753906 Z M 0.804688 4.0625 " clip-rule="nonzero"/></clipPath><clipPath id="f9967e5a51"><path d="M 0.804688 0.0625 L 52.578125 0.0625 L 52.578125 32.609375 L 0.804688 32.609375 Z M 0.804688 0.0625 " clip-rule="nonzero"/></clipPath><clipPath id="083c23db5a"><rect x="0" width="53" y="0" height="33"/></clipPath><clipPath id="49b624eee1"><path d="M 8.882812 25.75 L 30.429688 25.75 L 30.429688 47.25 L 8.882812 47.25 Z M 8.882812 25.75 " clip-rule="nonzero"/></clipPath><clipPath id="6c551d0938"><path d="M 11.503906 29.515625 L 27.847656 29.515625 L 27.847656 43.632812 L 11.503906 43.632812 Z M 11.503906 29.515625 " clip-rule="nonzero"/></clipPath><clipPath id="976a2eaff8"><path d="M 4 3 L 16.789062 3 L 16.789062 14.503906 L 4 14.503906 Z M 4 3 " clip-rule="nonzero"/></clipPath><clipPath id="0294c4d5d8"><path d="M 0.503906 0.515625 L 13 0.515625 L 13 12 L 0.503906 12 Z M 0.503906 0.515625 " clip-rule="nonzero"/></clipPath><clipPath id="5761a60c52"><rect x="0" width="17" y="0" height="15"/></clipPath><clipPath id="e609daec33"><path d="M 29 12.679688 L 35 12.679688 L 35 19 L 29 19 Z M 29 12.679688 " clip-rule="nonzero"/></clipPath><clipPath id="b441df9100"><path d="M 27.226562 17.886719 L 36.546875 17.886719 L 36.546875 23.480469 L 27.226562 23.480469 Z M 27.226562 17.886719 " clip-rule="nonzero"/></clipPath><clipPath id="f3e9603255"><path d="M 24 12.679688 L 29 12.679688 L 29 18 L 24 18 Z M 24 12.679688 " clip-rule="nonzero"/></clipPath><clipPath id="4c3e149024"><path d="M 22.648438 17 L 30 17 L 30 22 L 22.648438 22 Z M 22.648438 17 " clip-rule="nonzero"/></clipPath><clipPath id="2605b6f098"><path d="M 35 12.679688 L 40 12.679688 L 40 18 L 35 18 Z M 35 12.679688 " clip-rule="nonzero"/></clipPath><clipPath id="847e859f6d"><path d="M 34.644531 17.050781 L 40.984375 17.050781 L 40.984375 21.550781 L 34.644531 21.550781 Z M 34.644531 17.050781 " clip-rule="nonzero"/></clipPath><clipPath id="8959a9f552"><rect x="0" width="75" y="0" height="32"/></clipPath><clipPath id="f3b76e103c"><rect x="0" width="30" y="0" height="32"/></clipPath></defs><g clip-path="url(#b98fa1899c)"><g transform="matrix(1, 0, 0, 1, 0, 4)"><g clip-path="url(#083c23db5a)"><g clip-path="url(#f9967e5a51)"><path fill="#00aeef" d="M 10.398438 13.480469 L 11.164062 13.480469 C 11.925781 10.28125 14.8125 7.878906 18.261719 7.878906 C 19.101562 7.878906 19.953125 8.066406 20.65625 8.300781 C 22.34375 3.507812 26.914062 0.0664062 32.308594 0.0664062 C 39.132812 0.0664062 44.664062 5.574219 44.664062 12.363281 C 44.664062 12.792969 44.640625 13.214844 44.601562 13.628906 C 49.085938 14.402344 52.53125 18.308594 52.53125 22.984375 C 52.53125 28.207031 48.230469 32.484375 42.980469 32.484375 L 10.402344 32.484375 C 5.152344 32.484375 0.855469 28.210938 0.855469 22.984375 C 0.851562 17.757812 5.148438 13.480469 10.398438 13.480469 Z M 10.398438 13.480469 " fill-opacity="1" fill-rule="nonzero"/></g></g></g></g><g clip-path="url(#49b624eee1)"><path fill="#e9f9ff" d="M 30.382812 36.5 C 30.382812 42.4375 25.570312 47.25 19.632812 47.25 C 13.695312 47.25 8.882812 42.4375 8.882812 36.5 C 8.882812 30.5625 13.695312 25.75 19.632812 25.75 C 25.570312 25.75 30.382812 30.5625 30.382812 36.5 Z M 30.382812 36.5 " fill-opacity="1" fill-rule="nonzero"/></g><g clip-path="url(#6c551d0938)"><g transform="matrix(1, 0, 0, 1, 11, 29)"><g clip-path="url(#5761a60c52)"><g clip-path="url(#976a2eaff8)"><path fill="#00aeef" d="M 13.714844 3.488281 L 16.769531 6.886719 L 15.585938 6.792969 C 15.585938 6.792969 15.710938 8.761719 14.808594 10.433594 C 13.90625 12.105469 13.039062 12.628906 12.585938 13.007812 C 12.128906 13.382812 10.644531 14.273438 8.433594 14.367188 C 6.222656 14.457031 4.941406 13.574219 4.941406 13.574219 L 5.679688 12.132812 C 5.679688 12.132812 7.386719 13.0625 9.171875 12.730469 C 10.957031 12.394531 11.410156 11.847656 11.957031 11.492188 C 12.511719 11.136719 13.921875 9.359375 14.011719 7.496094 L 13.445312 8.015625 Z M 13.714844 3.488281 " fill-opacity="1" fill-rule="nonzero"/></g><g clip-path="url(#0294c4d5d8)"><path fill="#00aeef" d="M 3.578125 11.492188 L 0.519531 8.09375 L 1.707031 8.1875 C 1.707031 8.1875 1.578125 6.21875 2.480469 4.546875 C 3.382812 2.875 4.246094 2.34375 4.699219 1.964844 C 5.15625 1.589844 6.640625 0.699219 8.851562 0.609375 C 11.0625 0.515625 12.347656 1.398438 12.347656 1.398438 L 11.609375 2.847656 C 11.609375 2.847656 9.902344 1.917969 8.121094 2.25 C 6.335938 2.585938 5.878906 3.125 5.332031 3.488281 C 4.777344 3.84375 3.371094 5.621094 3.277344 7.484375 L 3.847656 6.964844 Z M 3.578125 11.492188 " fill-opacity="1" fill-rule="nonzero"/></g></g></g></g><g clip-path="url(#e609daec33)"><path fill="#e9f9ff" d="M 29.199219 15.367188 C 29.199219 13.890625 30.394531 12.691406 31.871094 12.691406 C 33.347656 12.691406 34.546875 13.890625 34.546875 15.367188 C 34.546875 16.84375 33.347656 18.039062 31.871094 18.039062 C 30.394531 18.039062 29.199219 16.84375 29.199219 15.367188 " fill-opacity="1" fill-rule="nonzero"/></g><g clip-path="url(#b441df9100)"><path fill="#e9f9ff" d="M 36.464844 22.019531 L 36.085938 20.550781 C 35.773438 19.351562 34.9375 18.402344 33.859375 17.925781 C 33.308594 18.351562 32.621094 18.605469 31.871094 18.605469 C 31.125 18.605469 30.433594 18.351562 29.886719 17.925781 C 28.808594 18.402344 27.96875 19.351562 27.660156 20.550781 L 27.277344 22.019531 C 27.085938 22.757812 27.644531 23.480469 28.410156 23.480469 L 35.335938 23.480469 C 36.101562 23.480469 36.660156 22.757812 36.464844 22.019531 " fill-opacity="1" fill-rule="nonzero"/></g><g clip-path="url(#f3e9603255)"><path fill="#e9f9ff" d="M 24.34375 15.023438 C 24.34375 13.84375 25.300781 12.882812 26.484375 12.882812 C 27.664062 12.882812 28.621094 13.84375 28.621094 15.023438 C 28.621094 16.207031 27.664062 17.164062 26.484375 17.164062 C 25.300781 17.164062 24.34375 16.207031 24.34375 15.023438 " fill-opacity="1" fill-rule="nonzero"/></g><g clip-path="url(#4c3e149024)"><path fill="#e9f9ff" d="M 27.167969 20.53125 C 27.464844 19.386719 28.175781 18.433594 29.113281 17.816406 C 28.820312 17.5 28.46875 17.246094 28.074219 17.070312 C 27.632812 17.414062 27.082031 17.617188 26.484375 17.617188 C 25.882812 17.617188 25.332031 17.414062 24.894531 17.070312 C 24.03125 17.453125 23.359375 18.214844 23.109375 19.171875 L 22.804688 20.347656 C 22.652344 20.941406 23.097656 21.519531 23.710938 21.519531 L 26.914062 21.519531 L 27.167969 20.53125 " fill-opacity="1" fill-rule="nonzero"/></g><g clip-path="url(#2605b6f098)"><path fill="#e9f9ff" d="M 39.414062 15.023438 C 39.414062 13.84375 38.457031 12.882812 37.273438 12.882812 C 36.09375 12.882812 35.136719 13.84375 35.136719 15.023438 C 35.136719 16.207031 36.09375 17.164062 37.273438 17.164062 C 38.457031 17.164062 39.414062 16.207031 39.414062 15.023438 " fill-opacity="1" fill-rule="nonzero"/></g><g clip-path="url(#847e859f6d)"><path fill="#e9f9ff" d="M 36.589844 20.53125 C 36.292969 19.386719 35.582031 18.433594 34.644531 17.816406 C 34.9375 17.5 35.292969 17.246094 35.683594 17.070312 C 36.125 17.414062 36.675781 17.617188 37.273438 17.617188 C 37.875 17.617188 38.425781 17.414062 38.863281 17.070312 C 39.726562 17.453125 40.398438 18.214844 40.648438 19.171875 L 40.953125 20.347656 C 41.105469 20.941406 40.660156 21.519531 40.046875 21.519531 L 36.84375 21.519531 L 36.589844 20.53125 " fill-opacity="1" fill-rule="nonzero"/></g><g transform="matrix(1, 0, 0, 1, 56, 10)"><g clip-path="url(#8959a9f552)"><g fill="#ffffff" fill-opacity="1"><g transform="translate(0.654833, 20.047532)"><g><path d="M 6.09375 0.140625 C 5.507812 0.140625 4.800781 0.0546875 3.96875 -0.109375 C 3.144531 -0.273438 2.410156 -0.507812 1.765625 -0.8125 C 1.648438 -0.863281 1.523438 -0.957031 1.390625 -1.09375 C 1.265625 -1.238281 1.203125 -1.394531 1.203125 -1.5625 C 1.203125 -1.675781 1.210938 -1.742188 1.234375 -1.765625 L 1.84375 -3.21875 C 1.957031 -3.507812 2.179688 -3.65625 2.515625 -3.65625 C 2.640625 -3.65625 2.722656 -3.644531 2.765625 -3.625 C 3.359375 -3.40625 4.015625 -3.21875 4.734375 -3.0625 C 5.460938 -2.914062 6.023438 -2.84375 6.421875 -2.84375 C 6.609375 -2.84375 6.867188 -2.859375 7.203125 -2.890625 C 7.535156 -2.929688 7.878906 -3.015625 8.234375 -3.140625 C 8.585938 -3.273438 8.882812 -3.460938 9.125 -3.703125 C 9.375 -3.953125 9.5 -4.269531 9.5 -4.65625 C 9.5 -5.164062 9.285156 -5.5625 8.859375 -5.84375 C 8.441406 -6.132812 7.90625 -6.375 7.25 -6.5625 C 6.601562 -6.75 5.90625 -6.9375 5.15625 -7.125 C 4.414062 -7.320312 3.71875 -7.578125 3.0625 -7.890625 C 2.414062 -8.210938 1.882812 -8.640625 1.46875 -9.171875 C 1.050781 -9.703125 0.84375 -10.40625 0.84375 -11.28125 C 0.84375 -12.15625 1.007812 -12.945312 1.34375 -13.65625 C 1.675781 -14.363281 2.285156 -14.925781 3.171875 -15.34375 C 4.066406 -15.757812 5.351562 -15.96875 7.03125 -15.96875 C 7.351562 -15.96875 7.882812 -15.898438 8.625 -15.765625 C 9.375 -15.640625 10.09375 -15.503906 10.78125 -15.359375 C 10.945312 -15.316406 11.101562 -15.238281 11.25 -15.125 C 11.394531 -15.019531 11.46875 -14.882812 11.46875 -14.71875 C 11.46875 -14.625 11.457031 -14.460938 11.4375 -14.234375 C 11.425781 -14.015625 11.398438 -13.660156 11.359375 -13.171875 C 11.328125 -12.910156 11.234375 -12.75 11.078125 -12.6875 C 10.929688 -12.625 10.753906 -12.59375 10.546875 -12.59375 C 10.179688 -12.644531 9.765625 -12.695312 9.296875 -12.75 C 8.828125 -12.8125 8.394531 -12.863281 8 -12.90625 C 7.613281 -12.957031 7.359375 -12.984375 7.234375 -12.984375 C 6.222656 -12.984375 5.460938 -12.914062 4.953125 -12.78125 C 4.441406 -12.65625 4.1875 -12.3125 4.1875 -11.75 C 4.1875 -11.25 4.394531 -10.878906 4.8125 -10.640625 C 5.226562 -10.398438 5.765625 -10.203125 6.421875 -10.046875 C 7.085938 -9.898438 7.789062 -9.734375 8.53125 -9.546875 C 9.269531 -9.359375 9.96875 -9.085938 10.625 -8.734375 C 11.28125 -8.378906 11.816406 -7.875 12.234375 -7.21875 C 12.660156 -6.5625 12.875 -5.671875 12.875 -4.546875 C 12.875 -2.910156 12.304688 -1.71875 11.171875 -0.96875 C 10.035156 -0.226562 8.34375 0.140625 6.09375 0.140625 Z M 6.09375 0.140625 "/></g></g></g><g fill="#ffffff" fill-opacity="1"><g transform="translate(14.081015, 20.047532)"><g><path d="M 1.90625 0 C 1.71875 0 1.5625 -0.0546875 1.4375 -0.171875 C 1.3125 -0.296875 1.25 -0.453125 1.25 -0.640625 L 1.25 -15.21875 C 1.25 -15.40625 1.3125 -15.554688 1.4375 -15.671875 C 1.5625 -15.796875 1.71875 -15.859375 1.90625 -15.859375 L 3.96875 -15.859375 C 4.15625 -15.859375 4.304688 -15.796875 4.421875 -15.671875 C 4.546875 -15.554688 4.609375 -15.40625 4.609375 -15.21875 L 4.609375 -0.640625 C 4.609375 -0.453125 4.546875 -0.296875 4.421875 -0.171875 C 4.304688 -0.0546875 4.15625 0 3.96875 0 Z M 1.90625 0 "/></g></g></g><g fill="#ffffff" fill-opacity="1"><g transform="translate(19.942761, 20.047532)"><g><path d="M 1.90625 0 C 1.71875 0 1.5625 -0.0546875 1.4375 -0.171875 C 1.3125 -0.296875 1.25 -0.453125 1.25 -0.640625 L 1.25 -15.21875 C 1.25 -15.40625 1.3125 -15.554688 1.4375 -15.671875 C 1.5625 -15.796875 1.71875 -15.859375 1.90625 -15.859375 L 4.1875 -15.859375 C 4.332031 -15.859375 4.484375 -15.816406 4.640625 -15.734375 C 4.804688 -15.648438 4.941406 -15.503906 5.046875 -15.296875 L 10.359375 -6.59375 L 10.359375 -15.21875 C 10.359375 -15.40625 10.414062 -15.554688 10.53125 -15.671875 C 10.65625 -15.796875 10.8125 -15.859375 11 -15.859375 L 13.0625 -15.859375 C 13.25 -15.859375 13.398438 -15.796875 13.515625 -15.671875 C 13.640625 -15.554688 13.703125 -15.40625 13.703125 -15.21875 L 13.703125 -0.640625 C 13.703125 -0.453125 13.640625 -0.296875 13.515625 -0.171875 C 13.398438 -0.0546875 13.25 0 13.0625 0 L 11 0 C 10.644531 0 10.363281 -0.1875 10.15625 -0.5625 L 4.609375 -9.6875 L 4.609375 -0.640625 C 4.609375 -0.453125 4.546875 -0.296875 4.421875 -0.171875 C 4.304688 -0.0546875 4.15625 0 3.96875 0 Z M 1.90625 0 "/></g></g></g><g fill="#ffffff" fill-opacity="1"><g transform="translate(34.90416, 20.047532)"><g><path d="M 7.953125 0.140625 C 7.023438 0.140625 6.132812 0 5.28125 -0.28125 C 4.425781 -0.5625 3.660156 -1.007812 2.984375 -1.625 C 2.316406 -2.238281 1.789062 -3.050781 1.40625 -4.0625 C 1.03125 -5.070312 0.84375 -6.320312 0.84375 -7.8125 C 0.84375 -9.46875 1.03125 -10.828125 1.40625 -11.890625 C 1.789062 -12.953125 2.316406 -13.773438 2.984375 -14.359375 C 3.660156 -14.953125 4.425781 -15.367188 5.28125 -15.609375 C 6.132812 -15.847656 7.023438 -15.96875 7.953125 -15.96875 C 8.566406 -15.96875 9.210938 -15.894531 9.890625 -15.75 C 10.578125 -15.601562 11.226562 -15.296875 11.84375 -14.828125 C 11.96875 -14.734375 12.070312 -14.625 12.15625 -14.5 C 12.238281 -14.382812 12.28125 -14.257812 12.28125 -14.125 C 12.28125 -14.101562 12.253906 -14.023438 12.203125 -13.890625 C 12.148438 -13.753906 11.960938 -13.359375 11.640625 -12.703125 C 11.566406 -12.460938 11.375 -12.34375 11.0625 -12.34375 C 10.945312 -12.34375 10.820312 -12.378906 10.6875 -12.453125 C 10.1875 -12.691406 9.726562 -12.835938 9.3125 -12.890625 C 8.894531 -12.953125 8.523438 -12.984375 8.203125 -12.984375 C 7.890625 -12.984375 7.503906 -12.941406 7.046875 -12.859375 C 6.585938 -12.773438 6.140625 -12.570312 5.703125 -12.25 C 5.265625 -11.9375 4.898438 -11.429688 4.609375 -10.734375 C 4.328125 -10.035156 4.1875 -9.0625 4.1875 -7.8125 C 4.1875 -6.789062 4.328125 -5.957031 4.609375 -5.3125 C 4.898438 -4.675781 5.265625 -4.175781 5.703125 -3.8125 C 6.140625 -3.445312 6.585938 -3.191406 7.046875 -3.046875 C 7.503906 -2.910156 7.890625 -2.84375 8.203125 -2.84375 C 8.546875 -2.84375 8.910156 -2.863281 9.296875 -2.90625 C 9.691406 -2.957031 10.15625 -3.125 10.6875 -3.40625 C 10.820312 -3.476562 10.945312 -3.515625 11.0625 -3.515625 C 11.375 -3.515625 11.566406 -3.394531 11.640625 -3.15625 C 11.960938 -2.519531 12.148438 -2.128906 12.203125 -1.984375 C 12.253906 -1.847656 12.28125 -1.765625 12.28125 -1.734375 C 12.28125 -1.597656 12.238281 -1.46875 12.15625 -1.34375 C 12.070312 -1.226562 11.96875 -1.125 11.84375 -1.03125 C 11.226562 -0.550781 10.582031 -0.234375 9.90625 -0.078125 C 9.238281 0.0664062 8.585938 0.140625 7.953125 0.140625 Z M 7.953125 0.140625 "/></g></g></g><g fill="#ffffff" fill-opacity="1"><g transform="translate(47.744168, 20.047532)"><g><path d="M 1.90625 0 C 1.71875 0 1.5625 -0.0546875 1.4375 -0.171875 C 1.3125 -0.296875 1.25 -0.453125 1.25 -0.640625 L 1.25 -15.21875 C 1.25 -15.40625 1.3125 -15.554688 1.4375 -15.671875 C 1.5625 -15.796875 1.71875 -15.859375 1.90625 -15.859375 L 3.96875 -15.859375 C 4.15625 -15.859375 4.304688 -15.796875 4.421875 -15.671875 C 4.546875 -15.554688 4.609375 -15.40625 4.609375 -15.21875 L 4.609375 -3.015625 L 10.671875 -3.015625 C 10.859375 -3.015625 11.007812 -2.953125 11.125 -2.828125 C 11.25 -2.710938 11.3125 -2.5625 11.3125 -2.375 L 11.3125 -0.640625 C 11.3125 -0.453125 11.25 -0.296875 11.125 -0.171875 C 11.007812 -0.0546875 10.859375 0 10.671875 0 Z M 1.90625 0 "/></g></g></g><g fill="#ffffff" fill-opacity="1"><g transform="translate(59.467652, 20.047532)"><g><path d="M 12.671875 0.140625 C 12.054688 0.140625 11.59375 -0.0195312 11.28125 -0.34375 C 10.976562 -0.675781 10.757812 -1.050781 10.625 -1.46875 C 10.5 -1.882812 10.375 -2.242188 10.25 -2.546875 L 9.796875 -3.578125 L 4.828125 -3.578125 L 3.859375 -0.671875 C 3.742188 -0.222656 3.5 0 3.125 0 L 0.921875 0 C 0.734375 0 0.578125 -0.0546875 0.453125 -0.171875 C 0.335938 -0.296875 0.28125 -0.453125 0.28125 -0.640625 L 5.28125 -15.21875 C 5.425781 -15.644531 5.6875 -15.859375 6.0625 -15.859375 L 8.578125 -15.859375 C 8.941406 -15.859375 9.203125 -15.644531 9.359375 -15.21875 L 13.484375 -3.40625 C 13.691406 -2.832031 13.894531 -2.476562 14.09375 -2.34375 C 14.320312 -2.21875 14.4375 -2.023438 14.4375 -1.765625 L 14.4375 -0.78125 C 14.4375 -0.425781 14.234375 -0.179688 13.828125 -0.046875 C 13.429688 0.078125 13.046875 0.140625 12.671875 0.140625 Z M 5.828125 -6.59375 L 8.828125 -6.59375 L 7.3125 -11.171875 Z M 5.828125 -6.59375 "/></g></g></g></g></g><g transform="matrix(1, 0, 0, 1, 132, 10)"><g clip-path="url(#f3b76e103c)"><g fill="#2bd903" fill-opacity="1"><g transform="translate(0.904034, 20.303122)"><g><path d="M 10.90625 0.140625 C 10.289062 0.140625 9.867188 0 9.640625 -0.28125 C 9.410156 -0.5625 9.242188 -0.910156 9.140625 -1.328125 C 9.035156 -1.742188 8.875 -2.175781 8.65625 -2.625 L 7.640625 -5.25 L 4.609375 -5.25 L 4.609375 -0.640625 C 4.609375 -0.453125 4.546875 -0.296875 4.421875 -0.171875 C 4.296875 -0.0546875 4.144531 0 3.96875 0 L 1.890625 0 C 1.710938 0 1.5625 -0.0546875 1.4375 -0.171875 C 1.3125 -0.296875 1.25 -0.453125 1.25 -0.640625 L 1.25 -15.203125 C 1.25 -15.390625 1.3125 -15.539062 1.4375 -15.65625 C 1.5625 -15.78125 1.710938 -15.84375 1.890625 -15.84375 L 6.96875 -15.84375 C 8.851562 -15.84375 10.273438 -15.421875 11.234375 -14.578125 C 12.191406 -13.734375 12.671875 -12.378906 12.671875 -10.515625 C 12.671875 -8.378906 12.007812 -6.898438 10.6875 -6.078125 L 11.71875 -3.4375 C 11.863281 -3.101562 11.972656 -2.851562 12.046875 -2.6875 C 12.128906 -2.53125 12.222656 -2.414062 12.328125 -2.34375 C 12.554688 -2.21875 12.671875 -2.023438 12.671875 -1.765625 L 12.671875 -0.78125 C 12.671875 -0.425781 12.46875 -0.179688 12.0625 -0.046875 C 11.664062 0.078125 11.28125 0.140625 10.90625 0.140625 Z M 4.609375 -8.234375 L 6.96875 -8.234375 C 7.625 -8.234375 8.144531 -8.429688 8.53125 -8.828125 C 8.925781 -9.234375 9.125 -9.796875 9.125 -10.515625 C 9.125 -11.242188 8.925781 -11.816406 8.53125 -12.234375 C 8.144531 -12.648438 7.625 -12.859375 6.96875 -12.859375 L 4.609375 -12.859375 Z M 4.609375 -8.234375 "/></g></g></g><g fill="#2bd903" fill-opacity="1"><g transform="translate(14.272624, 20.303122)"><g><path d="M 1.890625 0 C 1.710938 0 1.5625 -0.0546875 1.4375 -0.171875 C 1.3125 -0.296875 1.25 -0.453125 1.25 -0.640625 L 1.25 -15.203125 C 1.25 -15.390625 1.3125 -15.539062 1.4375 -15.65625 C 1.5625 -15.78125 1.710938 -15.84375 1.890625 -15.84375 L 3.96875 -15.84375 C 4.144531 -15.84375 4.296875 -15.78125 4.421875 -15.65625 C 4.546875 -15.539062 4.609375 -15.390625 4.609375 -15.203125 L 4.609375 -9.546875 L 9.84375 -9.546875 L 9.84375 -15.203125 C 9.84375 -15.390625 9.90625 -15.539062 10.03125 -15.65625 C 10.15625 -15.78125 10.3125 -15.84375 10.5 -15.84375 L 12.5625 -15.84375 C 12.75 -15.84375 12.898438 -15.78125 13.015625 -15.65625 C 13.140625 -15.539062 13.203125 -15.390625 13.203125 -15.203125 L 13.203125 -0.640625 C 13.203125 -0.453125 13.140625 -0.296875 13.015625 -0.171875 C 12.898438 -0.0546875 12.75 0 12.5625 0 L 10.5 0 C 10.3125 0 10.15625 -0.0546875 10.03125 -0.171875 C 9.90625 -0.296875 9.84375 -0.453125 9.84375 -0.640625 L 9.84375 -6.53125 L 4.609375 -6.53125 L 4.609375 -0.640625 C 4.609375 -0.453125 4.546875 -0.296875 4.421875 -0.171875 C 4.296875 -0.0546875 4.144531 0 3.96875 0 Z M 1.890625 0 "/></g></g></g></g></g></svg>