<svg xmlns="http://www.w3.org/2000/svg" xmlns:xlink="http://www.w3.org/1999/xlink" width="220" zoomAndPan="magnify" viewBox="0 0 165 67.499998" height="90" preserveAspectRatio="xMidYMid meet" version="1.0"><defs><g/><clipPath id="70bcb8861e"><path d="M 0.605469 9.835938 L 52.71875 9.835938 L 52.71875 42.59375 L 0.605469 42.59375 Z M 0.605469 9.835938 " clip-rule="nonzero"/></clipPath><clipPath id="f4d416a0f4"><path d="M 0.605469 0.835938 L 52.488281 0.835938 L 52.488281 33.40625 L 0.605469 33.40625 Z M 0.605469 0.835938 " clip-rule="nonzero"/></clipPath><clipPath id="96e395493a"><rect x="0" width="53" y="0" height="34"/></clipPath><clipPath id="b404e15ce4"><path d="M 10.96875 23.828125 L 42.238281 23.828125 L 42.238281 54.945312 L 10.96875 54.945312 Z M 10.96875 23.828125 " clip-rule="nonzero"/></clipPath><clipPath id="e9d7e86113"><path d="M 14.761719 29.277344 L 38.585938 29.277344 L 38.585938 49.378906 L 14.761719 49.378906 Z M 14.761719 29.277344 " clip-rule="nonzero"/></clipPath><clipPath id="846c358d56"><path d="M 7 4 L 24.339844 4 L 24.339844 20.378906 L 7 20.378906 Z M 7 4 " clip-rule="nonzero"/></clipPath><clipPath id="b34a4a3c0f"><path d="M 0.761719 0.304688 L 18 0.304688 L 18 17 L 0.761719 17 Z M 0.761719 0.304688 " clip-rule="nonzero"/></clipPath><clipPath id="8adc742274"><rect x="0" width="25" y="0" height="21"/></clipPath><clipPath id="83f70dfbcd"><rect x="0" width="97" y="0" height="41"/></clipPath></defs><g clip-path="url(#70bcb8861e)"><g transform="matrix(1, 0, 0, 1, 0.000000000000000111, 9)"><g clip-path="url(#96e395493a)"><g clip-path="url(#f4d416a0f4)"><path fill="#00aeef" d="M 10.21875 14.285156 L 10.988281 14.285156 C 11.75 11.074219 14.640625 8.671875 18.101562 8.671875 C 18.941406 8.671875 19.792969 8.855469 20.496094 9.089844 C 22.1875 4.289062 26.769531 0.839844 32.171875 0.839844 C 39.011719 0.839844 44.558594 6.355469 44.558594 13.164062 C 44.558594 13.589844 44.535156 14.015625 44.492188 14.433594 C 48.988281 15.207031 52.4375 19.121094 52.4375 23.804688 C 52.4375 29.039062 48.132812 33.328125 42.871094 33.328125 L 10.222656 33.328125 C 4.960938 33.328125 0.65625 29.042969 0.65625 23.804688 C 0.652344 18.570312 4.957031 14.285156 10.21875 14.285156 Z M 10.21875 14.285156 " fill-opacity="1" fill-rule="nonzero"/></g></g></g></g><g clip-path="url(#b404e15ce4)"><path fill="#e9f9ff" d="M 42.089844 39.386719 C 42.089844 47.980469 35.125 54.945312 26.53125 54.945312 C 17.9375 54.945312 10.96875 47.980469 10.96875 39.386719 C 10.96875 30.792969 17.9375 23.828125 26.53125 23.828125 C 35.125 23.828125 42.089844 30.792969 42.089844 39.386719 Z M 42.089844 39.386719 " fill-opacity="1" fill-rule="nonzero"/></g><g clip-path="url(#e9d7e86113)"><g transform="matrix(1, 0, 0, 1, 14, 29)"><g clip-path="url(#8adc742274)"><g clip-path="url(#846c358d56)"><path fill="#00aeef" d="M 19.890625 4.582031 L 24.316406 9.5 L 22.597656 9.367188 C 22.597656 9.367188 22.78125 12.21875 21.472656 14.636719 C 20.167969 17.054688 18.910156 17.816406 18.253906 18.363281 C 17.59375 18.90625 15.441406 20.195312 12.242188 20.328125 C 9.042969 20.460938 7.1875 19.183594 7.1875 19.183594 L 8.257812 17.097656 C 8.257812 17.097656 10.730469 18.445312 13.3125 17.960938 C 15.894531 17.476562 16.554688 16.683594 17.347656 16.167969 C 18.148438 15.65625 20.1875 13.082031 20.320312 10.386719 L 19.496094 11.136719 Z M 19.890625 4.582031 " fill-opacity="1" fill-rule="nonzero"/></g><g clip-path="url(#b34a4a3c0f)"><path fill="#00aeef" d="M 5.210938 16.167969 L 0.789062 11.25 L 2.507812 11.382812 C 2.507812 11.382812 2.320312 8.535156 3.628906 6.113281 C 4.933594 3.695312 6.179688 2.925781 6.839844 2.378906 C 7.496094 1.832031 9.648438 0.546875 12.847656 0.414062 C 16.050781 0.277344 17.914062 1.554688 17.914062 1.554688 L 16.84375 3.65625 C 16.84375 3.65625 14.371094 2.304688 11.789062 2.789062 C 9.207031 3.273438 8.546875 4.054688 7.753906 4.582031 C 6.953125 5.097656 4.914062 7.667969 4.78125 10.363281 L 5.605469 9.613281 Z M 5.210938 16.167969 " fill-opacity="1" fill-rule="nonzero"/></g></g></g></g><g transform="matrix(1, 0, 0, 1, 56, 13)"><g clip-path="url(#83f70dfbcd)"><g fill="#ffffff" fill-opacity="1"><g transform="translate(0.572175, 26.111741)"><g><path d="M 7.921875 0.1875 C 7.171875 0.1875 6.253906 0.078125 5.171875 -0.140625 C 4.097656 -0.359375 3.140625 -0.660156 2.296875 -1.046875 C 2.148438 -1.117188 1.988281 -1.242188 1.8125 -1.421875 C 1.644531 -1.609375 1.5625 -1.8125 1.5625 -2.03125 C 1.5625 -2.175781 1.570312 -2.265625 1.59375 -2.296875 L 2.40625 -4.171875 C 2.539062 -4.566406 2.828125 -4.765625 3.265625 -4.765625 C 3.441406 -4.765625 3.550781 -4.75 3.59375 -4.71875 C 4.375 -4.425781 5.234375 -4.179688 6.171875 -3.984375 C 7.117188 -3.796875 7.847656 -3.703125 8.359375 -3.703125 C 8.597656 -3.703125 8.9375 -3.726562 9.375 -3.78125 C 9.8125 -3.832031 10.257812 -3.941406 10.71875 -4.109375 C 11.175781 -4.273438 11.5625 -4.515625 11.875 -4.828125 C 12.195312 -5.148438 12.359375 -5.5625 12.359375 -6.0625 C 12.359375 -6.71875 12.082031 -7.234375 11.53125 -7.609375 C 10.988281 -7.984375 10.289062 -8.289062 9.4375 -8.53125 C 8.59375 -8.78125 7.6875 -9.03125 6.71875 -9.28125 C 5.75 -9.539062 4.835938 -9.875 3.984375 -10.28125 C 3.140625 -10.695312 2.445312 -11.25 1.90625 -11.9375 C 1.363281 -12.625 1.09375 -13.539062 1.09375 -14.6875 C 1.09375 -15.820312 1.3125 -16.847656 1.75 -17.765625 C 2.1875 -18.691406 2.984375 -19.425781 4.140625 -19.96875 C 5.304688 -20.507812 6.976562 -20.78125 9.15625 -20.78125 C 9.570312 -20.78125 10.265625 -20.695312 11.234375 -20.53125 C 12.203125 -20.363281 13.132812 -20.179688 14.03125 -19.984375 C 14.25 -19.941406 14.453125 -19.847656 14.640625 -19.703125 C 14.835938 -19.554688 14.9375 -19.375 14.9375 -19.15625 C 14.9375 -19.03125 14.921875 -18.820312 14.890625 -18.53125 C 14.867188 -18.238281 14.835938 -17.78125 14.796875 -17.15625 C 14.742188 -16.8125 14.617188 -16.597656 14.421875 -16.515625 C 14.234375 -16.429688 14.003906 -16.390625 13.734375 -16.390625 C 13.253906 -16.460938 12.707031 -16.535156 12.09375 -16.609375 C 11.488281 -16.679688 10.929688 -16.75 10.421875 -16.8125 C 9.921875 -16.875 9.582031 -16.90625 9.40625 -16.90625 C 8.101562 -16.90625 7.117188 -16.816406 6.453125 -16.640625 C 5.785156 -16.472656 5.453125 -16.023438 5.453125 -15.296875 C 5.453125 -14.640625 5.722656 -14.15625 6.265625 -13.84375 C 6.816406 -13.53125 7.519531 -13.273438 8.375 -13.078125 C 9.238281 -12.890625 10.144531 -12.671875 11.09375 -12.421875 C 12.050781 -12.179688 12.960938 -11.832031 13.828125 -11.375 C 14.691406 -10.914062 15.394531 -10.253906 15.9375 -9.390625 C 16.476562 -8.535156 16.75 -7.378906 16.75 -5.921875 C 16.75 -3.785156 16.007812 -2.234375 14.53125 -1.265625 C 13.0625 -0.296875 10.859375 0.1875 7.921875 0.1875 Z M 7.921875 0.1875 "/></g></g></g><g fill="#ffffff" fill-opacity="1"><g transform="translate(18.048532, 26.111741)"><g><path d="M 2.46875 0 C 2.226562 0 2.03125 -0.078125 1.875 -0.234375 C 1.71875 -0.390625 1.640625 -0.585938 1.640625 -0.828125 L 1.640625 -19.8125 C 1.640625 -20.050781 1.71875 -20.25 1.875 -20.40625 C 2.03125 -20.5625 2.226562 -20.640625 2.46875 -20.640625 L 5.15625 -20.640625 C 5.40625 -20.640625 5.609375 -20.5625 5.765625 -20.40625 C 5.921875 -20.25 6 -20.050781 6 -19.8125 L 6 -0.828125 C 6 -0.585938 5.921875 -0.390625 5.765625 -0.234375 C 5.609375 -0.078125 5.40625 0 5.15625 0 Z M 2.46875 0 "/></g></g></g><g fill="#ffffff" fill-opacity="1"><g transform="translate(25.678545, 26.111741)"><g><path d="M 2.46875 0 C 2.226562 0 2.03125 -0.078125 1.875 -0.234375 C 1.71875 -0.390625 1.640625 -0.585938 1.640625 -0.828125 L 1.640625 -19.8125 C 1.640625 -20.050781 1.71875 -20.25 1.875 -20.40625 C 2.03125 -20.5625 2.226562 -20.640625 2.46875 -20.640625 L 5.453125 -20.640625 C 5.648438 -20.640625 5.847656 -20.582031 6.046875 -20.46875 C 6.253906 -20.363281 6.429688 -20.179688 6.578125 -19.921875 L 13.484375 -8.578125 L 13.484375 -19.8125 C 13.484375 -20.050781 13.5625 -20.25 13.71875 -20.40625 C 13.875 -20.5625 14.070312 -20.640625 14.3125 -20.640625 L 17.015625 -20.640625 C 17.253906 -20.640625 17.453125 -20.5625 17.609375 -20.40625 C 17.765625 -20.25 17.84375 -20.050781 17.84375 -19.8125 L 17.84375 -0.828125 C 17.84375 -0.585938 17.765625 -0.390625 17.609375 -0.234375 C 17.453125 -0.078125 17.253906 0 17.015625 0 L 14.3125 0 C 13.851562 0 13.492188 -0.242188 13.234375 -0.734375 L 6 -12.609375 L 6 -0.828125 C 6 -0.585938 5.921875 -0.390625 5.765625 -0.234375 C 5.609375 -0.078125 5.40625 0 5.15625 0 Z M 2.46875 0 "/></g></g></g><g fill="#ffffff" fill-opacity="1"><g transform="translate(45.153237, 26.111741)"><g><path d="M 10.359375 0.1875 C 9.148438 0.1875 7.988281 0.00390625 6.875 -0.359375 C 5.757812 -0.722656 4.765625 -1.304688 3.890625 -2.109375 C 3.015625 -2.910156 2.328125 -3.96875 1.828125 -5.28125 C 1.335938 -6.601562 1.09375 -8.234375 1.09375 -10.171875 C 1.09375 -12.328125 1.335938 -14.09375 1.828125 -15.46875 C 2.328125 -16.851562 3.015625 -17.925781 3.890625 -18.6875 C 4.765625 -19.457031 5.757812 -20 6.875 -20.3125 C 7.988281 -20.625 9.148438 -20.78125 10.359375 -20.78125 C 11.160156 -20.78125 12 -20.679688 12.875 -20.484375 C 13.757812 -20.296875 14.601562 -19.898438 15.40625 -19.296875 C 15.582031 -19.171875 15.722656 -19.03125 15.828125 -18.875 C 15.929688 -18.71875 15.984375 -18.554688 15.984375 -18.390625 C 15.984375 -18.367188 15.945312 -18.265625 15.875 -18.078125 C 15.800781 -17.898438 15.5625 -17.382812 15.15625 -16.53125 C 15.0625 -16.21875 14.804688 -16.0625 14.390625 -16.0625 C 14.242188 -16.0625 14.085938 -16.109375 13.921875 -16.203125 C 13.265625 -16.523438 12.660156 -16.722656 12.109375 -16.796875 C 11.566406 -16.867188 11.09375 -16.90625 10.6875 -16.90625 C 10.269531 -16.90625 9.765625 -16.847656 9.171875 -16.734375 C 8.578125 -16.628906 7.992188 -16.367188 7.421875 -15.953125 C 6.859375 -15.546875 6.390625 -14.882812 6.015625 -13.96875 C 5.640625 -13.0625 5.453125 -11.796875 5.453125 -10.171875 C 5.453125 -8.835938 5.640625 -7.753906 6.015625 -6.921875 C 6.390625 -6.085938 6.859375 -5.429688 7.421875 -4.953125 C 7.992188 -4.484375 8.578125 -4.15625 9.171875 -3.96875 C 9.765625 -3.789062 10.269531 -3.703125 10.6875 -3.703125 C 11.125 -3.703125 11.59375 -3.734375 12.09375 -3.796875 C 12.601562 -3.859375 13.210938 -4.070312 13.921875 -4.4375 C 14.085938 -4.53125 14.242188 -4.578125 14.390625 -4.578125 C 14.804688 -4.578125 15.0625 -4.421875 15.15625 -4.109375 C 15.5625 -3.285156 15.800781 -2.78125 15.875 -2.59375 C 15.945312 -2.414062 15.984375 -2.300781 15.984375 -2.25 C 15.984375 -2.082031 15.929688 -1.921875 15.828125 -1.765625 C 15.722656 -1.609375 15.582031 -1.46875 15.40625 -1.34375 C 14.601562 -0.71875 13.765625 -0.304688 12.890625 -0.109375 C 12.023438 0.0859375 11.179688 0.1875 10.359375 0.1875 Z M 10.359375 0.1875 "/></g></g></g><g fill="#ffffff" fill-opacity="1"><g transform="translate(61.866592, 26.111741)"><g><path d="M 2.46875 0 C 2.226562 0 2.03125 -0.078125 1.875 -0.234375 C 1.71875 -0.390625 1.640625 -0.585938 1.640625 -0.828125 L 1.640625 -19.8125 C 1.640625 -20.050781 1.71875 -20.25 1.875 -20.40625 C 2.03125 -20.5625 2.226562 -20.640625 2.46875 -20.640625 L 5.15625 -20.640625 C 5.40625 -20.640625 5.609375 -20.5625 5.765625 -20.40625 C 5.921875 -20.25 6 -20.050781 6 -19.8125 L 6 -3.921875 L 13.890625 -3.921875 C 14.128906 -3.921875 14.328125 -3.84375 14.484375 -3.6875 C 14.640625 -3.53125 14.71875 -3.332031 14.71875 -3.09375 L 14.71875 -0.828125 C 14.71875 -0.585938 14.640625 -0.390625 14.484375 -0.234375 C 14.328125 -0.078125 14.128906 0 13.890625 0 Z M 2.46875 0 "/></g></g></g><g fill="#ffffff" fill-opacity="1"><g transform="translate(77.12661, 26.111741)"><g><path d="M 16.5 0.1875 C 15.695312 0.1875 15.09375 -0.0234375 14.6875 -0.453125 C 14.289062 -0.878906 14.007812 -1.363281 13.84375 -1.90625 C 13.675781 -2.445312 13.507812 -2.914062 13.34375 -3.3125 L 12.75 -4.65625 L 6.28125 -4.65625 L 5.015625 -0.875 C 4.867188 -0.289062 4.554688 0 4.078125 0 L 1.203125 0 C 0.953125 0 0.75 -0.078125 0.59375 -0.234375 C 0.4375 -0.390625 0.359375 -0.585938 0.359375 -0.828125 L 6.875 -19.8125 C 7.0625 -20.363281 7.398438 -20.640625 7.890625 -20.640625 L 11.15625 -20.640625 C 11.644531 -20.640625 11.984375 -20.363281 12.171875 -19.8125 L 17.546875 -4.4375 C 17.816406 -3.6875 18.085938 -3.222656 18.359375 -3.046875 C 18.648438 -2.878906 18.796875 -2.628906 18.796875 -2.296875 L 18.796875 -1.015625 C 18.796875 -0.554688 18.535156 -0.238281 18.015625 -0.0625 C 17.492188 0.101562 16.988281 0.1875 16.5 0.1875 Z M 7.59375 -8.578125 L 11.484375 -8.578125 L 9.515625 -14.53125 Z M 7.59375 -8.578125 "/></g></g></g></g></g></svg>