<svg xmlns="http://www.w3.org/2000/svg" xmlns:xlink="http://www.w3.org/1999/xlink" width="512" zoomAndPan="magnify" viewBox="0 0 384 383.999986" height="512" preserveAspectRatio="xMidYMid meet" version="1.0"><defs><clipPath id="a09394ef83"><path d="M 0.570312 0.238281 L 317.160156 0.238281 L 317.160156 199 L 0.570312 199 Z M 0.570312 0.238281 " clip-rule="nonzero"/></clipPath><clipPath id="d252286535"><path d="M 0.570312 0.238281 L 317.160156 0.238281 L 317.160156 198.71875 L 0.570312 198.71875 Z M 0.570312 0.238281 " clip-rule="nonzero"/></clipPath><clipPath id="f0ad465b73"><rect x="0" width="318" y="0" height="199"/></clipPath><clipPath id="5f3e345f1f"><path d="M 63.855469 85.667969 L 254 85.667969 L 254 275.707031 L 63.855469 275.707031 Z M 63.855469 85.667969 " clip-rule="nonzero"/></clipPath><clipPath id="d69da6fe39"><path d="M 87.003906 119 L 231 119 L 231 241.710938 L 87.003906 241.710938 Z M 87.003906 119 " clip-rule="nonzero"/></clipPath><clipPath id="b6c0928267"><path d="M 39 26 L 143.992188 26 L 143.992188 122.710938 L 39 122.710938 Z M 39 26 " clip-rule="nonzero"/></clipPath><clipPath id="40c822b3a3"><path d="M 0.00390625 0.0390625 L 105 0.0390625 L 105 97 L 0.00390625 97 Z M 0.00390625 0.0390625 " clip-rule="nonzero"/></clipPath><clipPath id="07f4cb8b8f"><rect x="0" width="144" y="0" height="123"/></clipPath><clipPath id="da6aa18faf"><rect x="0" width="318" y="0" height="276"/></clipPath></defs><g transform="matrix(1, 0, 0, 1, 33, 54)"><g clip-path="url(#da6aa18faf)"><g clip-path="url(#a09394ef83)"><g transform="matrix(1, 0, 0, 1, -0.000000000000007105, 0)"><g clip-path="url(#f0ad465b73)"><g clip-path="url(#d252286535)"><path fill="#00aeef" d="M 59.273438 82.351562 L 63.957031 82.351562 C 68.617188 62.753906 86.273438 48.074219 107.394531 48.074219 C 112.53125 48.074219 117.726562 49.203125 122.03125 50.636719 C 132.359375 21.320312 160.335938 0.261719 193.328125 0.261719 C 235.097656 0.261719 268.957031 33.949219 268.957031 75.507812 C 268.957031 78.125 268.8125 80.703125 268.5625 83.257812 C 296.011719 87.984375 317.078125 111.882812 317.078125 140.488281 C 317.078125 172.464844 290.785156 198.640625 258.648438 198.640625 L 59.296875 198.640625 C 27.164062 198.640625 0.871094 172.480469 0.871094 140.488281 C 0.847656 108.523438 27.140625 82.351562 59.273438 82.351562 Z M 59.273438 82.351562 " fill-opacity="1" fill-rule="nonzero"/></g></g></g></g><g clip-path="url(#5f3e345f1f)"><path fill="#e9f9ff" d="M 253.894531 180.6875 C 253.894531 233.164062 211.351562 275.707031 158.875 275.707031 C 106.398438 275.707031 63.855469 233.164062 63.855469 180.6875 C 63.855469 128.210938 106.398438 85.667969 158.875 85.667969 C 211.351562 85.667969 253.894531 128.210938 253.894531 180.6875 Z M 253.894531 180.6875 " fill-opacity="1" fill-rule="nonzero"/></g><g clip-path="url(#d69da6fe39)"><g transform="matrix(1, 0, 0, 1, 87, 119)"><g clip-path="url(#07f4cb8b8f)"><g clip-path="url(#b6c0928267)"><path fill="#00aeef" d="M 116.808594 26.234375 L 143.835938 56.273438 L 133.339844 55.457031 C 133.339844 55.457031 134.46875 72.867188 126.488281 87.636719 C 118.507812 102.40625 110.839844 107.054688 106.816406 110.386719 C 102.792969 113.71875 89.660156 121.574219 70.113281 122.390625 C 50.566406 123.207031 39.253906 115.414062 39.253906 115.414062 L 45.792969 102.65625 C 45.792969 102.65625 60.875 110.890625 76.648438 107.9375 C 92.425781 104.984375 96.445312 100.144531 101.285156 97 C 106.1875 93.859375 118.632812 78.144531 119.449219 61.679688 L 114.421875 66.269531 Z M 116.808594 26.234375 " fill-opacity="1" fill-rule="nonzero"/></g><g clip-path="url(#40c822b3a3)"><path fill="#00aeef" d="M 27.1875 97 L 0.164062 66.960938 L 10.660156 67.777344 C 10.660156 67.777344 9.527344 50.367188 17.507812 35.597656 C 25.492188 20.828125 33.097656 16.113281 37.117188 12.785156 C 41.140625 9.453125 54.277344 1.597656 73.820312 0.78125 C 93.367188 -0.0351562 104.742188 7.757812 104.742188 7.757812 L 98.207031 20.578125 C 98.207031 20.578125 83.121094 12.34375 67.347656 15.296875 C 51.574219 18.25 47.550781 23.027344 42.710938 26.234375 C 37.808594 29.375 25.367188 45.089844 24.546875 61.554688 L 29.578125 56.964844 Z M 27.1875 97 " fill-opacity="1" fill-rule="nonzero"/></g></g></g></g></g></g></svg>