<svg xmlns="http://www.w3.org/2000/svg" xmlns:xlink="http://www.w3.org/1999/xlink" width="201" zoomAndPan="magnify" viewBox="0 0 150.75 72" height="96" preserveAspectRatio="xMidYMid meet" version="1.0"><defs><g/><clipPath id="e9ed04e6e7"><path d="M 0 10.011719 L 52.414062 10.011719 L 52.414062 42.957031 L 0 42.957031 Z M 0 10.011719 " clip-rule="nonzero"/></clipPath><clipPath id="de545373f8"><path d="M 0 0.0117188 L 52.179688 0.0117188 L 52.179688 32.707031 L 0 32.707031 Z M 0 0.0117188 " clip-rule="nonzero"/></clipPath><clipPath id="0c942a3d91"><rect x="0" width="53" y="0" height="33"/></clipPath><clipPath id="0555afb43c"><path d="M 8.140625 31.867188 L 29.855469 31.867188 L 29.855469 53.535156 L 8.140625 53.535156 Z M 8.140625 31.867188 " clip-rule="nonzero"/></clipPath><clipPath id="3ca96473dc"><path d="M 10.78125 35.664062 L 27.253906 35.664062 L 27.253906 49.890625 L 10.78125 49.890625 Z M 10.78125 35.664062 " clip-rule="nonzero"/></clipPath><clipPath id="236137bfa6"><path d="M 5 3 L 17.195312 3 L 17.195312 14.890625 L 5 14.890625 Z M 5 3 " clip-rule="nonzero"/></clipPath><clipPath id="b2e46bb431"><path d="M 0.78125 0.664062 L 13 0.664062 L 13 12 L 0.78125 12 Z M 0.78125 0.664062 " clip-rule="nonzero"/></clipPath><clipPath id="aeb0c17285"><rect x="0" width="18" y="0" height="15"/></clipPath><clipPath id="99b2e18a31"><path d="M 27.199219 16.128906 L 39.925781 16.128906 L 39.925781 31.851562 L 27.199219 31.851562 Z M 27.199219 16.128906 " clip-rule="nonzero"/></clipPath><clipPath id="733f9be617"><rect x="0" width="82" y="0" height="35"/></clipPath></defs><g clip-path="url(#e9ed04e6e7)"><g transform="matrix(1, 0, 0, 1, 0, 10)"><g clip-path="url(#0c942a3d91)"><g clip-path="url(#de545373f8)"><path fill="#ff751f" d="M 9.667969 13.535156 L 10.441406 13.535156 C 11.207031 10.308594 14.117188 7.890625 17.59375 7.890625 C 18.441406 7.890625 19.296875 8.078125 20.003906 8.3125 C 21.707031 3.484375 26.3125 0.015625 31.746094 0.015625 C 38.625 0.015625 44.203125 5.5625 44.203125 12.410156 C 44.203125 12.839844 44.179688 13.265625 44.136719 13.683594 C 48.660156 14.464844 52.128906 18.398438 52.128906 23.109375 C 52.128906 28.378906 47.796875 32.6875 42.503906 32.6875 L 9.671875 32.6875 C 4.378906 32.6875 0.0507812 28.378906 0.0507812 23.109375 C 0.046875 17.847656 4.375 13.535156 9.667969 13.535156 Z M 9.667969 13.535156 " fill-opacity="1" fill-rule="nonzero"/></g></g></g></g><g clip-path="url(#0555afb43c)"><path fill="#e9f9ff" d="M 29.808594 42.703125 C 29.808594 48.683594 24.957031 53.535156 18.972656 53.535156 C 12.992188 53.535156 8.140625 48.683594 8.140625 42.703125 C 8.140625 36.71875 12.992188 31.867188 18.972656 31.867188 C 24.957031 31.867188 29.808594 36.71875 29.808594 42.703125 Z M 29.808594 42.703125 " fill-opacity="1" fill-rule="nonzero"/></g><g clip-path="url(#3ca96473dc)"><g transform="matrix(1, 0, 0, 1, 10, 35)"><g clip-path="url(#aeb0c17285)"><g clip-path="url(#236137bfa6)"><path fill="#00aeef" d="M 14.09375 3.660156 L 17.175781 7.085938 L 15.980469 6.992188 C 15.980469 6.992188 16.109375 8.976562 15.199219 10.660156 C 14.289062 12.34375 13.414062 12.875 12.957031 13.253906 C 12.496094 13.632812 11 14.527344 8.773438 14.621094 C 6.542969 14.714844 5.253906 13.828125 5.253906 13.828125 L 6 12.371094 C 6 12.371094 7.71875 13.3125 9.515625 12.972656 C 11.316406 12.636719 11.773438 12.085938 12.324219 11.726562 C 12.882812 11.367188 14.304688 9.578125 14.394531 7.699219 L 13.824219 8.222656 Z M 14.09375 3.660156 " fill-opacity="1" fill-rule="nonzero"/></g><g clip-path="url(#b2e46bb431)"><path fill="#00aeef" d="M 3.878906 11.726562 L 0.796875 8.300781 L 1.992188 8.394531 C 1.992188 8.394531 1.863281 6.410156 2.773438 4.726562 C 3.683594 3.042969 4.550781 2.503906 5.011719 2.125 C 5.46875 1.746094 6.964844 0.851562 9.195312 0.757812 C 11.421875 0.664062 12.71875 1.550781 12.71875 1.550781 L 11.976562 3.015625 C 11.976562 3.015625 10.253906 2.074219 8.457031 2.414062 C 6.65625 2.75 6.199219 3.292969 5.648438 3.660156 C 5.089844 4.015625 3.671875 5.808594 3.578125 7.6875 L 4.148438 7.164062 Z M 3.878906 11.726562 " fill-opacity="1" fill-rule="nonzero"/></g></g></g></g><g clip-path="url(#99b2e18a31)"><path fill="#e9f9ff" d="M 35.632812 29.019531 C 35.632812 29.183594 35.574219 29.332031 35.46875 29.445312 L 29.945312 29.445312 C 29.582031 29.050781 29.882812 28.363281 30.429688 28.378906 C 30.429688 28.378906 34.988281 28.378906 34.988281 28.378906 C 35.34375 28.378906 35.632812 28.664062 35.632812 29.019531 Z M 29.945312 29.878906 C 29.582031 30.273438 29.882812 30.960938 30.429688 30.949219 L 34.988281 30.949219 C 35.53125 30.960938 35.835938 30.269531 35.46875 29.878906 Z M 31.761719 32.066406 L 33.65625 32.066406 C 34.0625 32.066406 34.398438 31.769531 34.464844 31.382812 L 30.957031 31.382812 C 31.023438 31.769531 31.355469 32.066406 31.761719 32.066406 Z M 35.863281 25.667969 C 35.195312 26.25 34.785156 27.066406 34.703125 27.941406 L 33.316406 27.941406 L 33.316406 19.195312 C 33.316406 19.011719 33.472656 18.863281 33.65625 18.878906 C 37.074219 19.183594 38.410156 23.472656 35.863281 25.667969 Z M 36.46875 22.746094 C 36.480469 21.433594 35.617188 20.203125 34.375 19.773438 C 34.246094 19.726562 34.097656 19.796875 34.054688 19.925781 C 34.007812 20.058594 34.074219 20.199219 34.203125 20.246094 C 35.25 20.605469 35.976562 21.636719 35.96875 22.746094 C 35.972656 23.074219 36.464844 23.074219 36.46875 22.746094 Z M 30.113281 26.457031 C 30.273438 26.285156 30.644531 26.070312 30.78125 26.378906 C 30.832031 26.503906 30.765625 26.652344 30.632812 26.703125 C 30.070312 26.957031 30.363281 27.71875 30.710938 27.941406 L 31.832031 27.941406 C 32.074219 27.769531 32.230469 27.488281 32.230469 27.167969 L 32.230469 20.085938 C 32.222656 19.0625 30.824219 18.765625 30.40625 19.691406 C 30.742188 19.757812 31.738281 20.609375 31.023438 20.765625 C 30.789062 20.757812 30.734375 20.441406 30.546875 20.335938 C 29.605469 19.59375 28.269531 20.609375 28.675781 21.695312 C 29.101562 21.617188 29.660156 21.824219 29.945312 22.183594 C 30.085938 22.339844 29.957031 22.605469 29.753906 22.597656 C 29.679688 22.597656 29.613281 22.566406 29.5625 22.507812 C 29.496094 22.429688 29.351562 22.285156 29.117188 22.21875 C 28.957031 22.167969 28.730469 22.179688 28.601562 22.222656 C 27.304688 22.601562 27.199219 24.445312 28.433594 24.972656 C 28.605469 24.699219 29.589844 23.945312 29.769531 24.476562 C 29.804688 24.609375 29.71875 24.746094 29.585938 24.777344 C 28.164062 25.132812 28.359375 27.128906 29.828125 27.171875 C 29.832031 26.925781 29.910156 26.660156 30.113281 26.457031 Z M 36.683594 19.667969 C 36.746094 19.667969 36.808594 19.640625 36.859375 19.59375 L 38.019531 18.4375 C 38.246094 18.199219 37.902344 17.851562 37.667969 18.082031 C 37.667969 18.082031 36.507812 19.242188 36.507812 19.242188 C 36.34375 19.390625 36.464844 19.671875 36.683594 19.667969 Z M 39.710938 22.527344 L 38.074219 22.527344 C 37.746094 22.535156 37.746094 23.027344 38.074219 23.027344 L 39.710938 23.027344 C 40.042969 23.027344 40.039062 22.535156 39.710938 22.527344 Z M 36.855469 25.96875 C 36.621094 25.742188 36.273438 26.085938 36.503906 26.320312 L 37.664062 27.480469 C 37.898438 27.710938 38.246094 27.359375 38.015625 27.128906 C 38.015625 27.125 36.855469 25.96875 36.855469 25.96875 Z M 33.316406 18.273438 C 33.457031 18.273438 33.566406 18.160156 33.566406 18.023438 L 33.566406 16.382812 C 33.566406 16.246094 33.457031 16.132812 33.316406 16.132812 C 33.179688 16.132812 33.066406 16.246094 33.066406 16.382812 L 33.066406 18.019531 C 33.066406 18.160156 33.179688 18.273438 33.316406 18.273438 Z M 33.316406 18.273438 " fill-opacity="1" fill-rule="nonzero"/></g><g transform="matrix(1, 0, 0, 1, 56, 11)"><g clip-path="url(#733f9be617)"><g fill="#020a7c" fill-opacity="1"><g transform="translate(0.286771, 22.020397)"><g><path d="M 6.671875 0.15625 C 6.046875 0.15625 5.273438 0.0664062 4.359375 -0.109375 C 3.453125 -0.296875 2.640625 -0.554688 1.921875 -0.890625 C 1.804688 -0.953125 1.675781 -1.054688 1.53125 -1.203125 C 1.382812 -1.359375 1.3125 -1.53125 1.3125 -1.71875 C 1.3125 -1.84375 1.320312 -1.910156 1.34375 -1.921875 L 2.015625 -3.515625 C 2.140625 -3.847656 2.382812 -4.015625 2.75 -4.015625 C 2.894531 -4.015625 2.988281 -4.003906 3.03125 -3.984375 C 3.6875 -3.734375 4.410156 -3.523438 5.203125 -3.359375 C 6.003906 -3.203125 6.617188 -3.125 7.046875 -3.125 C 7.242188 -3.125 7.523438 -3.144531 7.890625 -3.1875 C 8.265625 -3.226562 8.644531 -3.316406 9.03125 -3.453125 C 9.414062 -3.597656 9.738281 -3.800781 10 -4.0625 C 10.269531 -4.332031 10.40625 -4.679688 10.40625 -5.109375 C 10.40625 -5.660156 10.175781 -6.09375 9.71875 -6.40625 C 9.257812 -6.726562 8.671875 -6.988281 7.953125 -7.1875 C 7.242188 -7.394531 6.476562 -7.601562 5.65625 -7.8125 C 4.84375 -8.03125 4.078125 -8.3125 3.359375 -8.65625 C 2.648438 -9.007812 2.066406 -9.476562 1.609375 -10.0625 C 1.148438 -10.644531 0.921875 -11.414062 0.921875 -12.375 C 0.921875 -13.332031 1.101562 -14.195312 1.46875 -14.96875 C 1.832031 -15.75 2.503906 -16.367188 3.484375 -16.828125 C 4.472656 -17.285156 5.882812 -17.515625 7.71875 -17.515625 C 8.0625 -17.515625 8.640625 -17.441406 9.453125 -17.296875 C 10.273438 -17.160156 11.066406 -17.007812 11.828125 -16.84375 C 12.003906 -16.800781 12.175781 -16.71875 12.34375 -16.59375 C 12.507812 -16.476562 12.59375 -16.328125 12.59375 -16.140625 C 12.59375 -16.035156 12.582031 -15.859375 12.5625 -15.609375 C 12.539062 -15.367188 12.507812 -14.984375 12.46875 -14.453125 C 12.425781 -14.171875 12.320312 -13.992188 12.15625 -13.921875 C 11.988281 -13.847656 11.796875 -13.8125 11.578125 -13.8125 C 11.171875 -13.875 10.710938 -13.9375 10.203125 -14 C 9.691406 -14.0625 9.21875 -14.113281 8.78125 -14.15625 C 8.351562 -14.207031 8.070312 -14.234375 7.9375 -14.234375 C 6.832031 -14.234375 6 -14.160156 5.4375 -14.015625 C 4.875 -13.878906 4.59375 -13.503906 4.59375 -12.890625 C 4.59375 -12.335938 4.820312 -11.925781 5.28125 -11.65625 C 5.738281 -11.394531 6.328125 -11.179688 7.046875 -11.015625 C 7.773438 -10.859375 8.539062 -10.675781 9.34375 -10.46875 C 10.15625 -10.269531 10.921875 -9.972656 11.640625 -9.578125 C 12.367188 -9.191406 12.960938 -8.632812 13.421875 -7.90625 C 13.890625 -7.1875 14.125 -6.210938 14.125 -4.984375 C 14.125 -3.191406 13.5 -1.882812 12.25 -1.0625 C 11 -0.25 9.140625 0.15625 6.671875 0.15625 Z M 6.671875 0.15625 "/></g></g></g><g fill="#020a7c" fill-opacity="1"><g transform="translate(15.01469, 22.020397)"><g><path d="M 2.078125 0 C 1.878906 0 1.710938 -0.0625 1.578125 -0.1875 C 1.441406 -0.320312 1.375 -0.492188 1.375 -0.703125 L 1.375 -16.6875 C 1.375 -16.894531 1.441406 -17.0625 1.578125 -17.1875 C 1.710938 -17.320312 1.878906 -17.390625 2.078125 -17.390625 L 4.34375 -17.390625 C 4.550781 -17.390625 4.71875 -17.320312 4.84375 -17.1875 C 4.976562 -17.0625 5.046875 -16.894531 5.046875 -16.6875 L 5.046875 -0.703125 C 5.046875 -0.492188 4.976562 -0.320312 4.84375 -0.1875 C 4.71875 -0.0625 4.550781 0 4.34375 0 Z M 2.078125 0 "/></g></g></g><g fill="#020a7c" fill-opacity="1"><g transform="translate(21.444762, 22.020397)"><g><path d="M 2.078125 0 C 1.878906 0 1.710938 -0.0625 1.578125 -0.1875 C 1.441406 -0.320312 1.375 -0.492188 1.375 -0.703125 L 1.375 -16.6875 C 1.375 -16.894531 1.441406 -17.0625 1.578125 -17.1875 C 1.710938 -17.320312 1.878906 -17.390625 2.078125 -17.390625 L 4.59375 -17.390625 C 4.757812 -17.390625 4.925781 -17.34375 5.09375 -17.25 C 5.269531 -17.164062 5.421875 -17.007812 5.546875 -16.78125 L 11.359375 -7.234375 L 11.359375 -16.6875 C 11.359375 -16.894531 11.425781 -17.0625 11.5625 -17.1875 C 11.695312 -17.320312 11.863281 -17.390625 12.0625 -17.390625 L 14.328125 -17.390625 C 14.535156 -17.390625 14.703125 -17.320312 14.828125 -17.1875 C 14.960938 -17.0625 15.03125 -16.894531 15.03125 -16.6875 L 15.03125 -0.703125 C 15.03125 -0.492188 14.960938 -0.320312 14.828125 -0.1875 C 14.703125 -0.0625 14.535156 0 14.328125 0 L 12.0625 0 C 11.675781 0 11.367188 -0.203125 11.140625 -0.609375 L 5.046875 -10.625 L 5.046875 -0.703125 C 5.046875 -0.492188 4.976562 -0.320312 4.84375 -0.1875 C 4.71875 -0.0625 4.550781 0 4.34375 0 Z M 2.078125 0 "/></g></g></g><g fill="#020a7c" fill-opacity="1"><g transform="translate(37.856745, 22.020397)"><g><path d="M 8.734375 0.15625 C 7.710938 0.15625 6.726562 0.00390625 5.78125 -0.296875 C 4.84375 -0.609375 4.003906 -1.097656 3.265625 -1.765625 C 2.535156 -2.441406 1.960938 -3.335938 1.546875 -4.453125 C 1.128906 -5.566406 0.921875 -6.941406 0.921875 -8.578125 C 0.921875 -10.390625 1.128906 -11.878906 1.546875 -13.046875 C 1.960938 -14.210938 2.535156 -15.113281 3.265625 -15.75 C 4.003906 -16.394531 4.84375 -16.847656 5.78125 -17.109375 C 6.726562 -17.378906 7.710938 -17.515625 8.734375 -17.515625 C 9.398438 -17.515625 10.101562 -17.429688 10.84375 -17.265625 C 11.59375 -17.109375 12.304688 -16.773438 12.984375 -16.265625 C 13.128906 -16.160156 13.242188 -16.039062 13.328125 -15.90625 C 13.421875 -15.769531 13.46875 -15.632812 13.46875 -15.5 C 13.46875 -15.476562 13.4375 -15.390625 13.375 -15.234375 C 13.320312 -15.078125 13.117188 -14.644531 12.765625 -13.9375 C 12.679688 -13.664062 12.46875 -13.53125 12.125 -13.53125 C 12 -13.53125 11.867188 -13.570312 11.734375 -13.65625 C 11.179688 -13.925781 10.675781 -14.085938 10.21875 -14.140625 C 9.757812 -14.203125 9.351562 -14.234375 9 -14.234375 C 8.65625 -14.234375 8.234375 -14.1875 7.734375 -14.09375 C 7.234375 -14.007812 6.742188 -13.789062 6.265625 -13.4375 C 5.785156 -13.09375 5.382812 -12.535156 5.0625 -11.765625 C 4.75 -11.003906 4.59375 -9.941406 4.59375 -8.578125 C 4.59375 -7.453125 4.75 -6.535156 5.0625 -5.828125 C 5.382812 -5.128906 5.785156 -4.578125 6.265625 -4.171875 C 6.742188 -3.773438 7.234375 -3.5 7.734375 -3.34375 C 8.234375 -3.195312 8.65625 -3.125 9 -3.125 C 9.375 -3.125 9.773438 -3.148438 10.203125 -3.203125 C 10.628906 -3.253906 11.140625 -3.429688 11.734375 -3.734375 C 11.867188 -3.816406 12 -3.859375 12.125 -3.859375 C 12.46875 -3.859375 12.679688 -3.722656 12.765625 -3.453125 C 13.117188 -2.765625 13.320312 -2.34375 13.375 -2.1875 C 13.4375 -2.03125 13.46875 -1.9375 13.46875 -1.90625 C 13.46875 -1.757812 13.421875 -1.617188 13.328125 -1.484375 C 13.242188 -1.347656 13.128906 -1.234375 12.984375 -1.140625 C 12.304688 -0.609375 11.597656 -0.257812 10.859375 -0.09375 C 10.128906 0.0703125 9.421875 0.15625 8.734375 0.15625 Z M 8.734375 0.15625 "/></g></g></g><g fill="#020a7c" fill-opacity="1"><g transform="translate(51.941656, 22.020397)"><g><path d="M 2.078125 0 C 1.878906 0 1.710938 -0.0625 1.578125 -0.1875 C 1.441406 -0.320312 1.375 -0.492188 1.375 -0.703125 L 1.375 -16.6875 C 1.375 -16.894531 1.441406 -17.0625 1.578125 -17.1875 C 1.710938 -17.320312 1.878906 -17.390625 2.078125 -17.390625 L 4.34375 -17.390625 C 4.550781 -17.390625 4.71875 -17.320312 4.84375 -17.1875 C 4.976562 -17.0625 5.046875 -16.894531 5.046875 -16.6875 L 5.046875 -3.3125 L 11.703125 -3.3125 C 11.898438 -3.3125 12.066406 -3.242188 12.203125 -3.109375 C 12.335938 -2.972656 12.40625 -2.804688 12.40625 -2.609375 L 12.40625 -0.703125 C 12.40625 -0.492188 12.335938 -0.320312 12.203125 -0.1875 C 12.066406 -0.0625 11.898438 0 11.703125 0 Z M 2.078125 0 "/></g></g></g><g fill="#020a7c" fill-opacity="1"><g transform="translate(64.801791, 22.020397)"><g><path d="M 13.90625 0.15625 C 13.226562 0.15625 12.71875 -0.0195312 12.375 -0.375 C 12.039062 -0.738281 11.800781 -1.148438 11.65625 -1.609375 C 11.519531 -2.066406 11.378906 -2.457031 11.234375 -2.78125 L 10.75 -3.921875 L 5.296875 -3.921875 L 4.21875 -0.734375 C 4.101562 -0.242188 3.84375 0 3.4375 0 L 1.015625 0 C 0.804688 0 0.632812 -0.0625 0.5 -0.1875 C 0.375 -0.320312 0.3125 -0.492188 0.3125 -0.703125 L 5.78125 -16.6875 C 5.945312 -17.15625 6.234375 -17.390625 6.640625 -17.390625 L 9.40625 -17.390625 C 9.8125 -17.390625 10.097656 -17.15625 10.265625 -16.6875 L 14.796875 -3.734375 C 15.015625 -3.097656 15.238281 -2.710938 15.46875 -2.578125 C 15.707031 -2.429688 15.828125 -2.210938 15.828125 -1.921875 L 15.828125 -0.859375 C 15.828125 -0.472656 15.609375 -0.207031 15.171875 -0.0625 C 14.734375 0.0820312 14.3125 0.15625 13.90625 0.15625 Z M 6.40625 -7.234375 L 9.671875 -7.234375 L 8.03125 -12.25 Z M 6.40625 -7.234375 "/></g></g></g></g></g><g fill="#ff751f" fill-opacity="1"><g transform="translate(104.449113, 49.852423)"><g><path d="M 1.890625 0 C 1.710938 0 1.5625 -0.0546875 1.4375 -0.171875 C 1.3125 -0.296875 1.25 -0.453125 1.25 -0.640625 L 1.25 -15.203125 C 1.25 -15.390625 1.3125 -15.539062 1.4375 -15.65625 C 1.5625 -15.78125 1.710938 -15.84375 1.890625 -15.84375 L 11.078125 -15.84375 C 11.265625 -15.84375 11.414062 -15.78125 11.53125 -15.65625 C 11.65625 -15.539062 11.71875 -15.390625 11.71875 -15.203125 L 11.71875 -13.5 C 11.71875 -13.320312 11.65625 -13.171875 11.53125 -13.046875 C 11.414062 -12.921875 11.265625 -12.859375 11.078125 -12.859375 L 4.609375 -12.859375 L 4.609375 -9.40625 L 9.328125 -9.40625 C 9.503906 -9.40625 9.65625 -9.34375 9.78125 -9.21875 C 9.90625 -9.101562 9.96875 -8.953125 9.96875 -8.765625 L 9.96875 -7.0625 C 9.96875 -6.875 9.90625 -6.71875 9.78125 -6.59375 C 9.65625 -6.476562 9.503906 -6.421875 9.328125 -6.421875 L 4.609375 -6.421875 L 4.609375 -2.984375 L 11.078125 -2.984375 C 11.265625 -2.984375 11.414062 -2.921875 11.53125 -2.796875 C 11.65625 -2.679688 11.71875 -2.53125 11.71875 -2.34375 L 11.71875 -0.640625 C 11.71875 -0.453125 11.65625 -0.296875 11.53125 -0.171875 C 11.414062 -0.0546875 11.265625 0 11.078125 0 Z M 1.890625 0 "/></g></g></g><g fill="#ff751f" fill-opacity="1"><g transform="translate(116.726379, 49.852423)"><g><path d="M 4.546875 0.140625 C 3.546875 0.140625 2.753906 -0.113281 2.171875 -0.625 C 1.597656 -1.132812 1.1875 -1.800781 0.9375 -2.625 C 0.6875 -3.457031 0.5625 -4.359375 0.5625 -5.328125 C 0.5625 -6.535156 0.785156 -7.597656 1.234375 -8.515625 C 1.691406 -9.441406 2.359375 -10.164062 3.234375 -10.6875 C 4.109375 -11.207031 5.160156 -11.46875 6.390625 -11.46875 C 6.984375 -11.46875 7.582031 -11.414062 8.1875 -11.3125 C 8.789062 -11.207031 9.445312 -11.035156 10.15625 -10.796875 C 10.457031 -10.679688 10.609375 -10.453125 10.609375 -10.109375 L 10.609375 -0.640625 C 10.609375 -0.453125 10.546875 -0.296875 10.421875 -0.171875 C 10.296875 -0.0546875 10.144531 0 9.96875 0 L 8.515625 0 C 8.191406 0 7.921875 -0.140625 7.703125 -0.421875 L 7.25 -0.921875 C 6.625 -0.398438 6.078125 -0.09375 5.609375 0 C 5.140625 0.09375 4.785156 0.140625 4.546875 0.140625 Z M 5.796875 -2.84375 C 6.003906 -2.84375 6.203125 -2.878906 6.390625 -2.953125 C 6.578125 -3.023438 6.734375 -3.109375 6.859375 -3.203125 C 6.992188 -3.285156 7.125 -3.410156 7.25 -3.578125 L 7.25 -8.453125 C 6.394531 -8.453125 5.742188 -8.304688 5.296875 -8.015625 C 4.847656 -7.734375 4.539062 -7.347656 4.375 -6.859375 C 4.207031 -6.378906 4.125 -5.859375 4.125 -5.296875 C 4.125 -4.273438 4.28125 -3.609375 4.59375 -3.296875 C 4.914062 -2.992188 5.316406 -2.84375 5.796875 -2.84375 Z M 5.796875 -2.84375 "/></g></g></g><g fill="#ff751f" fill-opacity="1"><g transform="translate(128.585107, 49.852423)"><g><path d="M 6.53125 0.140625 C 4.65625 0.140625 3.238281 -0.390625 2.28125 -1.453125 C 1.320312 -2.523438 0.84375 -3.992188 0.84375 -5.859375 C 0.84375 -7.085938 1.0625 -8.117188 1.5 -8.953125 C 1.945312 -9.796875 2.550781 -10.425781 3.3125 -10.84375 C 4.082031 -11.257812 4.929688 -11.46875 5.859375 -11.46875 C 6.023438 -11.46875 6.328125 -11.441406 6.765625 -11.390625 C 7.203125 -11.347656 7.585938 -11.234375 7.921875 -11.046875 L 7.921875 -15.203125 C 7.921875 -15.390625 7.976562 -15.539062 8.09375 -15.65625 C 8.21875 -15.78125 8.375 -15.84375 8.5625 -15.84375 L 10.625 -15.84375 C 10.8125 -15.84375 10.96875 -15.78125 11.09375 -15.65625 C 11.21875 -15.539062 11.28125 -15.390625 11.28125 -15.203125 L 11.28125 -1.171875 C 11.28125 -0.816406 11.128906 -0.582031 10.828125 -0.46875 C 10.171875 -0.269531 9.445312 -0.117188 8.65625 -0.015625 C 7.875 0.0859375 7.164062 0.140625 6.53125 0.140625 Z M 6.453125 -2.84375 C 6.578125 -2.84375 6.804688 -2.859375 7.140625 -2.890625 C 7.472656 -2.921875 7.734375 -3 7.921875 -3.125 L 7.921875 -8.0625 C 7.722656 -8.207031 7.476562 -8.304688 7.1875 -8.359375 C 6.894531 -8.421875 6.6875 -8.453125 6.5625 -8.453125 C 5.90625 -8.453125 5.375 -8.265625 4.96875 -7.890625 C 4.570312 -7.523438 4.375 -6.847656 4.375 -5.859375 C 4.375 -4.859375 4.519531 -4.101562 4.8125 -3.59375 C 5.101562 -3.09375 5.648438 -2.84375 6.453125 -2.84375 Z M 6.453125 -2.84375 "/></g></g></g></svg>