<svg xmlns="http://www.w3.org/2000/svg" xmlns:xlink="http://www.w3.org/1999/xlink" width="214" zoomAndPan="magnify" viewBox="0 0 160.5 72" height="96" preserveAspectRatio="xMidYMid meet" version="1.0"><defs><g/><clipPath id="4615a770b1"><path d="M 0 10.050781 L 52.335938 10.050781 L 52.335938 42.949219 L 0 42.949219 Z M 0 10.050781 " clip-rule="nonzero"/></clipPath><clipPath id="a3b4c1508b"><path d="M 0 0.0507812 L 52.101562 0.0507812 L 52.101562 32.699219 L 0 32.699219 Z M 0 0.0507812 " clip-rule="nonzero"/></clipPath><clipPath id="83a2828bfe"><rect x="0" width="53" y="0" height="33"/></clipPath><clipPath id="78bec1bbce"><path d="M 8.128906 31.875 L 29.8125 31.875 L 29.8125 53.511719 L 8.128906 53.511719 Z M 8.128906 31.875 " clip-rule="nonzero"/></clipPath><clipPath id="12af7cdf72"><path d="M 10.765625 35.664062 L 27.210938 35.664062 L 27.210938 49.871094 L 10.765625 49.871094 Z M 10.765625 35.664062 " clip-rule="nonzero"/></clipPath><clipPath id="73cfcd284e"><path d="M 5 3 L 17.15625 3 L 17.15625 14.871094 L 5 14.871094 Z M 5 3 " clip-rule="nonzero"/></clipPath><clipPath id="64b88c3bfe"><path d="M 0.765625 0.664062 L 13 0.664062 L 13 12 L 0.765625 12 Z M 0.765625 0.664062 " clip-rule="nonzero"/></clipPath><clipPath id="c6b86d0b51"><rect x="0" width="18" y="0" height="15"/></clipPath><clipPath id="ffb079e80a"><path d="M 29.15625 18.613281 L 38.875 18.613281 L 38.875 32.070312 L 29.15625 32.070312 Z M 29.15625 18.613281 " clip-rule="nonzero"/></clipPath><clipPath id="b52234f6ab"><path d="M 65 4 L 81.855469 4 L 81.855469 23 L 65 23 Z M 65 4 " clip-rule="nonzero"/></clipPath><clipPath id="1ea2274e8b"><rect x="0" width="82" y="0" height="35"/></clipPath></defs><g clip-path="url(#4615a770b1)"><g transform="matrix(1, 0, 0, 1, 0, 10)"><g clip-path="url(#83a2828bfe)"><g clip-path="url(#a3b4c1508b)"><path fill="#2bd903" d="M 9.65625 13.554688 L 10.425781 13.554688 C 11.191406 10.332031 14.09375 7.917969 17.570312 7.917969 C 18.414062 7.917969 19.269531 8.101562 19.976562 8.339844 C 21.675781 3.515625 26.273438 0.0546875 31.703125 0.0546875 C 38.570312 0.0546875 44.140625 5.59375 44.140625 12.429688 C 44.140625 12.859375 44.113281 13.28125 44.074219 13.703125 C 48.589844 14.480469 52.054688 18.410156 52.054688 23.113281 C 52.054688 28.375 47.730469 32.679688 42.445312 32.679688 L 9.660156 32.679688 C 4.375 32.679688 0.0507812 28.375 0.0507812 23.113281 C 0.046875 17.859375 4.371094 13.554688 9.65625 13.554688 Z M 9.65625 13.554688 " fill-opacity="1" fill-rule="nonzero"/></g></g></g></g><g clip-path="url(#78bec1bbce)"><path fill="#e9f9ff" d="M 29.765625 42.691406 C 29.765625 48.667969 24.921875 53.511719 18.945312 53.511719 C 12.972656 53.511719 8.128906 48.667969 8.128906 42.691406 C 8.128906 36.71875 12.972656 31.875 18.945312 31.875 C 24.921875 31.875 29.765625 36.71875 29.765625 42.691406 Z M 29.765625 42.691406 " fill-opacity="1" fill-rule="nonzero"/></g><g clip-path="url(#12af7cdf72)"><g transform="matrix(1, 0, 0, 1, 10, 35)"><g clip-path="url(#c6b86d0b51)"><g clip-path="url(#73cfcd284e)"><path fill="#00aeef" d="M 14.058594 3.65625 L 17.136719 7.074219 L 15.941406 6.980469 C 15.941406 6.980469 16.070312 8.964844 15.164062 10.644531 C 14.253906 12.328125 13.378906 12.855469 12.921875 13.234375 C 12.464844 13.613281 10.96875 14.507812 8.746094 14.601562 C 6.519531 14.695312 5.230469 13.808594 5.230469 13.808594 L 5.976562 12.355469 C 5.976562 12.355469 7.691406 13.292969 9.488281 12.957031 C 11.285156 12.621094 11.742188 12.070312 12.292969 11.710938 C 12.851562 11.355469 14.269531 9.566406 14.359375 7.691406 L 13.789062 8.214844 Z M 14.058594 3.65625 " fill-opacity="1" fill-rule="nonzero"/></g><g clip-path="url(#64b88c3bfe)"><path fill="#00aeef" d="M 3.859375 11.710938 L 0.78125 8.292969 L 1.976562 8.382812 C 1.976562 8.382812 1.847656 6.402344 2.757812 4.722656 C 3.664062 3.039062 4.53125 2.503906 4.988281 2.125 C 5.445312 1.746094 6.941406 0.851562 9.167969 0.757812 C 11.390625 0.664062 12.6875 1.550781 12.6875 1.550781 L 11.941406 3.011719 C 11.941406 3.011719 10.226562 2.074219 8.429688 2.410156 C 6.632812 2.746094 6.175781 3.289062 5.625 3.65625 C 5.066406 4.011719 3.648438 5.800781 3.558594 7.675781 L 4.128906 7.152344 Z M 3.859375 11.710938 " fill-opacity="1" fill-rule="nonzero"/></g></g></g></g><g clip-path="url(#ffb079e80a)"><path fill="#e9f9ff" d="M 37.445312 25.347656 C 36.871094 24.859375 36.027344 24.460938 34.875 24.195312 L 34.875 21.890625 C 35.496094 22.023438 36.074219 22.289062 36.605469 22.6875 C 36.691406 22.734375 36.78125 22.777344 36.871094 22.734375 C 36.957031 22.734375 37.046875 22.6875 37.089844 22.601562 L 38.109375 21.140625 C 38.15625 21.050781 38.199219 20.960938 38.15625 20.871094 C 38.15625 20.785156 38.066406 20.695312 38.023438 20.652344 C 37.046875 19.988281 35.984375 19.589844 34.875 19.457031 L 34.875 18.96875 C 34.875 18.792969 34.742188 18.613281 34.523438 18.613281 L 33.503906 18.613281 C 33.328125 18.613281 33.148438 18.746094 33.148438 18.96875 L 33.148438 19.457031 C 32.21875 19.542969 31.421875 19.898438 30.800781 20.472656 C 30.09375 21.09375 29.738281 21.9375 29.738281 22.953125 C 29.738281 23.972656 30.046875 24.726562 30.667969 25.257812 C 31.246094 25.746094 32.042969 26.101562 33.148438 26.367188 L 33.148438 28.757812 C 32.394531 28.582031 31.6875 28.183594 30.976562 27.5625 C 30.890625 27.515625 30.800781 27.472656 30.710938 27.472656 C 30.625 27.472656 30.535156 27.515625 30.492188 27.605469 L 29.339844 28.980469 C 29.207031 29.113281 29.25 29.332031 29.382812 29.464844 C 30.492188 30.441406 31.777344 31.015625 33.148438 31.238281 L 33.148438 32.078125 C 33.148438 32.257812 33.28125 32.433594 33.503906 32.433594 L 34.523438 32.433594 C 34.699219 32.433594 34.875 32.300781 34.875 32.078125 L 34.875 31.238281 C 35.894531 31.148438 36.691406 30.796875 37.355469 30.21875 C 38.066406 29.597656 38.464844 28.757812 38.464844 27.738281 C 38.421875 26.675781 38.109375 25.878906 37.445312 25.347656 Z M 35.808594 27.828125 C 35.808594 28.09375 35.71875 28.316406 35.496094 28.492188 C 35.320312 28.625 35.097656 28.714844 34.832031 28.800781 L 34.832031 26.808594 C 35.230469 26.984375 35.453125 27.117188 35.539062 27.207031 C 35.761719 27.339844 35.808594 27.5625 35.808594 27.828125 Z M 32.351562 22.734375 C 32.351562 22.46875 32.441406 22.289062 32.660156 22.113281 C 32.792969 21.980469 32.972656 21.890625 33.191406 21.847656 L 33.191406 23.707031 C 32.839844 23.574219 32.660156 23.441406 32.574219 23.351562 C 32.394531 23.175781 32.351562 23 32.351562 22.734375 Z M 32.351562 22.734375 " fill-opacity="1" fill-rule="nonzero"/></g><g transform="matrix(1, 0, 0, 1, 55, 11)"><g clip-path="url(#1ea2274e8b)"><g fill="#020a7c" fill-opacity="1"><g transform="translate(1.205023, 22.024724)"><g><path d="M 6.671875 0.15625 C 6.035156 0.15625 5.265625 0.0664062 4.359375 -0.109375 C 3.453125 -0.296875 2.640625 -0.554688 1.921875 -0.890625 C 1.804688 -0.953125 1.675781 -1.054688 1.53125 -1.203125 C 1.382812 -1.359375 1.3125 -1.53125 1.3125 -1.71875 C 1.3125 -1.832031 1.320312 -1.898438 1.34375 -1.921875 L 2.015625 -3.515625 C 2.140625 -3.835938 2.382812 -4 2.75 -4 C 2.894531 -4 2.988281 -3.988281 3.03125 -3.96875 C 3.675781 -3.726562 4.394531 -3.523438 5.1875 -3.359375 C 5.988281 -3.203125 6.601562 -3.125 7.03125 -3.125 C 7.238281 -3.125 7.523438 -3.140625 7.890625 -3.171875 C 8.253906 -3.210938 8.628906 -3.304688 9.015625 -3.453125 C 9.398438 -3.597656 9.722656 -3.800781 9.984375 -4.0625 C 10.253906 -4.332031 10.390625 -4.679688 10.390625 -5.109375 C 10.390625 -5.660156 10.160156 -6.09375 9.703125 -6.40625 C 9.242188 -6.71875 8.65625 -6.972656 7.9375 -7.171875 C 7.226562 -7.378906 6.46875 -7.59375 5.65625 -7.8125 C 4.84375 -8.03125 4.078125 -8.3125 3.359375 -8.65625 C 2.648438 -9 2.066406 -9.460938 1.609375 -10.046875 C 1.148438 -10.628906 0.921875 -11.398438 0.921875 -12.359375 C 0.921875 -13.316406 1.101562 -14.179688 1.46875 -14.953125 C 1.832031 -15.722656 2.503906 -16.335938 3.484375 -16.796875 C 4.460938 -17.253906 5.867188 -17.484375 7.703125 -17.484375 C 8.046875 -17.484375 8.625 -17.410156 9.4375 -17.265625 C 10.257812 -17.128906 11.046875 -16.976562 11.796875 -16.8125 C 11.984375 -16.769531 12.15625 -16.6875 12.3125 -16.5625 C 12.476562 -16.445312 12.5625 -16.296875 12.5625 -16.109375 C 12.5625 -16.015625 12.550781 -15.84375 12.53125 -15.59375 C 12.507812 -15.351562 12.476562 -14.96875 12.4375 -14.4375 C 12.40625 -14.144531 12.304688 -13.960938 12.140625 -13.890625 C 11.972656 -13.828125 11.78125 -13.796875 11.5625 -13.796875 C 11.15625 -13.847656 10.695312 -13.90625 10.1875 -13.96875 C 9.675781 -14.03125 9.207031 -14.085938 8.78125 -14.140625 C 8.351562 -14.191406 8.066406 -14.21875 7.921875 -14.21875 C 6.816406 -14.21875 5.984375 -14.144531 5.421875 -14 C 4.867188 -13.863281 4.59375 -13.488281 4.59375 -12.875 C 4.59375 -12.320312 4.820312 -11.910156 5.28125 -11.640625 C 5.738281 -11.378906 6.328125 -11.164062 7.046875 -11 C 7.773438 -10.84375 8.539062 -10.660156 9.34375 -10.453125 C 10.144531 -10.253906 10.90625 -9.957031 11.625 -9.5625 C 12.351562 -9.175781 12.945312 -8.617188 13.40625 -7.890625 C 13.863281 -7.171875 14.09375 -6.203125 14.09375 -4.984375 C 14.09375 -3.191406 13.46875 -1.882812 12.21875 -1.0625 C 10.976562 -0.25 9.128906 0.15625 6.671875 0.15625 Z M 6.671875 0.15625 "/></g></g></g><g fill="#020a7c" fill-opacity="1"><g transform="translate(15.911551, 22.024724)"><g><path d="M 2.078125 0 C 1.878906 0 1.710938 -0.0625 1.578125 -0.1875 C 1.441406 -0.320312 1.375 -0.492188 1.375 -0.703125 L 1.375 -16.671875 C 1.375 -16.867188 1.441406 -17.035156 1.578125 -17.171875 C 1.710938 -17.304688 1.878906 -17.375 2.078125 -17.375 L 4.34375 -17.375 C 4.539062 -17.375 4.707031 -17.304688 4.84375 -17.171875 C 4.976562 -17.035156 5.046875 -16.867188 5.046875 -16.671875 L 5.046875 -0.703125 C 5.046875 -0.492188 4.976562 -0.320312 4.84375 -0.1875 C 4.707031 -0.0625 4.539062 0 4.34375 0 Z M 2.078125 0 "/></g></g></g><g fill="#020a7c" fill-opacity="1"><g transform="translate(22.332284, 22.024724)"><g><path d="M 2.078125 0 C 1.878906 0 1.710938 -0.0625 1.578125 -0.1875 C 1.441406 -0.320312 1.375 -0.492188 1.375 -0.703125 L 1.375 -16.671875 C 1.375 -16.867188 1.441406 -17.035156 1.578125 -17.171875 C 1.710938 -17.304688 1.878906 -17.375 2.078125 -17.375 L 4.59375 -17.375 C 4.75 -17.375 4.910156 -17.328125 5.078125 -17.234375 C 5.253906 -17.140625 5.40625 -16.976562 5.53125 -16.75 L 11.34375 -7.21875 L 11.34375 -16.671875 C 11.34375 -16.867188 11.40625 -17.035156 11.53125 -17.171875 C 11.664062 -17.304688 11.835938 -17.375 12.046875 -17.375 L 14.3125 -17.375 C 14.507812 -17.375 14.675781 -17.304688 14.8125 -17.171875 C 14.945312 -17.035156 15.015625 -16.867188 15.015625 -16.671875 L 15.015625 -0.703125 C 15.015625 -0.492188 14.945312 -0.320312 14.8125 -0.1875 C 14.675781 -0.0625 14.507812 0 14.3125 0 L 12.046875 0 C 11.660156 0 11.351562 -0.203125 11.125 -0.609375 L 5.046875 -10.609375 L 5.046875 -0.703125 C 5.046875 -0.492188 4.976562 -0.320312 4.84375 -0.1875 C 4.707031 -0.0625 4.539062 0 4.34375 0 Z M 2.078125 0 "/></g></g></g><g fill="#020a7c" fill-opacity="1"><g transform="translate(38.720431, 22.024724)"><g><path d="M 8.71875 0.15625 C 7.695312 0.15625 6.71875 0.00390625 5.78125 -0.296875 C 4.84375 -0.609375 4.003906 -1.097656 3.265625 -1.765625 C 2.535156 -2.441406 1.960938 -3.332031 1.546875 -4.4375 C 1.128906 -5.550781 0.921875 -6.925781 0.921875 -8.5625 C 0.921875 -10.375 1.128906 -11.859375 1.546875 -13.015625 C 1.960938 -14.179688 2.535156 -15.085938 3.265625 -15.734375 C 4.003906 -16.378906 4.84375 -16.832031 5.78125 -17.09375 C 6.71875 -17.351562 7.695312 -17.484375 8.71875 -17.484375 C 9.382812 -17.484375 10.085938 -17.398438 10.828125 -17.234375 C 11.578125 -17.078125 12.289062 -16.742188 12.96875 -16.234375 C 13.101562 -16.128906 13.21875 -16.007812 13.3125 -15.875 C 13.40625 -15.75 13.453125 -15.613281 13.453125 -15.46875 C 13.453125 -15.445312 13.421875 -15.359375 13.359375 -15.203125 C 13.296875 -15.054688 13.09375 -14.625 12.75 -13.90625 C 12.664062 -13.644531 12.453125 -13.515625 12.109375 -13.515625 C 11.984375 -13.515625 11.851562 -13.554688 11.71875 -13.640625 C 11.164062 -13.898438 10.660156 -14.0625 10.203125 -14.125 C 9.742188 -14.1875 9.335938 -14.21875 8.984375 -14.21875 C 8.640625 -14.21875 8.21875 -14.171875 7.71875 -14.078125 C 7.21875 -13.984375 6.726562 -13.765625 6.25 -13.421875 C 5.769531 -13.078125 5.375 -12.519531 5.0625 -11.75 C 4.75 -10.988281 4.59375 -9.925781 4.59375 -8.5625 C 4.59375 -7.4375 4.75 -6.519531 5.0625 -5.8125 C 5.375 -5.113281 5.769531 -4.566406 6.25 -4.171875 C 6.726562 -3.773438 7.21875 -3.5 7.71875 -3.34375 C 8.21875 -3.195312 8.640625 -3.125 8.984375 -3.125 C 9.359375 -3.125 9.757812 -3.144531 10.1875 -3.1875 C 10.613281 -3.238281 11.125 -3.421875 11.71875 -3.734375 C 11.851562 -3.816406 11.984375 -3.859375 12.109375 -3.859375 C 12.453125 -3.859375 12.664062 -3.722656 12.75 -3.453125 C 13.09375 -2.765625 13.296875 -2.34375 13.359375 -2.1875 C 13.421875 -2.03125 13.453125 -1.929688 13.453125 -1.890625 C 13.453125 -1.753906 13.40625 -1.617188 13.3125 -1.484375 C 13.21875 -1.347656 13.101562 -1.226562 12.96875 -1.125 C 12.289062 -0.601562 11.582031 -0.257812 10.84375 -0.09375 C 10.113281 0.0703125 9.40625 0.15625 8.71875 0.15625 Z M 8.71875 0.15625 "/></g></g></g><g fill="#020a7c" fill-opacity="1"><g transform="translate(52.784885, 22.024724)"><g><path d="M 2.078125 0 C 1.878906 0 1.710938 -0.0625 1.578125 -0.1875 C 1.441406 -0.320312 1.375 -0.492188 1.375 -0.703125 L 1.375 -16.671875 C 1.375 -16.867188 1.441406 -17.035156 1.578125 -17.171875 C 1.710938 -17.304688 1.878906 -17.375 2.078125 -17.375 L 4.34375 -17.375 C 4.539062 -17.375 4.707031 -17.304688 4.84375 -17.171875 C 4.976562 -17.035156 5.046875 -16.867188 5.046875 -16.671875 L 5.046875 -3.296875 L 11.6875 -3.296875 C 11.882812 -3.296875 12.050781 -3.226562 12.1875 -3.09375 C 12.320312 -2.96875 12.390625 -2.800781 12.390625 -2.59375 L 12.390625 -0.703125 C 12.390625 -0.492188 12.320312 -0.320312 12.1875 -0.1875 C 12.050781 -0.0625 11.882812 0 11.6875 0 Z M 2.078125 0 "/></g></g></g><g clip-path="url(#b52234f6ab)"><g fill="#020a7c" fill-opacity="1"><g transform="translate(65.626343, 22.024724)"><g><path d="M 13.875 0.15625 C 13.207031 0.15625 12.703125 -0.0195312 12.359375 -0.375 C 12.023438 -0.738281 11.785156 -1.148438 11.640625 -1.609375 C 11.503906 -2.066406 11.363281 -2.457031 11.21875 -2.78125 L 10.734375 -3.90625 L 5.296875 -3.90625 L 4.21875 -0.734375 C 4.09375 -0.242188 3.828125 0 3.421875 0 L 1.015625 0 C 0.804688 0 0.632812 -0.0625 0.5 -0.1875 C 0.375 -0.320312 0.3125 -0.492188 0.3125 -0.703125 L 5.78125 -16.671875 C 5.945312 -17.140625 6.234375 -17.375 6.640625 -17.375 L 9.390625 -17.375 C 9.796875 -17.375 10.082031 -17.140625 10.25 -16.671875 L 14.765625 -3.734375 C 14.992188 -3.097656 15.21875 -2.707031 15.4375 -2.5625 C 15.6875 -2.425781 15.8125 -2.210938 15.8125 -1.921875 L 15.8125 -0.859375 C 15.8125 -0.472656 15.59375 -0.207031 15.15625 -0.0625 C 14.71875 0.0820312 14.289062 0.15625 13.875 0.15625 Z M 6.390625 -7.21875 L 9.65625 -7.21875 L 8.015625 -12.234375 Z M 6.390625 -7.21875 "/></g></g></g></g></g></g><g fill="#2bd903" fill-opacity="1"><g transform="translate(94.638444, 49.832304)"><g><path d="M 1.890625 0 C 1.703125 0 1.546875 -0.0625 1.421875 -0.1875 C 1.304688 -0.320312 1.25 -0.484375 1.25 -0.671875 L 1.25 -15.1875 C 1.25 -15.375 1.304688 -15.523438 1.421875 -15.640625 C 1.546875 -15.765625 1.703125 -15.828125 1.890625 -15.828125 L 6.21875 -15.828125 C 7.457031 -15.828125 8.5 -15.6875 9.34375 -15.40625 C 10.195312 -15.132812 10.835938 -14.65625 11.265625 -13.96875 C 11.691406 -13.28125 11.90625 -12.320312 11.90625 -11.09375 C 11.90625 -10.5 11.765625 -9.921875 11.484375 -9.359375 C 11.203125 -8.804688 10.679688 -8.398438 9.921875 -8.140625 C 10.703125 -7.929688 11.351562 -7.53125 11.875 -6.9375 C 12.394531 -6.34375 12.65625 -5.597656 12.65625 -4.703125 C 12.65625 -3.484375 12.441406 -2.535156 12.015625 -1.859375 C 11.585938 -1.179688 10.953125 -0.703125 10.109375 -0.421875 C 9.265625 -0.140625 8.21875 0 6.96875 0 Z M 4.59375 -9.359375 L 6.15625 -9.359375 C 6.789062 -9.359375 7.347656 -9.460938 7.828125 -9.671875 C 8.316406 -9.890625 8.5625 -10.363281 8.5625 -11.09375 C 8.5625 -11.820312 8.316406 -12.296875 7.828125 -12.515625 C 7.347656 -12.734375 6.789062 -12.84375 6.15625 -12.84375 L 4.59375 -12.84375 Z M 4.59375 -2.984375 L 6.90625 -2.984375 C 7.539062 -2.984375 8.097656 -3.085938 8.578125 -3.296875 C 9.066406 -3.515625 9.3125 -3.984375 9.3125 -4.703125 C 9.3125 -5.429688 9.066406 -5.894531 8.578125 -6.09375 C 8.097656 -6.289062 7.539062 -6.390625 6.90625 -6.390625 L 4.59375 -6.390625 Z M 4.59375 -2.984375 "/></g></g></g><g fill="#2bd903" fill-opacity="1"><g transform="translate(107.984509, 49.832304)"><g><path d="M 6.390625 0.140625 C 4.503906 0.140625 3.109375 -0.378906 2.203125 -1.421875 C 1.296875 -2.460938 0.84375 -3.910156 0.84375 -5.765625 C 0.84375 -7.472656 1.296875 -8.847656 2.203125 -9.890625 C 3.109375 -10.929688 4.503906 -11.453125 6.390625 -11.453125 C 8.242188 -11.453125 9.628906 -10.929688 10.546875 -9.890625 C 11.472656 -8.847656 11.9375 -7.472656 11.9375 -5.765625 C 11.9375 -3.910156 11.476562 -2.460938 10.5625 -1.421875 C 9.65625 -0.378906 8.265625 0.140625 6.390625 0.140625 Z M 6.390625 -2.84375 C 7.054688 -2.84375 7.519531 -3.003906 7.78125 -3.328125 C 8.050781 -3.648438 8.210938 -4.039062 8.265625 -4.5 C 8.328125 -4.957031 8.359375 -5.375 8.359375 -5.75 C 8.359375 -6.132812 8.316406 -6.535156 8.234375 -6.953125 C 8.148438 -7.367188 7.96875 -7.722656 7.6875 -8.015625 C 7.414062 -8.304688 6.984375 -8.453125 6.390625 -8.453125 C 5.785156 -8.453125 5.34375 -8.304688 5.0625 -8.015625 C 4.789062 -7.722656 4.613281 -7.367188 4.53125 -6.953125 C 4.445312 -6.535156 4.40625 -6.132812 4.40625 -5.75 C 4.40625 -5.375 4.429688 -4.957031 4.484375 -4.5 C 4.546875 -4.039062 4.710938 -3.648438 4.984375 -3.328125 C 5.265625 -3.003906 5.734375 -2.84375 6.390625 -2.84375 Z M 6.390625 -2.84375 "/></g></g></g><g fill="#2bd903" fill-opacity="1"><g transform="translate(120.745464, 49.832304)"><g><path d="M 3.3125 0.140625 C 2.664062 0.140625 2.195312 -0.0195312 1.90625 -0.34375 C 1.625 -0.675781 1.441406 -1.050781 1.359375 -1.46875 C 1.285156 -1.882812 1.25 -2.238281 1.25 -2.53125 L 1.25 -15.1875 C 1.25 -15.375 1.304688 -15.523438 1.421875 -15.640625 C 1.546875 -15.765625 1.703125 -15.828125 1.890625 -15.828125 L 3.953125 -15.828125 C 4.140625 -15.828125 4.289062 -15.765625 4.40625 -15.640625 C 4.53125 -15.523438 4.59375 -15.375 4.59375 -15.1875 L 4.59375 -3.40625 C 4.59375 -3.082031 4.648438 -2.84375 4.765625 -2.6875 C 4.878906 -2.53125 4.988281 -2.414062 5.09375 -2.34375 C 5.320312 -2.207031 5.4375 -2.007812 5.4375 -1.75 L 5.4375 -0.78125 C 5.4375 -0.46875 5.222656 -0.234375 4.796875 -0.078125 C 4.492188 0.015625 4.222656 0.0703125 3.984375 0.09375 C 3.742188 0.125 3.519531 0.140625 3.3125 0.140625 Z M 3.3125 0.140625 "/></g></g></g><g fill="#2bd903" fill-opacity="1"><g transform="translate(127.014496, 49.832304)"><g><path d="M 5.15625 0.140625 C 4.726562 0.140625 4.160156 0.0859375 3.453125 -0.015625 C 2.742188 -0.128906 2.125 -0.289062 1.59375 -0.5 C 1.4375 -0.570312 1.300781 -0.660156 1.1875 -0.765625 C 1.082031 -0.867188 1.03125 -0.992188 1.03125 -1.140625 C 1.070312 -1.285156 1.113281 -1.460938 1.15625 -1.671875 C 1.195312 -1.890625 1.296875 -2.234375 1.453125 -2.703125 C 1.554688 -3.003906 1.78125 -3.15625 2.125 -3.15625 C 2.25 -3.15625 2.332031 -3.144531 2.375 -3.125 C 2.8125 -2.976562 3.3125 -2.867188 3.875 -2.796875 C 4.445312 -2.734375 4.851562 -2.703125 5.09375 -2.703125 C 5.269531 -2.703125 5.492188 -2.710938 5.765625 -2.734375 C 6.046875 -2.765625 6.296875 -2.832031 6.515625 -2.9375 C 6.742188 -3.039062 6.859375 -3.203125 6.859375 -3.421875 C 6.859375 -3.679688 6.710938 -3.867188 6.421875 -3.984375 C 6.140625 -4.097656 5.765625 -4.191406 5.296875 -4.265625 C 4.828125 -4.335938 4.332031 -4.425781 3.8125 -4.53125 C 3.289062 -4.644531 2.796875 -4.820312 2.328125 -5.0625 C 1.867188 -5.3125 1.492188 -5.660156 1.203125 -6.109375 C 0.921875 -6.566406 0.78125 -7.175781 0.78125 -7.9375 C 0.78125 -8.570312 0.929688 -9.15625 1.234375 -9.6875 C 1.546875 -10.21875 2.050781 -10.644531 2.75 -10.96875 C 3.457031 -11.289062 4.414062 -11.453125 5.625 -11.453125 C 5.832031 -11.453125 6.238281 -11.421875 6.84375 -11.359375 C 7.445312 -11.296875 8.007812 -11.207031 8.53125 -11.09375 C 8.695312 -11.050781 8.851562 -10.972656 9 -10.859375 C 9.15625 -10.753906 9.234375 -10.617188 9.234375 -10.453125 C 9.234375 -10.359375 9.222656 -10.195312 9.203125 -9.96875 C 9.179688 -9.75 9.148438 -9.398438 9.109375 -8.921875 C 9.078125 -8.660156 8.984375 -8.492188 8.828125 -8.421875 C 8.679688 -8.359375 8.507812 -8.328125 8.3125 -8.328125 C 7.976562 -8.367188 7.613281 -8.40625 7.21875 -8.4375 C 6.832031 -8.476562 6.582031 -8.5 6.46875 -8.5 C 5.738281 -8.5 5.171875 -8.46875 4.765625 -8.40625 C 4.359375 -8.34375 4.15625 -8.195312 4.15625 -7.96875 C 4.15625 -7.707031 4.296875 -7.519531 4.578125 -7.40625 C 4.867188 -7.300781 5.242188 -7.210938 5.703125 -7.140625 C 6.171875 -7.066406 6.664062 -6.972656 7.1875 -6.859375 C 7.707031 -6.742188 8.195312 -6.570312 8.65625 -6.34375 C 9.125 -6.113281 9.503906 -5.773438 9.796875 -5.328125 C 10.085938 -4.878906 10.234375 -4.273438 10.234375 -3.515625 C 10.234375 -2.335938 9.789062 -1.429688 8.90625 -0.796875 C 8.019531 -0.171875 6.769531 0.140625 5.15625 0.140625 Z M 5.15625 0.140625 "/></g></g></g><g fill="#2bd903" fill-opacity="1"><g transform="translate(137.797231, 49.832304)"><g><path d="M 6.390625 0.140625 C 4.503906 0.140625 3.109375 -0.378906 2.203125 -1.421875 C 1.296875 -2.460938 0.84375 -3.910156 0.84375 -5.765625 C 0.84375 -7.472656 1.296875 -8.847656 2.203125 -9.890625 C 3.109375 -10.929688 4.503906 -11.453125 6.390625 -11.453125 C 8.242188 -11.453125 9.628906 -10.929688 10.546875 -9.890625 C 11.472656 -8.847656 11.9375 -7.472656 11.9375 -5.765625 C 11.9375 -3.910156 11.476562 -2.460938 10.5625 -1.421875 C 9.65625 -0.378906 8.265625 0.140625 6.390625 0.140625 Z M 6.390625 -2.84375 C 7.054688 -2.84375 7.519531 -3.003906 7.78125 -3.328125 C 8.050781 -3.648438 8.210938 -4.039062 8.265625 -4.5 C 8.328125 -4.957031 8.359375 -5.375 8.359375 -5.75 C 8.359375 -6.132812 8.316406 -6.535156 8.234375 -6.953125 C 8.148438 -7.367188 7.96875 -7.722656 7.6875 -8.015625 C 7.414062 -8.304688 6.984375 -8.453125 6.390625 -8.453125 C 5.785156 -8.453125 5.34375 -8.304688 5.0625 -8.015625 C 4.789062 -7.722656 4.613281 -7.367188 4.53125 -6.953125 C 4.445312 -6.535156 4.40625 -6.132812 4.40625 -5.75 C 4.40625 -5.375 4.429688 -4.957031 4.484375 -4.5 C 4.546875 -4.039062 4.710938 -3.648438 4.984375 -3.328125 C 5.265625 -3.003906 5.734375 -2.84375 6.390625 -2.84375 Z M 6.390625 -2.84375 "/></g></g></g></svg>