<svg xmlns="http://www.w3.org/2000/svg" xmlns:xlink="http://www.w3.org/1999/xlink" width="215" zoomAndPan="magnify" viewBox="0 0 161.25 68.999997" height="92" preserveAspectRatio="xMidYMid meet" version="1.0"><defs><g/><clipPath id="8de70f7564"><path d="M 0 10.082031 L 52.257812 10.082031 L 52.257812 42.929688 L 0 42.929688 Z M 0 10.082031 " clip-rule="nonzero"/></clipPath><clipPath id="0521cbfaf2"><path d="M 0 0.0820312 L 52 0.0820312 L 52 32.683594 L 0 32.683594 Z M 0 0.0820312 " clip-rule="nonzero"/></clipPath><clipPath id="6655024d81"><rect x="0" width="53" y="0" height="33"/></clipPath><clipPath id="23ac70ba19"><path d="M 8.117188 31.875 L 29.765625 31.875 L 29.765625 53.476562 L 8.117188 53.476562 Z M 8.117188 31.875 " clip-rule="nonzero"/></clipPath><clipPath id="229173ab66"><path d="M 10.746094 35.65625 L 27.171875 35.65625 L 27.171875 49.84375 L 10.746094 49.84375 Z M 10.746094 35.65625 " clip-rule="nonzero"/></clipPath><clipPath id="8d120da67c"><path d="M 5 3 L 17.113281 3 L 17.113281 14.84375 L 5 14.84375 Z M 5 3 " clip-rule="nonzero"/></clipPath><clipPath id="a6b9670f1f"><path d="M 0.746094 0.65625 L 13 0.65625 L 13 12 L 0.746094 12 Z M 0.746094 0.65625 " clip-rule="nonzero"/></clipPath><clipPath id="5a0ee95abf"><rect x="0" width="18" y="0" height="15"/></clipPath><clipPath id="186997642c"><path d="M 28 18.695312 L 31 18.695312 L 31 22 L 28 22 Z M 28 18.695312 " clip-rule="nonzero"/></clipPath><clipPath id="966ffa98b7"><path d="M 26.015625 20 L 38.707031 20 L 38.707031 31.386719 L 26.015625 31.386719 Z M 26.015625 20 " clip-rule="nonzero"/></clipPath><clipPath id="a583ff538d"><path d="M 34 18.695312 L 36 18.695312 L 36 22 L 34 22 Z M 34 18.695312 " clip-rule="nonzero"/></clipPath><clipPath id="a082c84b34"><rect x="0" width="82" y="0" height="35"/></clipPath><clipPath id="aa02e2fe71"><path d="M 0.460938 4 L 15 4 L 15 20 L 0.460938 20 Z M 0.460938 4 " clip-rule="nonzero"/></clipPath><clipPath id="dffc3d9987"><rect x="0" width="72" y="0" height="30"/></clipPath></defs><g clip-path="url(#8de70f7564)"><g transform="matrix(1, 0, 0, 1, 0, 10)"><g clip-path="url(#6655024d81)"><g clip-path="url(#0521cbfaf2)"><path fill="#8c52ff" d="M 9.640625 13.566406 L 10.410156 13.566406 C 11.175781 10.347656 14.074219 7.9375 17.542969 7.9375 C 18.386719 7.9375 19.238281 8.121094 19.945312 8.359375 C 21.640625 3.542969 26.234375 0.0859375 31.652344 0.0859375 C 38.511719 0.0859375 44.070312 5.617188 44.070312 12.441406 C 44.070312 12.871094 44.046875 13.296875 44.007812 13.714844 C 48.515625 14.492188 51.972656 18.414062 51.972656 23.113281 C 51.972656 28.363281 47.65625 32.660156 42.378906 32.660156 L 9.644531 32.660156 C 4.367188 32.660156 0.0507812 28.367188 0.0507812 23.113281 C 0.046875 17.863281 4.363281 13.566406 9.640625 13.566406 Z M 9.640625 13.566406 " fill-opacity="1" fill-rule="nonzero"/></g></g></g></g><g clip-path="url(#23ac70ba19)"><path fill="#e9f9ff" d="M 29.71875 42.675781 C 29.71875 48.640625 24.882812 53.476562 18.917969 53.476562 C 12.953125 53.476562 8.117188 48.640625 8.117188 42.675781 C 8.117188 36.710938 12.953125 31.875 18.917969 31.875 C 24.882812 31.875 29.71875 36.710938 29.71875 42.675781 Z M 29.71875 42.675781 " fill-opacity="1" fill-rule="nonzero"/></g><g clip-path="url(#229173ab66)"><g transform="matrix(1, 0, 0, 1, 10, 35)"><g clip-path="url(#5a0ee95abf)"><g clip-path="url(#8d120da67c)"><path fill="#00aeef" d="M 14.023438 3.644531 L 17.09375 7.058594 L 15.902344 6.964844 C 15.902344 6.964844 16.03125 8.945312 15.125 10.625 C 14.214844 12.300781 13.34375 12.832031 12.886719 13.210938 C 12.429688 13.589844 10.9375 14.480469 8.714844 14.574219 C 6.492188 14.667969 5.207031 13.78125 5.207031 13.78125 L 5.953125 12.332031 C 5.953125 12.332031 7.664062 13.265625 9.457031 12.929688 C 11.25 12.59375 11.710938 12.046875 12.257812 11.6875 C 12.816406 11.332031 14.230469 9.546875 14.324219 7.671875 L 13.753906 8.195312 Z M 14.023438 3.644531 " fill-opacity="1" fill-rule="nonzero"/></g><g clip-path="url(#a6b9670f1f)"><path fill="#00aeef" d="M 3.835938 11.6875 L 0.765625 8.273438 L 1.957031 8.367188 C 1.957031 8.367188 1.828125 6.386719 2.738281 4.707031 C 3.644531 3.03125 4.507812 2.496094 4.964844 2.117188 C 5.421875 1.738281 6.914062 0.84375 9.136719 0.75 C 11.359375 0.65625 12.652344 1.542969 12.652344 1.542969 L 11.910156 3 C 11.910156 3 10.195312 2.066406 8.402344 2.402344 C 6.609375 2.738281 6.152344 3.28125 5.601562 3.644531 C 5.042969 4 3.628906 5.789062 3.535156 7.660156 L 4.109375 7.136719 Z M 3.835938 11.6875 " fill-opacity="1" fill-rule="nonzero"/></g></g></g></g><path fill="#e9f9ff" d="M 30.007812 25.339844 L 29.105469 25.339844 C 28.902344 25.339844 28.738281 25.503906 28.738281 25.703125 L 28.738281 26.609375 C 28.738281 26.8125 28.902344 26.972656 29.105469 26.972656 L 30.007812 26.972656 C 30.210938 26.972656 30.375 26.8125 30.375 26.609375 L 30.375 25.703125 C 30.375 25.503906 30.210938 25.339844 30.007812 25.339844 Z M 30.007812 25.339844 " fill-opacity="1" fill-rule="nonzero"/><path fill="#e9f9ff" d="M 30.007812 27.953125 L 29.105469 27.953125 C 28.902344 27.953125 28.738281 28.117188 28.738281 28.316406 L 28.738281 29.222656 C 28.738281 29.425781 28.902344 29.585938 29.105469 29.585938 L 30.007812 29.585938 C 30.210938 29.585938 30.375 29.425781 30.375 29.222656 L 30.375 28.316406 C 30.375 28.117188 30.210938 27.953125 30.007812 27.953125 Z M 30.007812 27.953125 " fill-opacity="1" fill-rule="nonzero"/><path fill="#e9f9ff" d="M 32.832031 25.339844 L 31.925781 25.339844 C 31.722656 25.339844 31.5625 25.503906 31.5625 25.703125 L 31.5625 26.609375 C 31.5625 26.8125 31.722656 26.972656 31.925781 26.972656 L 32.832031 26.972656 C 33.03125 26.972656 33.195312 26.8125 33.195312 26.609375 L 33.195312 25.703125 C 33.195312 25.503906 33.03125 25.339844 32.832031 25.339844 Z M 32.832031 25.339844 " fill-opacity="1" fill-rule="nonzero"/><path fill="#e9f9ff" d="M 32.832031 27.953125 L 31.925781 27.953125 C 31.722656 27.953125 31.5625 28.117188 31.5625 28.316406 L 31.5625 29.222656 C 31.5625 29.425781 31.722656 29.585938 31.925781 29.585938 L 32.832031 29.585938 C 33.03125 29.585938 33.195312 29.425781 33.195312 29.222656 L 33.195312 28.316406 C 33.195312 28.117188 33.03125 27.953125 32.832031 27.953125 Z M 32.832031 27.953125 " fill-opacity="1" fill-rule="nonzero"/><path fill="#e9f9ff" d="M 35.652344 25.339844 L 34.746094 25.339844 C 34.546875 25.339844 34.382812 25.503906 34.382812 25.703125 L 34.382812 26.609375 C 34.382812 26.8125 34.546875 26.972656 34.746094 26.972656 L 35.652344 26.972656 C 35.855469 26.972656 36.015625 26.8125 36.015625 26.609375 L 36.015625 25.703125 C 36.015625 25.503906 35.855469 25.339844 35.652344 25.339844 Z M 35.652344 25.339844 " fill-opacity="1" fill-rule="nonzero"/><path fill="#e9f9ff" d="M 35.652344 27.953125 L 34.746094 27.953125 C 34.546875 27.953125 34.382812 28.117188 34.382812 28.316406 L 34.382812 29.222656 C 34.382812 29.425781 34.546875 29.585938 34.746094 29.585938 L 35.652344 29.585938 C 35.855469 29.585938 36.015625 29.425781 36.015625 29.222656 L 36.015625 28.316406 C 36.015625 28.117188 35.855469 27.953125 35.652344 27.953125 Z M 35.652344 27.953125 " fill-opacity="1" fill-rule="nonzero"/><g clip-path="url(#186997642c)"><path fill="#e9f9ff" d="M 29.4375 21.554688 C 29.792969 21.554688 30.082031 21.265625 30.082031 20.910156 L 30.082031 19.328125 C 30.082031 18.972656 29.792969 18.683594 29.4375 18.683594 C 29.078125 18.683594 28.789062 18.972656 28.789062 19.328125 L 28.789062 20.910156 C 28.789062 21.265625 29.078125 21.554688 29.4375 21.554688 Z M 29.4375 21.554688 " fill-opacity="1" fill-rule="nonzero"/></g><g clip-path="url(#966ffa98b7)"><path fill="#e9f9ff" d="M 36.757812 20.355469 L 36.328125 20.355469 L 36.328125 20.910156 C 36.328125 21.464844 35.875 21.917969 35.320312 21.917969 C 34.765625 21.917969 34.3125 21.464844 34.3125 20.910156 L 34.3125 20.355469 L 30.441406 20.355469 L 30.441406 20.910156 C 30.441406 21.464844 29.992188 21.917969 29.4375 21.917969 C 28.878906 21.917969 28.429688 21.464844 28.429688 20.910156 L 28.429688 20.355469 L 28 20.355469 C 26.949219 20.355469 26.089844 21.210938 26.089844 22.265625 L 26.089844 29.8125 C 26.089844 30.867188 26.949219 31.722656 28 31.722656 L 36.757812 31.722656 C 37.808594 31.722656 38.664062 30.867188 38.664062 29.8125 L 38.664062 22.265625 C 38.667969 21.210938 37.808594 20.355469 36.757812 20.355469 Z M 37.5625 29.8125 C 37.5625 30.257812 37.203125 30.621094 36.757812 30.621094 L 28 30.621094 C 27.554688 30.621094 27.195312 30.257812 27.195312 29.8125 L 27.195312 24.683594 C 27.195312 24.476562 27.363281 24.308594 27.570312 24.308594 L 37.183594 24.308594 C 37.394531 24.308594 37.5625 24.476562 37.5625 24.683594 Z M 37.5625 29.8125 " fill-opacity="1" fill-rule="nonzero"/></g><g clip-path="url(#a583ff538d)"><path fill="#e9f9ff" d="M 35.320312 21.554688 C 35.675781 21.554688 35.964844 21.265625 35.964844 20.910156 L 35.964844 19.328125 C 35.964844 18.972656 35.675781 18.683594 35.320312 18.683594 C 34.964844 18.683594 34.675781 18.972656 34.675781 19.328125 L 34.675781 20.910156 C 34.675781 21.265625 34.964844 21.554688 35.320312 21.554688 Z M 35.320312 21.554688 " fill-opacity="1" fill-rule="nonzero"/></g><g transform="matrix(1, 0, 0, 1, 59, 11)"><g clip-path="url(#a082c84b34)"><g fill="#020a7c" fill-opacity="1"><g transform="translate(0.851736, 22.022324)"><g><path d="M 6.65625 0.15625 C 6.019531 0.15625 5.25 0.0664062 4.34375 -0.109375 C 3.4375 -0.296875 2.628906 -0.554688 1.921875 -0.890625 C 1.796875 -0.953125 1.660156 -1.054688 1.515625 -1.203125 C 1.378906 -1.359375 1.3125 -1.523438 1.3125 -1.703125 C 1.3125 -1.828125 1.320312 -1.898438 1.34375 -1.921875 L 2.015625 -3.515625 C 2.140625 -3.835938 2.382812 -4 2.75 -4 C 2.894531 -4 2.984375 -3.988281 3.015625 -3.96875 C 3.671875 -3.726562 4.394531 -3.523438 5.1875 -3.359375 C 5.976562 -3.191406 6.585938 -3.109375 7.015625 -3.109375 C 7.222656 -3.109375 7.507812 -3.128906 7.875 -3.171875 C 8.238281 -3.210938 8.613281 -3.300781 9 -3.4375 C 9.394531 -3.582031 9.722656 -3.785156 9.984375 -4.046875 C 10.242188 -4.316406 10.375 -4.664062 10.375 -5.09375 C 10.375 -5.644531 10.144531 -6.078125 9.6875 -6.390625 C 9.226562 -6.710938 8.644531 -6.972656 7.9375 -7.171875 C 7.226562 -7.378906 6.460938 -7.585938 5.640625 -7.796875 C 4.828125 -8.015625 4.066406 -8.296875 3.359375 -8.640625 C 2.648438 -8.984375 2.066406 -9.445312 1.609375 -10.03125 C 1.148438 -10.613281 0.921875 -11.378906 0.921875 -12.328125 C 0.921875 -13.285156 1.101562 -14.148438 1.46875 -14.921875 C 1.832031 -15.703125 2.503906 -16.320312 3.484375 -16.78125 C 4.460938 -17.238281 5.863281 -17.46875 7.6875 -17.46875 C 8.039062 -17.46875 8.625 -17.394531 9.4375 -17.25 C 10.25 -17.101562 11.03125 -16.953125 11.78125 -16.796875 C 11.96875 -16.753906 12.140625 -16.671875 12.296875 -16.546875 C 12.460938 -16.421875 12.546875 -16.269531 12.546875 -16.09375 C 12.546875 -15.988281 12.535156 -15.8125 12.515625 -15.5625 C 12.492188 -15.320312 12.460938 -14.9375 12.421875 -14.40625 C 12.378906 -14.125 12.273438 -13.945312 12.109375 -13.875 C 11.953125 -13.800781 11.765625 -13.765625 11.546875 -13.765625 C 11.140625 -13.828125 10.679688 -13.890625 10.171875 -13.953125 C 9.660156 -14.015625 9.191406 -14.070312 8.765625 -14.125 C 8.335938 -14.175781 8.050781 -14.203125 7.90625 -14.203125 C 6.8125 -14.203125 5.984375 -14.128906 5.421875 -13.984375 C 4.859375 -13.835938 4.578125 -13.460938 4.578125 -12.859375 C 4.578125 -12.304688 4.804688 -11.894531 5.265625 -11.625 C 5.722656 -11.363281 6.3125 -11.148438 7.03125 -10.984375 C 7.757812 -10.828125 8.523438 -10.644531 9.328125 -10.4375 C 10.128906 -10.238281 10.890625 -9.941406 11.609375 -9.546875 C 12.335938 -9.160156 12.929688 -8.609375 13.390625 -7.890625 C 13.847656 -7.171875 14.078125 -6.203125 14.078125 -4.984375 C 14.078125 -3.191406 13.453125 -1.882812 12.203125 -1.0625 C 10.960938 -0.25 9.113281 0.15625 6.65625 0.15625 Z M 6.65625 0.15625 "/></g></g></g><g fill="#020a7c" fill-opacity="1"><g transform="translate(15.535781, 22.022324)"><g><path d="M 2.078125 0 C 1.867188 0 1.695312 -0.0625 1.5625 -0.1875 C 1.4375 -0.320312 1.375 -0.492188 1.375 -0.703125 L 1.375 -16.640625 C 1.375 -16.835938 1.4375 -17.003906 1.5625 -17.140625 C 1.695312 -17.273438 1.867188 -17.34375 2.078125 -17.34375 L 4.328125 -17.34375 C 4.535156 -17.34375 4.703125 -17.273438 4.828125 -17.140625 C 4.960938 -17.003906 5.03125 -16.835938 5.03125 -16.640625 L 5.03125 -0.703125 C 5.03125 -0.492188 4.960938 -0.320312 4.828125 -0.1875 C 4.703125 -0.0625 4.535156 0 4.328125 0 Z M 2.078125 0 "/></g></g></g><g fill="#020a7c" fill-opacity="1"><g transform="translate(21.946698, 22.022324)"><g><path d="M 2.078125 0 C 1.867188 0 1.695312 -0.0625 1.5625 -0.1875 C 1.4375 -0.320312 1.375 -0.492188 1.375 -0.703125 L 1.375 -16.640625 C 1.375 -16.835938 1.4375 -17.003906 1.5625 -17.140625 C 1.695312 -17.273438 1.867188 -17.34375 2.078125 -17.34375 L 4.578125 -17.34375 C 4.742188 -17.34375 4.910156 -17.296875 5.078125 -17.203125 C 5.253906 -17.109375 5.40625 -16.953125 5.53125 -16.734375 L 11.328125 -7.203125 L 11.328125 -16.640625 C 11.328125 -16.835938 11.390625 -17.003906 11.515625 -17.140625 C 11.648438 -17.273438 11.820312 -17.34375 12.03125 -17.34375 L 14.28125 -17.34375 C 14.488281 -17.34375 14.65625 -17.273438 14.78125 -17.140625 C 14.914062 -17.003906 14.984375 -16.835938 14.984375 -16.640625 L 14.984375 -0.703125 C 14.984375 -0.492188 14.914062 -0.320312 14.78125 -0.1875 C 14.65625 -0.0625 14.488281 0 14.28125 0 L 12.03125 0 C 11.644531 0 11.335938 -0.203125 11.109375 -0.609375 L 5.03125 -10.59375 L 5.03125 -0.703125 C 5.03125 -0.492188 4.960938 -0.320312 4.828125 -0.1875 C 4.703125 -0.0625 4.535156 0 4.328125 0 Z M 2.078125 0 "/></g></g></g><g fill="#020a7c" fill-opacity="1"><g transform="translate(38.309791, 22.022324)"><g><path d="M 8.703125 0.15625 C 7.679688 0.15625 6.703125 0.00390625 5.765625 -0.296875 C 4.828125 -0.609375 3.992188 -1.097656 3.265625 -1.765625 C 2.535156 -2.441406 1.960938 -3.332031 1.546875 -4.4375 C 1.128906 -5.550781 0.921875 -6.921875 0.921875 -8.546875 C 0.921875 -10.359375 1.128906 -11.84375 1.546875 -13 C 1.960938 -14.164062 2.535156 -15.066406 3.265625 -15.703125 C 3.992188 -16.347656 4.828125 -16.800781 5.765625 -17.0625 C 6.703125 -17.332031 7.679688 -17.46875 8.703125 -17.46875 C 9.367188 -17.46875 10.070312 -17.382812 10.8125 -17.21875 C 11.5625 -17.050781 12.269531 -16.71875 12.9375 -16.21875 C 13.082031 -16.113281 13.203125 -15.992188 13.296875 -15.859375 C 13.390625 -15.722656 13.4375 -15.585938 13.4375 -15.453125 C 13.4375 -15.429688 13.40625 -15.34375 13.34375 -15.1875 C 13.28125 -15.03125 13.078125 -14.597656 12.734375 -13.890625 C 12.648438 -13.628906 12.4375 -13.5 12.09375 -13.5 C 11.96875 -13.5 11.832031 -13.535156 11.6875 -13.609375 C 11.144531 -13.878906 10.644531 -14.046875 10.1875 -14.109375 C 9.726562 -14.171875 9.320312 -14.203125 8.96875 -14.203125 C 8.625 -14.203125 8.203125 -14.15625 7.703125 -14.0625 C 7.210938 -13.96875 6.726562 -13.75 6.25 -13.40625 C 5.769531 -13.0625 5.367188 -12.503906 5.046875 -11.734375 C 4.734375 -10.972656 4.578125 -9.910156 4.578125 -8.546875 C 4.578125 -7.429688 4.734375 -6.519531 5.046875 -5.8125 C 5.367188 -5.113281 5.769531 -4.566406 6.25 -4.171875 C 6.726562 -3.773438 7.210938 -3.5 7.703125 -3.34375 C 8.203125 -3.1875 8.625 -3.109375 8.96875 -3.109375 C 9.34375 -3.109375 9.742188 -3.132812 10.171875 -3.1875 C 10.597656 -3.238281 11.101562 -3.414062 11.6875 -3.71875 C 11.832031 -3.800781 11.96875 -3.84375 12.09375 -3.84375 C 12.4375 -3.84375 12.648438 -3.710938 12.734375 -3.453125 C 13.078125 -2.753906 13.28125 -2.328125 13.34375 -2.171875 C 13.40625 -2.023438 13.4375 -1.929688 13.4375 -1.890625 C 13.4375 -1.742188 13.390625 -1.601562 13.296875 -1.46875 C 13.203125 -1.34375 13.082031 -1.226562 12.9375 -1.125 C 12.269531 -0.59375 11.566406 -0.242188 10.828125 -0.078125 C 10.097656 0.078125 9.390625 0.15625 8.703125 0.15625 Z M 8.703125 0.15625 "/></g></g></g><g fill="#020a7c" fill-opacity="1"><g transform="translate(52.352744, 22.022324)"><g><path d="M 2.078125 0 C 1.867188 0 1.695312 -0.0625 1.5625 -0.1875 C 1.4375 -0.320312 1.375 -0.492188 1.375 -0.703125 L 1.375 -16.640625 C 1.375 -16.835938 1.4375 -17.003906 1.5625 -17.140625 C 1.695312 -17.273438 1.867188 -17.34375 2.078125 -17.34375 L 4.328125 -17.34375 C 4.535156 -17.34375 4.703125 -17.273438 4.828125 -17.140625 C 4.960938 -17.003906 5.03125 -16.835938 5.03125 -16.640625 L 5.03125 -3.296875 L 11.65625 -3.296875 C 11.863281 -3.296875 12.03125 -3.226562 12.15625 -3.09375 C 12.289062 -2.96875 12.359375 -2.800781 12.359375 -2.59375 L 12.359375 -0.703125 C 12.359375 -0.492188 12.289062 -0.320312 12.15625 -0.1875 C 12.03125 -0.0625 11.863281 0 11.65625 0 Z M 2.078125 0 "/></g></g></g><g fill="#020a7c" fill-opacity="1"><g transform="translate(65.17457, 22.022324)"><g><path d="M 13.859375 0.15625 C 13.191406 0.15625 12.6875 -0.0195312 12.34375 -0.375 C 12.007812 -0.738281 11.769531 -1.148438 11.625 -1.609375 C 11.488281 -2.066406 11.347656 -2.457031 11.203125 -2.78125 L 10.71875 -3.90625 L 5.28125 -3.90625 L 4.21875 -0.734375 C 4.09375 -0.242188 3.828125 0 3.421875 0 L 1 0 C 0.800781 0 0.632812 -0.0625 0.5 -0.1875 C 0.375 -0.320312 0.3125 -0.492188 0.3125 -0.703125 L 5.765625 -16.640625 C 5.929688 -17.109375 6.21875 -17.34375 6.625 -17.34375 L 9.375 -17.34375 C 9.78125 -17.34375 10.066406 -17.109375 10.234375 -16.640625 L 14.75 -3.71875 C 14.96875 -3.09375 15.191406 -2.707031 15.421875 -2.5625 C 15.660156 -2.414062 15.78125 -2.203125 15.78125 -1.921875 L 15.78125 -0.859375 C 15.78125 -0.472656 15.5625 -0.207031 15.125 -0.0625 C 14.6875 0.0820312 14.265625 0.15625 13.859375 0.15625 Z M 6.375 -7.203125 L 9.640625 -7.203125 L 8 -12.21875 Z M 6.375 -7.203125 "/></g></g></g></g></g><g transform="matrix(1, 0, 0, 1, 81, 29)"><g clip-path="url(#dffc3d9987)"><g clip-path="url(#aa02e2fe71)"><g fill="#8c52ff" fill-opacity="1"><g transform="translate(0.517272, 19.19843)"><g><path d="M 11.9375 0.125 C 11.351562 0.125 10.914062 -0.0234375 10.625 -0.328125 C 10.34375 -0.628906 10.140625 -0.976562 10.015625 -1.375 C 9.890625 -1.769531 9.765625 -2.109375 9.640625 -2.390625 L 9.21875 -3.359375 L 4.546875 -3.359375 L 3.625 -0.625 C 3.519531 -0.207031 3.289062 0 2.9375 0 L 0.875 0 C 0.695312 0 0.550781 -0.0546875 0.4375 -0.171875 C 0.320312 -0.285156 0.265625 -0.429688 0.265625 -0.609375 L 4.96875 -14.328125 C 5.101562 -14.722656 5.347656 -14.921875 5.703125 -14.921875 L 8.0625 -14.921875 C 8.414062 -14.921875 8.660156 -14.722656 8.796875 -14.328125 L 12.6875 -3.203125 C 12.882812 -2.660156 13.078125 -2.328125 13.265625 -2.203125 C 13.484375 -2.085938 13.59375 -1.90625 13.59375 -1.65625 L 13.59375 -0.734375 C 13.59375 -0.398438 13.398438 -0.171875 13.015625 -0.046875 C 12.640625 0.0664062 12.28125 0.125 11.9375 0.125 Z M 5.5 -6.203125 L 8.3125 -6.203125 L 6.890625 -10.515625 Z M 5.5 -6.203125 "/></g></g></g></g><g fill="#8c52ff" fill-opacity="1"><g transform="translate(14.234618, 19.19843)"><g><path d="M 4.859375 5.75 C 4.597656 5.75 4.273438 5.707031 3.890625 5.625 C 3.503906 5.539062 3.125 5.390625 2.75 5.171875 C 2.375 4.960938 2.054688 4.660156 1.796875 4.265625 C 1.546875 3.867188 1.421875 3.375 1.421875 2.78125 C 1.421875 2.03125 1.578125 1.390625 1.890625 0.859375 C 2.203125 0.335938 2.71875 -0.015625 3.4375 -0.203125 C 2.789062 -0.273438 2.253906 -0.566406 1.828125 -1.078125 C 1.398438 -1.585938 1.078125 -2.203125 0.859375 -2.921875 C 0.640625 -3.640625 0.53125 -4.335938 0.53125 -5.015625 C 0.53125 -6.160156 0.742188 -7.164062 1.171875 -8.03125 C 1.597656 -8.894531 2.222656 -9.570312 3.046875 -10.0625 C 3.867188 -10.550781 4.859375 -10.796875 6.015625 -10.796875 C 6.578125 -10.796875 7.144531 -10.75 7.71875 -10.65625 C 8.300781 -10.5625 8.914062 -10.398438 9.5625 -10.171875 C 9.84375 -10.066406 9.984375 -9.847656 9.984375 -9.515625 L 9.984375 0.53125 C 9.984375 0.875 9.960938 1.269531 9.921875 1.71875 C 9.890625 2.164062 9.800781 2.625 9.65625 3.09375 C 9.507812 3.570312 9.25 4.007812 8.875 4.40625 C 8.507812 4.8125 8.003906 5.132812 7.359375 5.375 C 6.722656 5.625 5.890625 5.75 4.859375 5.75 Z M 5.46875 -2.28125 C 5.65625 -2.28125 5.835938 -2.316406 6.015625 -2.390625 C 6.191406 -2.460938 6.34375 -2.539062 6.46875 -2.625 C 6.59375 -2.695312 6.710938 -2.8125 6.828125 -2.96875 L 6.828125 -8.125 C 6.023438 -8.125 5.410156 -7.972656 4.984375 -7.671875 C 4.566406 -7.378906 4.28125 -6.988281 4.125 -6.5 C 3.96875 -6.019531 3.890625 -5.519531 3.890625 -5 C 3.890625 -4.007812 4.035156 -3.304688 4.328125 -2.890625 C 4.628906 -2.484375 5.007812 -2.28125 5.46875 -2.28125 Z M 5.546875 2.9375 C 5.929688 2.9375 6.238281 2.8125 6.46875 2.5625 C 6.707031 2.320312 6.828125 1.929688 6.828125 1.390625 L 6.828125 -0.46875 C 6.128906 -0.15625 5.609375 0.144531 5.265625 0.4375 C 4.921875 0.726562 4.695312 0.984375 4.59375 1.203125 C 4.488281 1.429688 4.4375 1.644531 4.4375 1.84375 C 4.4375 2.03125 4.488281 2.257812 4.59375 2.53125 C 4.695312 2.800781 5.015625 2.9375 5.546875 2.9375 Z M 5.546875 2.9375 "/></g></g></g><g fill="#8c52ff" fill-opacity="1"><g transform="translate(25.402951, 19.19843)"><g><path d="M 5.8125 0.125 C 4.039062 0.125 2.757812 -0.367188 1.96875 -1.359375 C 1.175781 -2.347656 0.78125 -3.707031 0.78125 -5.4375 C 0.78125 -7.050781 1.179688 -8.347656 1.984375 -9.328125 C 2.785156 -10.304688 4.0625 -10.796875 5.8125 -10.796875 C 7.226562 -10.796875 8.320312 -10.476562 9.09375 -9.84375 C 9.863281 -9.21875 10.25 -8.425781 10.25 -7.46875 C 10.25 -6.238281 9.894531 -5.316406 9.1875 -4.703125 C 8.476562 -4.085938 7.523438 -3.78125 6.328125 -3.78125 C 5.546875 -3.78125 4.773438 -3.894531 4.015625 -4.125 C 4.015625 -3.757812 4.160156 -3.425781 4.453125 -3.125 C 4.742188 -2.832031 5.195312 -2.6875 5.8125 -2.6875 C 6.125 -2.6875 6.5625 -2.707031 7.125 -2.75 C 7.6875 -2.789062 8.210938 -2.9375 8.703125 -3.1875 C 8.804688 -3.238281 8.921875 -3.265625 9.046875 -3.265625 C 9.335938 -3.265625 9.519531 -3.148438 9.59375 -2.921875 L 10.140625 -1.78125 L 10.203125 -1.578125 C 10.203125 -1.453125 10.160156 -1.332031 10.078125 -1.21875 C 9.992188 -1.101562 9.894531 -1.003906 9.78125 -0.921875 C 9.1875 -0.390625 8.523438 -0.0820312 7.796875 0 C 7.066406 0.0820312 6.40625 0.125 5.8125 0.125 Z M 5.578125 -6.234375 C 6.585938 -6.234375 7.09375 -6.503906 7.09375 -7.046875 C 7.09375 -7.429688 6.960938 -7.679688 6.703125 -7.796875 C 6.453125 -7.910156 6.15625 -7.96875 5.8125 -7.96875 C 5.351562 -7.96875 4.960938 -7.867188 4.640625 -7.671875 C 4.316406 -7.484375 4.101562 -7.148438 4 -6.671875 C 4.1875 -6.492188 4.441406 -6.375 4.765625 -6.3125 C 5.085938 -6.257812 5.359375 -6.234375 5.578125 -6.234375 Z M 5.578125 -6.234375 "/></g></g></g><g fill="#8c52ff" fill-opacity="1"><g transform="translate(36.492448, 19.19843)"><g><path d="M 1.78125 0 C 1.613281 0 1.472656 -0.0546875 1.359375 -0.171875 C 1.242188 -0.285156 1.1875 -0.429688 1.1875 -0.609375 L 1.1875 -9.5625 C 1.1875 -9.894531 1.328125 -10.113281 1.609375 -10.21875 C 2.210938 -10.414062 2.882812 -10.5625 3.625 -10.65625 C 4.375 -10.75 5.050781 -10.796875 5.65625 -10.796875 C 7.425781 -10.796875 8.675781 -10.390625 9.40625 -9.578125 C 10.144531 -8.765625 10.515625 -7.484375 10.515625 -5.734375 L 10.515625 -0.609375 C 10.515625 -0.429688 10.457031 -0.285156 10.34375 -0.171875 C 10.226562 -0.0546875 10.082031 0 9.90625 0 L 7.96875 0 C 7.789062 0 7.644531 -0.0546875 7.53125 -0.171875 C 7.414062 -0.285156 7.359375 -0.429688 7.359375 -0.609375 L 7.359375 -5.734375 C 7.359375 -6.359375 7.328125 -6.832031 7.265625 -7.15625 C 7.203125 -7.476562 7.054688 -7.695312 6.828125 -7.8125 C 6.597656 -7.925781 6.234375 -7.984375 5.734375 -7.984375 C 5.609375 -7.984375 5.382812 -7.96875 5.0625 -7.9375 C 4.75 -7.914062 4.507812 -7.847656 4.34375 -7.734375 L 4.34375 -0.609375 C 4.34375 -0.429688 4.285156 -0.285156 4.171875 -0.171875 C 4.054688 -0.0546875 3.910156 0 3.734375 0 Z M 1.78125 0 "/></g></g></g><g fill="#8c52ff" fill-opacity="1"><g transform="translate(47.923569, 19.19843)"><g><path d="M 6.15625 0.125 C 4.382812 0.125 3.046875 -0.375 2.140625 -1.375 C 1.234375 -2.382812 0.78125 -3.765625 0.78125 -5.515625 C 0.78125 -6.671875 0.988281 -7.644531 1.40625 -8.4375 C 1.832031 -9.226562 2.40625 -9.816406 3.125 -10.203125 C 3.84375 -10.597656 4.640625 -10.796875 5.515625 -10.796875 C 5.671875 -10.796875 5.953125 -10.773438 6.359375 -10.734375 C 6.773438 -10.691406 7.144531 -10.582031 7.46875 -10.40625 L 7.46875 -14.328125 C 7.46875 -14.503906 7.523438 -14.644531 7.640625 -14.75 C 7.753906 -14.863281 7.894531 -14.921875 8.0625 -14.921875 L 10.015625 -14.921875 C 10.191406 -14.921875 10.335938 -14.863281 10.453125 -14.75 C 10.566406 -14.644531 10.625 -14.503906 10.625 -14.328125 L 10.625 -1.109375 C 10.625 -0.773438 10.484375 -0.554688 10.203125 -0.453125 C 9.585938 -0.253906 8.90625 -0.109375 8.15625 -0.015625 C 7.414062 0.078125 6.75 0.125 6.15625 0.125 Z M 6.078125 -2.6875 C 6.191406 -2.6875 6.40625 -2.695312 6.71875 -2.71875 C 7.039062 -2.75 7.289062 -2.820312 7.46875 -2.9375 L 7.46875 -7.59375 C 7.269531 -7.738281 7.035156 -7.835938 6.765625 -7.890625 C 6.492188 -7.941406 6.296875 -7.96875 6.171875 -7.96875 C 5.554688 -7.96875 5.0625 -7.789062 4.6875 -7.4375 C 4.3125 -7.082031 4.125 -6.441406 4.125 -5.515625 C 4.125 -4.566406 4.257812 -3.859375 4.53125 -3.390625 C 4.800781 -2.921875 5.316406 -2.6875 6.078125 -2.6875 Z M 6.078125 -2.6875 "/></g></g></g><g fill="#8c52ff" fill-opacity="1"><g transform="translate(59.722586, 19.19843)"><g><path d="M 4.28125 0.125 C 3.332031 0.125 2.585938 -0.113281 2.046875 -0.59375 C 1.503906 -1.070312 1.113281 -1.703125 0.875 -2.484375 C 0.644531 -3.265625 0.53125 -4.109375 0.53125 -5.015625 C 0.53125 -6.160156 0.742188 -7.164062 1.171875 -8.03125 C 1.597656 -8.894531 2.222656 -9.570312 3.046875 -10.0625 C 3.867188 -10.550781 4.859375 -10.796875 6.015625 -10.796875 C 6.578125 -10.796875 7.140625 -10.75 7.703125 -10.65625 C 8.273438 -10.5625 8.894531 -10.398438 9.5625 -10.171875 C 9.84375 -10.066406 9.984375 -9.847656 9.984375 -9.515625 L 9.984375 -0.609375 C 9.984375 -0.429688 9.925781 -0.285156 9.8125 -0.171875 C 9.695312 -0.0546875 9.550781 0 9.375 0 L 8.015625 0 C 7.710938 0 7.457031 -0.128906 7.25 -0.390625 L 6.828125 -0.875 C 6.234375 -0.375 5.71875 -0.0820312 5.28125 0 C 4.84375 0.0820312 4.507812 0.125 4.28125 0.125 Z M 5.46875 -2.6875 C 5.65625 -2.6875 5.835938 -2.71875 6.015625 -2.78125 C 6.191406 -2.851562 6.34375 -2.929688 6.46875 -3.015625 C 6.59375 -3.085938 6.710938 -3.203125 6.828125 -3.359375 L 6.828125 -7.96875 C 6.023438 -7.96875 5.410156 -7.832031 4.984375 -7.5625 C 4.566406 -7.289062 4.28125 -6.925781 4.125 -6.46875 C 3.96875 -6.007812 3.890625 -5.519531 3.890625 -5 C 3.890625 -4.03125 4.035156 -3.398438 4.328125 -3.109375 C 4.628906 -2.828125 5.007812 -2.6875 5.46875 -2.6875 Z M 5.46875 -2.6875 "/></g></g></g></g></g></svg>