<?xml version="1.0" encoding="UTF-8" standalone="no"?>
<!DOCTYPE svg PUBLIC "-//W3C//DTD SVG 1.1//EN" "http://www.w3.org/Graphics/SVG/1.1/DTD/svg11.dtd">
<svg width="100%" height="100%" viewBox="0 0 470 106" version="1.1" xmlns="http://www.w3.org/2000/svg" xmlns:xlink="http://www.w3.org/1999/xlink" xml:space="preserve" xmlns:serif="http://www.serif.com/" style="fill-rule:evenodd;clip-rule:evenodd;stroke-linejoin:round;stroke-miterlimit:2;">
    <g transform="matrix(1,0,0,1,-571.334943,-162.087707)">
        <g transform="matrix(1,0,0,1,-116.055225,83.871857)">
            <g transform="matrix(0.765191,0,0,0.765191,646.822311,65.941796)">
                <path d="M132.578,73.258C112.748,66.916 109.351,67.584 111.696,65.804C112.146,65.462 174.371,71.863 192.409,81.665C208.495,90.406 202.953,122.73 180.397,134.306C173.908,137.637 173.707,137.74 90.462,149.268C55.303,154.137 51.466,155.684 53.434,152.473C67.044,130.26 68.009,129.394 69.772,127.815C79.161,119.398 167.342,108.943 181.432,100.381C194.567,92.399 180.973,88.748 132.578,73.258Z" style="fill:rgb(9,142,238);"/>
            </g>
        </g>
        <g transform="matrix(1,0,0,1,-116.055225,83.871857)">
            <g transform="matrix(0.765191,0,0,0.765191,646.822311,65.941796)">
                <path d="M189.451,18.124C203.337,16.275 203.307,16.217 204.515,16.073C209.319,15.501 203.037,22.591 195.948,33.773C186.823,48.164 183.59,44.344 158.557,49.775C109.432,60.433 78.226,63.469 74.939,74.627C71.302,86.971 137.312,101.36 137.541,103.483C137.764,105.552 136.371,104.445 126.493,103.613C122.01,103.235 87.939,100.364 71.63,91.272C54.091,81.494 61.043,43.775 85.728,32.986C94.565,29.123 116.866,28.253 189.451,18.124Z" style="fill:white;"/>
            </g>
        </g>
        <g transform="matrix(1,0,0,1,-116.055225,83.871857)">
            <g transform="matrix(0.885892,0,0,0.885892,665.031207,-14.460857)">
                <rect x="167.832" y="138.074" width="8.832" height="69.145" style="fill:white;fill-rule:nonzero;"/>
            </g>
        </g>
        <g transform="matrix(1,0,0,1,-116.055225,83.871857)">
            <g transform="matrix(0.632032,0,0,0.885892,706.53303,-14.460857)">
                <path d="M261.87,207.22C261.87,201.688 260.801,196.387 258.664,191.316C256.527,186.245 253.656,181.531 250.052,177.173C246.448,172.815 242.425,168.875 237.983,165.355C233.541,161.835 228.994,158.902 224.343,156.555C219.691,154.208 215.228,152.532 210.954,151.526L210.954,207.22L198.382,207.22L198.382,138.074L205.171,138.074L205.171,138.2C209.697,138.451 214.495,139.436 219.565,141.154C224.636,142.873 229.728,145.24 234.84,148.257C239.953,151.275 244.835,154.795 249.486,158.818C254.138,162.841 258.266,167.325 261.87,172.27L261.87,138.074L274.442,138.074L274.442,207.22L261.87,207.22Z" style="fill:white;fill-rule:nonzero;"/>
            </g>
        </g>
        <g transform="matrix(1,0,0,1,-116.055225,83.871857)">
            <g transform="matrix(0.632032,0,0,0.885892,706.53303,-14.460857)">
                <path d="M365.336,207.22L320.706,207.22C314.253,207.22 308.595,205.669 303.734,202.568C298.873,199.467 295.101,195.276 292.419,189.996C289.737,184.716 288.396,178.849 288.396,172.395C288.396,165.942 289.737,160.117 292.419,154.921C295.101,149.724 298.873,145.575 303.734,142.474C308.595,139.373 314.253,137.823 320.706,137.823L365.336,137.823L365.336,150.52L320.706,150.52C316.683,150.52 313.205,151.505 310.271,153.475C307.338,155.444 305.075,158.064 303.483,161.332C301.89,164.601 301.094,168.289 301.094,172.395C301.094,176.502 301.89,180.232 303.483,183.584C305.075,186.937 307.338,189.598 310.271,191.568C313.205,193.537 316.683,194.522 320.706,194.522L365.336,194.522L365.336,207.22Z" style="fill:white;fill-rule:nonzero;"/>
            </g>
        </g>
        <g transform="matrix(1,0,0,1,-116.055225,83.871857)">
            <g transform="matrix(0.632032,0,0,0.885892,706.53303,-14.460857)">
                <path d="M445.419,207.22L379.291,207.22L379.291,138.074L391.863,138.074L391.863,194.648L445.419,194.648L445.419,207.22Z" style="fill:white;fill-rule:nonzero;"/>
            </g>
        </g>
        <g transform="matrix(1,0,0,1,-116.055225,83.871857)">
            <g transform="matrix(0.632032,0,0,0.885892,706.53303,-14.460857)">
                <path d="M516.355,172.695C514.437,173.777 508.76,175.853 508.76,175.853L508.76,150.52L489.923,150.52C485.817,150.52 482.087,151.526 478.734,153.538C475.382,155.549 472.7,158.21 470.688,161.521C468.677,164.831 467.671,168.54 467.671,172.647L467.671,207.22L454.974,207.22L454.974,172.647C454.974,167.87 455.875,163.365 457.676,159.132C459.478,154.9 461.993,151.191 465.22,148.006C468.446,144.821 472.176,142.328 476.409,140.526C480.641,138.724 485.146,137.823 489.923,137.823L521.332,137.823L521.332,168.763C521.332,168.763 518.45,171.513 516.355,172.695ZM521.332,191.549L521.332,207.22L508.76,207.22L508.76,191.549L521.332,191.549Z" style="fill:white;"/>
            </g>
        </g>
        <g transform="matrix(1,0,0,1,-116.055225,83.871857)">
            <g transform="matrix(1.223593,0,0,1.528222,598.434856,-313.653137)">
                <path d="M360.037,294.897L360.037,304.954L332.987,304.954C332.987,304.954 343.801,302.361 347.812,301.173C353.45,299.503 360.037,294.897 360.037,294.897Z" style="fill:rgb(17,157,255);"/>
            </g>
        </g>
        <g transform="matrix(0.560744,0,0,0.705115,531.627942,149.886514)">
            <g transform="matrix(0.882188,0,0,1,83.699578,-0)">
                <path d="M710.451,148.404L710.451,58.515L785.756,58.515C795.059,58.515 802.288,60.862 807.443,65.555C812.597,70.249 815.174,77.373 815.174,86.927C815.174,95.057 813.288,101.427 809.517,106.037C805.745,110.646 800.381,113.538 793.425,114.711L814.169,148.404L791.288,148.404L772.053,115.34L730.566,115.34L730.566,148.404L710.451,148.404ZM783.367,74.858L730.566,74.858L730.566,98.871L783.367,98.996C787.055,98.996 789.884,98.074 791.853,96.231C793.823,94.387 794.808,91.286 794.808,86.927C794.808,82.485 793.823,79.363 791.853,77.561C789.884,75.759 787.055,74.858 783.367,74.858Z" style="fill:rgb(59,183,11);fill-rule:nonzero;"/>
            </g>
        </g>
        <g transform="matrix(0.560744,0,0,0.705115,531.627942,149.886514)">
            <g transform="matrix(0.882188,0,0,1,83.699578,-0)">
                <path d="M830.26,148.404L830.26,58.515L850.375,58.515L850.375,95.35L913.738,95.35L913.738,58.515L933.853,58.515L933.853,148.404L913.738,148.404L913.738,111.694L850.375,111.694L850.375,148.404L830.26,148.404Z" style="fill:rgb(59,183,11);fill-rule:nonzero;"/>
            </g>
        </g>
    </g>
</svg>
