<?xml version="1.0" encoding="UTF-8" standalone="no"?>
<!DOCTYPE svg PUBLIC "-//W3C//DTD SVG 1.1//EN" "http://www.w3.org/Graphics/SVG/1.1/DTD/svg11.dtd">
<svg width="100%" height="100%" viewBox="0 0 211 264" version="1.1" xmlns="http://www.w3.org/2000/svg" xmlns:xlink="http://www.w3.org/1999/xlink" xml:space="preserve" xmlns:serif="http://www.serif.com/" style="fill-rule:evenodd;clip-rule:evenodd;stroke-linejoin:round;stroke-miterlimit:2;">
    <g transform="matrix(1,0,0,1,-1079.570477,-13.184903)">
        <g transform="matrix(0.349279,0,0,0.4385,1079.570477,13.184903)">
            <g transform="matrix(4.22418,0,0,3.364694,0,-186.281247)">
                <path d="M142.522,68.104L142.522,220.945C142.522,227.977 136.813,233.686 129.781,233.686L12.741,233.686C5.709,233.686 0,227.977 0,220.945L0,68.104C0,61.072 5.709,55.364 12.741,55.364L129.781,55.364C136.813,55.364 142.522,61.072 142.522,68.104Z" style="fill:white;"/>
            </g>
        </g>
        <g transform="matrix(0.349279,0,0,0.4385,1079.570477,13.184903)">
            <g transform="matrix(2.085848,0,0,1.661444,29.655664,66.019066)">
                <path d="M132.578,73.258C112.748,66.916 109.351,67.584 111.696,65.804C112.146,65.462 174.371,71.863 192.409,81.665C208.495,90.406 202.953,122.73 180.397,134.306C173.908,137.637 173.707,137.74 90.462,149.268C55.303,154.137 51.466,155.684 53.434,152.473C67.044,130.26 68.009,129.394 69.772,127.815C79.161,119.398 167.342,108.943 181.432,100.381C194.567,92.399 180.973,88.748 132.578,73.258Z" style="fill:rgb(9,142,238);"/>
            </g>
        </g>
        <g transform="matrix(0.349279,0,0,0.4385,1079.570477,13.184903)">
            <g transform="matrix(2.085848,0,0,1.661444,29.655664,66.019066)">
                <path d="M189.451,18.124C203.337,16.275 203.307,16.217 204.515,16.073C209.319,15.501 203.037,22.591 195.948,33.773C186.823,48.164 183.59,44.344 158.557,49.775C109.432,60.433 78.226,63.469 74.939,74.627C71.302,86.971 137.312,101.36 137.541,103.483C137.764,105.552 136.371,104.445 126.493,103.613C122.01,103.235 87.939,100.364 71.63,91.272C54.091,81.494 61.043,43.775 85.728,32.986C94.565,29.123 116.866,28.253 189.451,18.124Z" style="fill:rgb(0,4,92);"/>
            </g>
        </g>
        <g transform="matrix(0.349279,0,0,0.4385,1079.570477,13.184903)">
            <g transform="matrix(1.416293,0,0,1.608015,-872.374255,253.086836)">
                <path d="M710.451,148.404L710.451,58.515L785.756,58.515C795.059,58.515 802.288,60.862 807.443,65.555C812.597,70.249 815.174,77.373 815.174,86.927C815.174,95.057 813.288,101.427 809.517,106.037C805.745,110.646 800.381,113.538 793.425,114.711L814.169,148.404L791.288,148.404L772.053,115.34L730.566,115.34L730.566,148.404L710.451,148.404ZM783.367,74.858L730.566,74.858L730.566,98.871L783.367,98.996C787.055,98.996 789.884,98.074 791.853,96.231C793.823,94.387 794.808,91.286 794.808,86.927C794.808,82.485 793.823,79.363 791.853,77.561C789.884,75.759 787.055,74.858 783.367,74.858Z" style="fill:rgb(59,183,11);fill-rule:nonzero;"/>
            </g>
        </g>
        <g transform="matrix(0.349279,0,0,0.4385,1079.570477,13.184903)">
            <g transform="matrix(1.416293,0,0,1.608015,-872.374255,253.086836)">
                <path d="M830.26,148.404L830.26,58.515L850.375,58.515L850.375,95.35L913.738,95.35L913.738,58.515L933.853,58.515L933.853,148.404L913.738,148.404L913.738,111.694L850.375,111.694L850.375,148.404L830.26,148.404Z" style="fill:rgb(59,183,11);fill-rule:nonzero;"/>
            </g>
        </g>
    </g>
</svg>
